<svg width="24" height="24" viewBox="0 0 24 24" fill="none" xmlns="http://www.w3.org/2000/svg">
<path d="M9 18C9 16.3431 7.65685 15 6 15C4.34315 15 3 16.3431 3 18C3 19.6569 4.34315 21 6 21C7.65685 21 9 19.6569 9 18Z" stroke="#494B53" stroke-width="2" stroke-linecap="round" stroke-linejoin="round"/>
<path d="M21 18C21 16.3431 19.6569 15 18 15C16.3431 15 15 16.3431 15 18C15 19.6569 16.3431 21 18 21C19.6569 21 21 19.6569 21 18Z" stroke="#494B53" stroke-width="2" stroke-linecap="round" stroke-linejoin="round"/>
<path d="M4 4L15.88 15.88" stroke="#494B53" stroke-width="2" stroke-linecap="round" stroke-linejoin="round"/>
<path d="M8.12 15.88L20 4" stroke="#494B53" stroke-width="2" stroke-linecap="round" stroke-linejoin="round"/>
</svg>
