<svg width="26" height="30" viewBox="0 0 26 30" fill="none" xmlns="http://www.w3.org/2000/svg">
<path d="M21.7124 4.74837H21.997C22.7732 4.74837 23.4022 5.32524 23.4022 6.03656V25.7865C23.4022 26.4981 22.7732 27.0747 21.997 27.0747H4.16714C3.39089 27.0747 2.76196 26.4981 2.76196 25.7865V25.5403" stroke="#494B53" stroke-miterlimit="10" stroke-linecap="round" stroke-linejoin="round"/>
<path d="M23.4324 6.32503H23.717C24.4932 6.32503 25.1221 6.9019 25.1221 7.61322V27.3632C25.1221 28.0748 24.4932 28.6514 23.717 28.6514H5.88711C5.11086 28.6514 4.48193 28.0748 4.48193 27.3632V27.1169" stroke="#494B53" stroke-miterlimit="10" stroke-linecap="round" stroke-linejoin="round"/>
<path d="M7.36768 0.918457H15.4166" stroke="#494B53" stroke-miterlimit="10" stroke-linecap="round" stroke-linejoin="round"/>
<path d="M17.8423 3.21371H20.3073C21.0832 3.21371 21.7121 3.79027 21.7121 4.50189V24.2519C21.7121 24.9632 21.0832 25.54 20.3073 25.54H2.47711C1.70087 25.54 1.07227 24.9632 1.07227 24.2519V4.50189C1.07227 3.79027 1.70087 3.21371 2.47711 3.21371H4.9421" stroke="#494B53" stroke-miterlimit="10" stroke-linecap="round" stroke-linejoin="round"/>
<path d="M11.3921 5.70504L7.36778 0.918105L4.94214 3.21334L8.63572 8.57715L11.3921 5.70504Z" stroke="#494B53" stroke-miterlimit="10" stroke-linecap="round" stroke-linejoin="round"/>
<path d="M11.3921 5.70504L15.4167 0.918105L17.8424 3.21334L14.1488 8.57715L11.3921 5.70504Z" stroke="#494B53" stroke-miterlimit="10" stroke-linecap="round" stroke-linejoin="round"/>
<path d="M10.02 7.22136V25.54H12.764V7.22136" stroke="#494B53" stroke-miterlimit="10" stroke-linecap="round" stroke-linejoin="round"/>
<path d="M11.3918 7.57727C11.3918 7.57727 11.3918 7.57727 11.3918 7.57726C11.3916 7.57729 11.3914 7.57733 11.3912 7.57738C11.3854 7.57856 11.3529 7.58516 11.3213 7.61886C11.2915 7.65069 11.2845 7.6836 11.2845 7.70428C11.2845 7.72497 11.2915 7.75806 11.3215 7.79007C11.353 7.8237 11.3853 7.83037 11.3912 7.83159C11.3915 7.83164 11.3917 7.83169 11.3918 7.83172C11.3918 7.83173 11.3919 7.83173 11.3919 7.83173C11.392 7.8317 11.3922 7.83167 11.3924 7.83162C11.3982 7.83047 11.4308 7.8239 11.4625 7.79009C11.4923 7.75829 11.4993 7.72546 11.4993 7.70482C11.4993 7.68418 11.4923 7.65106 11.4623 7.61899C11.4308 7.5853 11.3984 7.57862 11.3924 7.5774C11.3922 7.57735 11.392 7.57731 11.3918 7.57727Z" fill="#231F20" stroke="#494B53"/>
<path d="M11.3918 11.5167C11.3918 11.5167 11.3918 11.5167 11.3918 11.5167C11.3916 11.5167 11.3914 11.5168 11.3912 11.5168C11.3854 11.518 11.3529 11.5246 11.3213 11.5583C11.2915 11.5901 11.2845 11.6231 11.2845 11.6437C11.2845 11.6644 11.2915 11.6975 11.3215 11.7295C11.353 11.7631 11.3853 11.7698 11.3912 11.771C11.3915 11.7711 11.3917 11.7711 11.3918 11.7712C11.3918 11.7712 11.3919 11.7712 11.3919 11.7712C11.392 11.7712 11.3922 11.7711 11.3924 11.7711C11.3982 11.7699 11.4308 11.7634 11.4625 11.7295C11.4923 11.6977 11.4993 11.6649 11.4993 11.6443C11.4993 11.6236 11.4923 11.5905 11.4623 11.5584C11.4308 11.5248 11.3984 11.5181 11.3924 11.5169C11.3922 11.5168 11.392 11.5168 11.3918 11.5167Z" fill="#231F20" stroke="#494B53"/>
<path d="M11.3918 15.4572C11.3918 15.4572 11.3918 15.4571 11.3918 15.4571C11.3916 15.4572 11.3914 15.4572 11.3912 15.4573C11.3854 15.4584 11.3529 15.465 11.3213 15.4987C11.2915 15.5306 11.2845 15.5635 11.2845 15.5842C11.2845 15.6049 11.2915 15.6379 11.3215 15.67C11.353 15.7036 11.3853 15.7103 11.3912 15.7115C11.3915 15.7115 11.3917 15.7116 11.3918 15.7116C11.3918 15.7116 11.3919 15.7116 11.3919 15.7116C11.392 15.7116 11.3922 15.7115 11.3924 15.7115C11.3982 15.7104 11.4308 15.7038 11.4625 15.67C11.4923 15.6382 11.4993 15.6053 11.4993 15.5847C11.4993 15.5641 11.4923 15.5309 11.4623 15.4989C11.4308 15.4652 11.3984 15.4585 11.3924 15.4573C11.3922 15.4572 11.392 15.4572 11.3918 15.4572Z" fill="#231F20" stroke="#494B53"/>
<path d="M11.3918 19.3966C11.3918 19.3966 11.3918 19.3966 11.3918 19.3966C11.3916 19.3966 11.3914 19.3967 11.3912 19.3967C11.3854 19.3979 11.3529 19.4045 11.3213 19.4382C11.2915 19.47 11.2845 19.5029 11.2845 19.5236C11.2845 19.5443 11.2915 19.5774 11.3215 19.6094C11.353 19.643 11.3853 19.6497 11.3912 19.6509C11.3915 19.651 11.3917 19.651 11.3918 19.6511C11.3918 19.6511 11.3919 19.6511 11.3919 19.6511C11.392 19.651 11.3922 19.651 11.3924 19.651C11.3982 19.6498 11.4308 19.6432 11.4625 19.6094C11.4923 19.5776 11.4993 19.5448 11.4993 19.5242C11.4993 19.5035 11.4923 19.4704 11.4623 19.4383C11.4308 19.4046 11.3984 19.398 11.3924 19.3967C11.3922 19.3967 11.392 19.3966 11.3918 19.3966Z" fill="#231F20" stroke="#494B53"/>
<path d="M11.3918 23.3365C11.3918 23.3365 11.3918 23.3365 11.3918 23.3365C11.3916 23.3366 11.3914 23.3366 11.3912 23.3367C11.3854 23.3378 11.3529 23.3444 11.3213 23.3781C11.2915 23.41 11.2845 23.4429 11.2845 23.4636C11.2845 23.4842 11.2915 23.5173 11.3215 23.5494C11.353 23.583 11.3853 23.5896 11.3912 23.5909C11.3915 23.5909 11.3917 23.591 11.3918 23.591C11.3918 23.591 11.3919 23.591 11.3919 23.591C11.392 23.591 11.3922 23.5909 11.3924 23.5909C11.3982 23.5897 11.4308 23.5832 11.4625 23.5494C11.4923 23.5176 11.4993 23.4847 11.4993 23.4641C11.4993 23.4435 11.4923 23.4103 11.4623 23.3783C11.4308 23.3446 11.3984 23.3379 11.3924 23.3367C11.3922 23.3366 11.392 23.3366 11.3918 23.3365Z" fill="#231F20" stroke="#494B53"/>
<path d="M20.102 12.7788H14.802V11.3544H20.102V12.7788Z" stroke="#494B53" stroke-miterlimit="10" stroke-linecap="round" stroke-linejoin="round"/>
</svg>
