<svg width="24" height="24" viewBox="0 0 24 24" fill="none" xmlns="http://www.w3.org/2000/svg">
<mask id="path-1-outside-1_11_25737" maskUnits="userSpaceOnUse" x="6" y="3" width="12" height="17" fill="black">
<rect fill="white" x="6" y="3" width="12" height="17"/>
<path fill-rule="evenodd" clip-rule="evenodd" d="M8.53513 4H7V19H17V4H15.4649C14.7733 4.5978 13.4806 5 12 5C10.5194 5 9.22675 4.5978 8.53513 4Z"/>
</mask>
<path fill-rule="evenodd" clip-rule="evenodd" d="M8.53513 4H7V19H17V4H15.4649C14.7733 4.5978 13.4806 5 12 5C10.5194 5 9.22675 4.5978 8.53513 4Z" fill="#F4E1F0"/>
<path d="M7 4V3C6.44772 3 6 3.44772 6 4H7ZM8.53513 4L9.18906 3.24344C9.00738 3.08641 8.77526 3 8.53513 3V4ZM7 19H6C6 19.5523 6.44772 20 7 20V19ZM17 19V20C17.5523 20 18 19.5523 18 19H17ZM17 4H18C18 3.44772 17.5523 3 17 3V4ZM15.4649 4V3C15.2247 3 14.9926 3.08641 14.8109 3.24344L15.4649 4ZM7 5H8.53513V3H7V5ZM8 19V4H6V19H8ZM17 18H7V20H17V18ZM16 4V19H18V4H16ZM15.4649 5H17V3H15.4649V5ZM14.8109 3.24344C14.369 3.62544 13.3489 4 12 4V6C13.6122 6 15.1775 5.57017 16.1188 4.75656L14.8109 3.24344ZM12 4C10.6511 4 9.631 3.62544 9.18906 3.24344L7.8812 4.75656C8.8225 5.57017 10.3878 6 12 6V4Z" fill="#E0A8D2" mask="url(#path-1-outside-1_11_25737)"/>
<mask id="path-3-outside-2_11_25737" maskUnits="userSpaceOnUse" x="2" y="3" width="20" height="17" fill="black">
<rect fill="white" x="2" y="3" width="20" height="17"/>
<path fill-rule="evenodd" clip-rule="evenodd" d="M8.08001 4H7H6L3 8L5 10L7 8V19H17V8L19 10L21 8L18 4H17H15.92C15.5494 6.28224 13.9352 8 12 8C10.0648 8 8.45063 6.28224 8.08001 4Z"/>
</mask>
<path fill-rule="evenodd" clip-rule="evenodd" d="M8.08001 4H7H6L3 8L5 10L7 8V19H17V8L19 10L21 8L18 4H17H15.92C15.5494 6.28224 13.9352 8 12 8C10.0648 8 8.45063 6.28224 8.08001 4Z" fill="#F4E1F0"/>
<path d="M8.08001 4L9.06708 3.83971C8.98848 3.35564 8.57043 3 8.08001 3V4ZM6 4V3C5.68524 3 5.38885 3.14819 5.2 3.4L6 4ZM3 8L2.2 7.4C1.90141 7.79812 1.941 8.35521 2.29289 8.70711L3 8ZM5 10L4.29289 10.7071C4.68342 11.0976 5.31658 11.0976 5.70711 10.7071L5 10ZM7 8H8C8 7.59554 7.75636 7.2309 7.38268 7.07612C7.00901 6.92134 6.57889 7.0069 6.29289 7.29289L7 8ZM7 19H6C6 19.5523 6.44772 20 7 20V19ZM17 19V20C17.5523 20 18 19.5523 18 19H17ZM17 8L17.7071 7.29289C17.4211 7.0069 16.991 6.92134 16.6173 7.07612C16.2436 7.2309 16 7.59554 16 8H17ZM19 10L18.2929 10.7071C18.6834 11.0976 19.3166 11.0976 19.7071 10.7071L19 10ZM21 8L21.7071 8.70711C22.059 8.35521 22.0986 7.79812 21.8 7.4L21 8ZM18 4L18.8 3.4C18.6111 3.14819 18.3148 3 18 3V4ZM15.92 4V3C15.4296 3 15.0115 3.35564 14.9329 3.83971L15.92 4ZM8.08001 3H7V5H8.08001V3ZM7 3H6V5H7V3ZM5.2 3.4L2.2 7.4L3.8 8.6L6.8 4.6L5.2 3.4ZM2.29289 8.70711L4.29289 10.7071L5.70711 9.29289L3.70711 7.29289L2.29289 8.70711ZM5.70711 10.7071L7.70711 8.70711L6.29289 7.29289L4.29289 9.29289L5.70711 10.7071ZM6 8V19H8V8H6ZM7 20H17V18H7V20ZM18 19V8H16V19H18ZM16.2929 8.70711L18.2929 10.7071L19.7071 9.29289L17.7071 7.29289L16.2929 8.70711ZM19.7071 10.7071L21.7071 8.70711L20.2929 7.29289L18.2929 9.29289L19.7071 10.7071ZM21.8 7.4L18.8 3.4L17.2 4.6L20.2 8.6L21.8 7.4ZM18 3H17V5H18V3ZM17 3H15.92V5H17V3ZM14.9329 3.83971C14.6122 5.8144 13.2852 7 12 7V9C14.5851 9 16.4865 6.75008 16.9071 4.16029L14.9329 3.83971ZM12 7C10.7148 7 9.38776 5.8144 9.06708 3.83971L7.09295 4.16029C7.51351 6.75008 9.41486 9 12 9V7Z" fill="#E0A8D2" mask="url(#path-3-outside-2_11_25737)"/>
</svg>
