<svg width="482" height="482" viewBox="0 0 482 482" fill="none" xmlns="http://www.w3.org/2000/svg">
<path d="M481.392 0.618164H1.39209V480.618H481.392V0.618164Z" fill="white"/>
<path d="M481.392 0.618164H1.39209V227.618H481.392V0.618164Z" stroke="#494B53"/>
<path d="M354.392 227.618H1.39209V480.618H354.392V227.618Z" stroke="#494B53"/>
<path d="M481.392 227.618H354.392V343.618H481.392V227.618Z" stroke="#494B53"/>
<path d="M481.392 343.618H354.392V403.618H481.392V343.618Z" stroke="#494B53"/>
<path d="M446.392 403.618H354.392V480.618H446.392V403.618Z" stroke="#494B53"/>
<path d="M481.392 403.618H446.392V446.618H481.392V403.618Z" stroke="#494B53"/>
<path d="M466.392 446.618H446.392V460.618H466.392V446.618Z" stroke="#494B53"/>
<path d="M456.392 460.618H446.392V480.618H456.392V460.618Z" stroke="#494B53"/>
<path d="M466.392 460.618H456.392V480.618H466.392V460.618Z" stroke="#494B53"/>
<path d="M474.392 446.618H466.392V459.618H474.392V446.618Z" stroke="#494B53"/>
<path d="M481.392 446.618H474.392V459.618H481.392V446.618Z" stroke="#494B53"/>
<path d="M481.392 459.618H466.392V466.618H481.392V459.618Z" stroke="#494B53"/>
<path d="M474.392 466.618H466.392V480.618H474.392V466.618Z" stroke="#494B53"/>
<path d="M481.392 466.618H474.392V480.618H481.392V466.618Z" stroke="#494B53"/>
<path d="M17.7233 49.0542H16.5263V38.7292H19.4243C20.2223 38.7292 20.885 38.8785 21.4123 39.1772C21.9396 39.4712 22.334 39.8679 22.5953 40.3672C22.8566 40.8665 22.9873 41.4219 22.9873 42.0332C22.9873 42.6445 22.852 43.2092 22.5813 43.7272C22.3153 44.2452 21.9163 44.6629 21.3843 44.9802C20.857 45.2929 20.2036 45.4492 19.4243 45.4492H17.7233V49.0542ZM17.7233 45.0082L17.1843 44.3992H19.2773C19.8373 44.3992 20.3016 44.3012 20.6703 44.1052C21.0436 43.9045 21.3213 43.6269 21.5033 43.2722C21.69 42.9175 21.7833 42.5045 21.7833 42.0332C21.7833 41.5572 21.6946 41.1512 21.5173 40.8152C21.34 40.4792 21.067 40.2225 20.6983 40.0452C20.3296 39.8679 19.856 39.7792 19.2773 39.7792H17.1843L17.7233 39.1002V45.0082ZM27.8149 49.1872C27.0682 49.1872 26.4079 49.0215 25.8339 48.6902C25.2646 48.3542 24.8166 47.8969 24.4899 47.3182C24.1679 46.7349 24.0069 46.0722 24.0069 45.3302C24.0069 44.5882 24.1679 43.9302 24.4899 43.3562C24.8166 42.7822 25.2646 42.3319 25.8339 42.0052C26.4079 41.6785 27.0682 41.5152 27.8149 41.5152C28.5616 41.5152 29.2196 41.6785 29.7889 42.0052C30.3629 42.3319 30.8109 42.7822 31.1329 43.3562C31.4596 43.9302 31.6229 44.5882 31.6229 45.3302C31.6229 46.0722 31.4596 46.7349 31.1329 47.3182C30.8109 47.8969 30.3629 48.3542 29.7889 48.6902C29.2196 49.0215 28.5616 49.1872 27.8149 49.1872ZM27.8149 48.0952C28.3282 48.0952 28.7809 47.9809 29.1729 47.7522C29.5649 47.5235 29.8706 47.2015 30.0899 46.7862C30.3139 46.3709 30.4259 45.8855 30.4259 45.3302C30.4259 44.7749 30.3139 44.2942 30.0899 43.8882C29.8706 43.4775 29.5649 43.1625 29.1729 42.9432C28.7809 42.7192 28.3282 42.6072 27.8149 42.6072C27.3062 42.6072 26.8536 42.7192 26.4569 42.9432C26.0649 43.1625 25.7569 43.4775 25.5329 43.8882C25.3136 44.2942 25.2039 44.7749 25.2039 45.3302C25.2039 45.8855 25.3136 46.3709 25.5329 46.7862C25.7569 47.2015 26.0649 47.5235 26.4569 47.7522C26.8536 47.9809 27.3062 48.0952 27.8149 48.0952ZM34.7624 38.1132V49.0542H33.5864V38.1132H34.7624ZM37.1644 52.1902C36.9777 52.1902 36.8074 52.1785 36.6534 52.1552C36.4994 52.1365 36.4037 52.1179 36.3664 52.0992V51.0632C36.4271 51.0912 36.5274 51.1145 36.6674 51.1332C36.8074 51.1519 36.9474 51.1612 37.0874 51.1612C37.3861 51.1612 37.6381 51.0982 37.8434 50.9722C38.0487 50.8509 38.2214 50.6829 38.3614 50.4682C38.5014 50.2582 38.6157 50.0202 38.7044 49.7542L38.9284 49.0962L36.3664 41.6202H37.6124L39.6704 48.0252H39.5024L41.5184 41.6202H42.7434L40.0204 49.6912C39.8664 50.1439 39.6797 50.5592 39.4604 50.9372C39.2457 51.3152 38.9564 51.6185 38.5924 51.8472C38.2331 52.0759 37.7571 52.1902 37.1644 52.1902ZM44.1887 45.8132V44.7492H49.9357L49.7257 45.0992C49.7257 45.0712 49.7257 45.0455 49.7257 45.0222C49.7257 44.9942 49.7257 44.9685 49.7257 44.9452C49.7257 44.5159 49.6347 44.1239 49.4527 43.7692C49.2753 43.4099 49.0093 43.1229 48.6547 42.9082C48.3 42.6935 47.8613 42.5862 47.3387 42.5862C46.8113 42.5862 46.347 42.6982 45.9457 42.9222C45.5443 43.1462 45.2317 43.4635 45.0077 43.8742C44.7837 44.2802 44.6717 44.7655 44.6717 45.3302C44.6717 45.9042 44.779 46.3989 44.9937 46.8142C45.213 47.2295 45.5233 47.5492 45.9247 47.7732C46.326 47.9972 46.802 48.1092 47.3527 48.1092C47.7447 48.1092 48.0853 48.0695 48.3747 47.9902C48.664 47.9062 48.902 47.7965 49.0887 47.6612C49.28 47.5212 49.4247 47.3695 49.5227 47.2062C49.6207 47.0429 49.679 46.8795 49.6977 46.7162H50.8877C50.8643 47.0149 50.771 47.3112 50.6077 47.6052C50.4443 47.8992 50.2133 48.1675 49.9147 48.4102C49.616 48.6482 49.2497 48.8395 48.8157 48.9842C48.3817 49.1289 47.8823 49.2012 47.3177 49.2012C46.571 49.2012 45.913 49.0379 45.3437 48.7112C44.7743 48.3845 44.3263 47.9319 43.9997 47.3532C43.6777 46.7745 43.5167 46.1095 43.5167 45.3582C43.5167 44.5975 43.68 43.9302 44.0067 43.3562C44.3333 42.7775 44.7837 42.3249 45.3577 41.9982C45.9317 41.6715 46.5873 41.5082 47.3247 41.5082C48.076 41.5082 48.727 41.6715 49.2777 41.9982C49.8283 42.3249 50.253 42.7729 50.5517 43.3422C50.8503 43.9069 50.9997 44.5509 50.9997 45.2742C50.9997 45.3489 50.9973 45.4469 50.9927 45.5682C50.988 45.6895 50.981 45.7712 50.9717 45.8132H44.1887ZM55.6964 49.1942C55.2484 49.1942 54.8331 49.1475 54.4504 49.0542C54.0724 48.9562 53.7411 48.8162 53.4564 48.6342C53.1764 48.4475 52.9571 48.2189 52.7984 47.9482C52.6444 47.6775 52.5674 47.3672 52.5674 47.0172C52.5674 46.9799 52.5674 46.9425 52.5674 46.9052C52.5674 46.8632 52.5674 46.8282 52.5674 46.8002H53.7644C53.7644 46.8282 53.7644 46.8515 53.7644 46.8702C53.7644 46.8889 53.7644 46.9169 53.7644 46.9542C53.7644 47.3322 53.9394 47.6215 54.2894 47.8222C54.6394 48.0182 55.1178 48.1162 55.7244 48.1162C56.0978 48.1162 56.4314 48.0789 56.7254 48.0042C57.0194 47.9295 57.2504 47.8152 57.4184 47.6612C57.5911 47.5072 57.6774 47.3135 57.6774 47.0802C57.6774 46.6929 57.4954 46.4175 57.1314 46.2542C56.7721 46.0862 56.2331 45.9415 55.5144 45.8202C55.1364 45.7549 54.7771 45.6709 54.4364 45.5682C54.0958 45.4609 53.7924 45.3232 53.5264 45.1552C53.2651 44.9872 53.0574 44.7795 52.9034 44.5322C52.7541 44.2802 52.6794 43.9792 52.6794 43.6292C52.6794 43.1765 52.8124 42.7939 53.0784 42.4812C53.3491 42.1639 53.7131 41.9235 54.1704 41.7602C54.6278 41.5922 55.1364 41.5082 55.6964 41.5082C56.2378 41.5082 56.7371 41.5945 57.1944 41.7672C57.6518 41.9399 58.0181 42.1919 58.2934 42.5232C58.5734 42.8499 58.7134 43.2535 58.7134 43.7342C58.7134 43.7529 58.7134 43.7762 58.7134 43.8042C58.7134 43.8275 58.7134 43.8509 58.7134 43.8742H57.5234C57.5234 43.8509 57.5234 43.8322 57.5234 43.8182C57.5234 43.8042 57.5234 43.7879 57.5234 43.7692C57.5234 43.4985 57.4371 43.2769 57.2644 43.1042C57.0918 42.9269 56.8678 42.7962 56.5924 42.7122C56.3171 42.6235 56.0231 42.5792 55.7104 42.5792C55.4164 42.5792 55.1271 42.6119 54.8424 42.6772C54.5578 42.7379 54.3221 42.8405 54.1354 42.9852C53.9488 43.1299 53.8554 43.3282 53.8554 43.5802C53.8554 43.8322 53.9418 44.0352 54.1144 44.1892C54.2918 44.3385 54.5391 44.4622 54.8564 44.5602C55.1784 44.6535 55.5564 44.7399 55.9904 44.8192C56.3778 44.8892 56.7441 44.9779 57.0894 45.0852C57.4348 45.1879 57.7381 45.3209 57.9994 45.4842C58.2654 45.6475 58.4731 45.8552 58.6224 46.1072C58.7764 46.3545 58.8534 46.6579 58.8534 47.0172C58.8534 47.3812 58.7694 47.6985 58.6014 47.9692C58.4381 48.2399 58.2094 48.4662 57.9154 48.6482C57.6261 48.8302 57.2901 48.9655 56.9074 49.0542C56.5294 49.1475 56.1258 49.1942 55.6964 49.1942ZM63.4917 49.1662C63.263 49.1662 63.039 49.1405 62.8197 49.0892C62.6004 49.0379 62.402 48.9469 62.2247 48.8162C62.052 48.6809 61.9144 48.4919 61.8117 48.2492C61.709 48.0019 61.6577 47.6845 61.6577 47.2972C61.6577 47.1992 61.6577 47.0989 61.6577 46.9962C61.6577 46.8889 61.6577 46.7769 61.6577 46.6602V42.6702H59.8447V41.6202H61.0067C61.1654 41.6202 61.289 41.6155 61.3777 41.6062C61.4664 41.5922 61.5294 41.5619 61.5667 41.5152C61.6087 41.4639 61.6344 41.3869 61.6437 41.2842C61.653 41.1769 61.6577 41.0299 61.6577 40.8432V39.1562H62.8547V41.6202H65.1787V42.6702H62.8547V46.2752C62.8547 46.3779 62.8547 46.4782 62.8547 46.5762C62.8547 46.6742 62.8547 46.7652 62.8547 46.8492C62.8547 47.2459 62.9014 47.5562 62.9947 47.7802C63.0927 48.0042 63.3097 48.1162 63.6457 48.1162C63.781 48.1162 63.9094 48.1045 64.0307 48.0812C64.152 48.0579 64.243 48.0345 64.3037 48.0112V49.0472C64.2244 49.0752 64.1124 49.1009 63.9677 49.1242C63.8277 49.1522 63.669 49.1662 63.4917 49.1662ZM66.843 45.8132V44.7492H72.59L72.38 45.0992C72.38 45.0712 72.38 45.0455 72.38 45.0222C72.38 44.9942 72.38 44.9685 72.38 44.9452C72.38 44.5159 72.289 44.1239 72.107 43.7692C71.9296 43.4099 71.6636 43.1229 71.309 42.9082C70.9543 42.6935 70.5156 42.5862 69.993 42.5862C69.4656 42.5862 69.0013 42.6982 68.6 42.9222C68.1986 43.1462 67.886 43.4635 67.662 43.8742C67.438 44.2802 67.326 44.7655 67.326 45.3302C67.326 45.9042 67.4333 46.3989 67.648 46.8142C67.8673 47.2295 68.1776 47.5492 68.579 47.7732C68.9803 47.9972 69.4563 48.1092 70.007 48.1092C70.399 48.1092 70.7396 48.0695 71.029 47.9902C71.3183 47.9062 71.5563 47.7965 71.743 47.6612C71.9343 47.5212 72.079 47.3695 72.177 47.2062C72.275 47.0429 72.3333 46.8795 72.352 46.7162H73.542C73.5186 47.0149 73.4253 47.3112 73.262 47.6052C73.0986 47.8992 72.8676 48.1675 72.569 48.4102C72.2703 48.6482 71.904 48.8395 71.47 48.9842C71.036 49.1289 70.5366 49.2012 69.972 49.2012C69.2253 49.2012 68.5673 49.0379 67.998 48.7112C67.4286 48.3845 66.9806 47.9319 66.654 47.3532C66.332 46.7745 66.171 46.1095 66.171 45.3582C66.171 44.5975 66.3343 43.9302 66.661 43.3562C66.9876 42.7775 67.438 42.3249 68.012 41.9982C68.586 41.6715 69.2416 41.5082 69.979 41.5082C70.7303 41.5082 71.3813 41.6715 71.932 41.9982C72.4826 42.3249 72.9073 42.7729 73.206 43.3422C73.5046 43.9069 73.654 44.5509 73.654 45.2742C73.654 45.3489 73.6516 45.4469 73.647 45.5682C73.6423 45.6895 73.6353 45.7712 73.626 45.8132H66.843ZM75.5087 49.0542V41.6202H76.6987V43.9022L76.3067 43.7622C76.3347 43.4869 76.4047 43.2162 76.5167 42.9502C76.6287 42.6795 76.7827 42.4369 76.9787 42.2222C77.1794 42.0029 77.4291 41.8302 77.7277 41.7042C78.0264 41.5735 78.3764 41.5082 78.7777 41.5082C79.0764 41.5082 79.3191 41.5339 79.5057 41.5852C79.6971 41.6319 79.8161 41.6692 79.8627 41.6972L79.5547 42.8662C79.5081 42.8335 79.4124 42.7915 79.2677 42.7402C79.1277 42.6889 78.9271 42.6632 78.6657 42.6632C78.2784 42.6632 77.9564 42.7332 77.6997 42.8732C77.4477 43.0132 77.2471 43.1999 77.0977 43.4332C76.9531 43.6619 76.8504 43.9115 76.7897 44.1822C76.7291 44.4529 76.6987 44.7212 76.6987 44.9872V49.0542H75.5087Z" fill="#494B53"/>
<path d="M17.1843 265.12L17.7233 264.441V269.103L17.4293 268.69H21.3913V269.74H17.4293L17.7233 269.327V274.024L17.1843 273.345H22.1683V274.395H16.5263V264.07H22.1683V265.12H17.1843ZM25.5065 263.454V274.395H24.3305V263.454H25.5065ZM30.2815 274.535C29.7169 274.535 29.2222 274.446 28.7975 274.269C28.3775 274.092 28.0509 273.837 27.8175 273.506C27.5842 273.17 27.4675 272.769 27.4675 272.302C27.4675 271.817 27.5935 271.413 27.8455 271.091C28.0975 270.764 28.4522 270.51 28.9095 270.328C29.3669 270.146 29.8989 270.025 30.5055 269.964C31.4202 269.871 32.0712 269.78 32.4585 269.691C32.8459 269.598 33.0395 269.448 33.0395 269.243C33.0395 269.238 33.0395 269.236 33.0395 269.236C33.0395 269.231 33.0395 269.227 33.0395 269.222C33.0395 268.793 32.8645 268.473 32.5145 268.263C32.1645 268.048 31.6582 267.941 30.9955 267.941C30.3049 267.941 29.7682 268.062 29.3855 268.305C29.0029 268.543 28.8115 268.93 28.8115 269.467H27.6355C27.6355 268.912 27.7779 268.44 28.0625 268.053C28.3472 267.661 28.7415 267.362 29.2455 267.157C29.7542 266.952 30.3399 266.849 31.0025 266.849C31.6092 266.849 32.1552 266.942 32.6405 267.129C33.1305 267.311 33.5179 267.584 33.8025 267.948C34.0919 268.307 34.2365 268.753 34.2365 269.285C34.2365 269.383 34.2365 269.481 34.2365 269.579C34.2365 269.672 34.2365 269.768 34.2365 269.866V272.995C34.2365 273.158 34.2435 273.317 34.2575 273.471C34.2715 273.625 34.2949 273.76 34.3275 273.877C34.3695 274.017 34.4162 274.131 34.4675 274.22C34.5189 274.304 34.5609 274.362 34.5935 274.395H33.3965C33.3732 274.372 33.3382 274.318 33.2915 274.234C33.2449 274.145 33.2005 274.043 33.1585 273.926C33.1259 273.833 33.1002 273.716 33.0815 273.576C33.0629 273.431 33.0535 273.282 33.0535 273.128L33.2495 273.261C33.1049 273.513 32.8925 273.735 32.6125 273.926C32.3372 274.117 32.0035 274.267 31.6115 274.374C31.2195 274.481 30.7762 274.535 30.2815 274.535ZM30.4705 273.464C30.9512 273.464 31.3852 273.392 31.7725 273.247C32.1599 273.098 32.4679 272.878 32.6965 272.589C32.9252 272.3 33.0395 271.94 33.0395 271.511V270.034L33.3055 270.482C33.0069 270.599 32.6335 270.694 32.1855 270.769C31.7422 270.839 31.2779 270.897 30.7925 270.944C30.0879 271.009 29.5559 271.133 29.1965 271.315C28.8419 271.497 28.6645 271.803 28.6645 272.232C28.6645 272.638 28.8115 272.946 29.1055 273.156C29.3995 273.361 29.8545 273.464 30.4705 273.464ZM39.0578 274.535C38.6098 274.535 38.1944 274.488 37.8118 274.395C37.4338 274.297 37.1024 274.157 36.8178 273.975C36.5378 273.788 36.3184 273.56 36.1598 273.289C36.0058 273.018 35.9288 272.708 35.9288 272.358C35.9288 272.321 35.9288 272.283 35.9288 272.246C35.9288 272.204 35.9288 272.169 35.9288 272.141H37.1258C37.1258 272.169 37.1258 272.192 37.1258 272.211C37.1258 272.23 37.1258 272.258 37.1258 272.295C37.1258 272.673 37.3008 272.962 37.6508 273.163C38.0008 273.359 38.4791 273.457 39.0858 273.457C39.4591 273.457 39.7928 273.42 40.0868 273.345C40.3808 273.27 40.6118 273.156 40.7798 273.002C40.9524 272.848 41.0388 272.654 41.0388 272.421C41.0388 272.034 40.8568 271.758 40.4928 271.595C40.1334 271.427 39.5944 271.282 38.8758 271.161C38.4978 271.096 38.1384 271.012 37.7978 270.909C37.4571 270.802 37.1538 270.664 36.8878 270.496C36.6264 270.328 36.4188 270.12 36.2648 269.873C36.1154 269.621 36.0408 269.32 36.0408 268.97C36.0408 268.517 36.1738 268.135 36.4398 267.822C36.7104 267.505 37.0744 267.264 37.5318 267.101C37.9891 266.933 38.4978 266.849 39.0578 266.849C39.5991 266.849 40.0984 266.935 40.5558 267.108C41.0131 267.281 41.3794 267.533 41.6548 267.864C41.9348 268.191 42.0748 268.594 42.0748 269.075C42.0748 269.094 42.0748 269.117 42.0748 269.145C42.0748 269.168 42.0748 269.192 42.0748 269.215H40.8848C40.8848 269.192 40.8848 269.173 40.8848 269.159C40.8848 269.145 40.8848 269.129 40.8848 269.11C40.8848 268.839 40.7984 268.618 40.6258 268.445C40.4531 268.268 40.2291 268.137 39.9538 268.053C39.6784 267.964 39.3844 267.92 39.0718 267.92C38.7778 267.92 38.4884 267.953 38.2038 268.018C37.9191 268.079 37.6834 268.181 37.4968 268.326C37.3101 268.471 37.2168 268.669 37.2168 268.921C37.2168 269.173 37.3031 269.376 37.4758 269.53C37.6531 269.679 37.9004 269.803 38.2178 269.901C38.5398 269.994 38.9178 270.081 39.3518 270.16C39.7391 270.23 40.1054 270.319 40.4508 270.426C40.7961 270.529 41.0994 270.662 41.3608 270.825C41.6268 270.988 41.8344 271.196 41.9838 271.448C42.1378 271.695 42.2148 271.999 42.2148 272.358C42.2148 272.722 42.1308 273.039 41.9628 273.31C41.7994 273.581 41.5708 273.807 41.2768 273.989C40.9874 274.171 40.6514 274.306 40.2688 274.395C39.8908 274.488 39.4871 274.535 39.0578 274.535ZM46.853 274.507C46.6244 274.507 46.4004 274.481 46.181 274.43C45.9617 274.379 45.7634 274.288 45.586 274.157C45.4134 274.022 45.2757 273.833 45.173 273.59C45.0704 273.343 45.019 273.025 45.019 272.638C45.019 272.54 45.019 272.44 45.019 272.337C45.019 272.23 45.019 272.118 45.019 272.001V268.011H43.206V266.961H44.368C44.5267 266.961 44.6504 266.956 44.739 266.947C44.8277 266.933 44.8907 266.903 44.928 266.856C44.97 266.805 44.9957 266.728 45.005 266.625C45.0144 266.518 45.019 266.371 45.019 266.184V264.497H46.216V266.961H48.54V268.011H46.216V271.616C46.216 271.719 46.216 271.819 46.216 271.917C46.216 272.015 46.216 272.106 46.216 272.19C46.216 272.587 46.2627 272.897 46.356 273.121C46.454 273.345 46.671 273.457 47.007 273.457C47.1424 273.457 47.2707 273.445 47.392 273.422C47.5134 273.399 47.6044 273.375 47.665 273.352V274.388C47.5857 274.416 47.4737 274.442 47.329 274.465C47.189 274.493 47.0304 274.507 46.853 274.507ZM52.4163 274.535C51.8516 274.535 51.357 274.446 50.9323 274.269C50.5123 274.092 50.1856 273.837 49.9523 273.506C49.719 273.17 49.6023 272.769 49.6023 272.302C49.6023 271.817 49.7283 271.413 49.9803 271.091C50.2323 270.764 50.587 270.51 51.0443 270.328C51.5016 270.146 52.0336 270.025 52.6403 269.964C53.555 269.871 54.206 269.78 54.5933 269.691C54.9806 269.598 55.1743 269.448 55.1743 269.243C55.1743 269.238 55.1743 269.236 55.1743 269.236C55.1743 269.231 55.1743 269.227 55.1743 269.222C55.1743 268.793 54.9993 268.473 54.6493 268.263C54.2993 268.048 53.793 267.941 53.1303 267.941C52.4396 267.941 51.903 268.062 51.5203 268.305C51.1376 268.543 50.9463 268.93 50.9463 269.467H49.7703C49.7703 268.912 49.9126 268.44 50.1973 268.053C50.482 267.661 50.8763 267.362 51.3803 267.157C51.889 266.952 52.4746 266.849 53.1373 266.849C53.744 266.849 54.29 266.942 54.7753 267.129C55.2653 267.311 55.6526 267.584 55.9373 267.948C56.2266 268.307 56.3713 268.753 56.3713 269.285C56.3713 269.383 56.3713 269.481 56.3713 269.579C56.3713 269.672 56.3713 269.768 56.3713 269.866V272.995C56.3713 273.158 56.3783 273.317 56.3923 273.471C56.4063 273.625 56.4296 273.76 56.4623 273.877C56.5043 274.017 56.551 274.131 56.6023 274.22C56.6536 274.304 56.6956 274.362 56.7283 274.395H55.5313C55.508 274.372 55.473 274.318 55.4263 274.234C55.3796 274.145 55.3353 274.043 55.2933 273.926C55.2606 273.833 55.235 273.716 55.2163 273.576C55.1976 273.431 55.1883 273.282 55.1883 273.128L55.3843 273.261C55.2396 273.513 55.0273 273.735 54.7473 273.926C54.472 274.117 54.1383 274.267 53.7463 274.374C53.3543 274.481 52.911 274.535 52.4163 274.535ZM52.6053 273.464C53.086 273.464 53.52 273.392 53.9073 273.247C54.2946 273.098 54.6026 272.878 54.8313 272.589C55.06 272.3 55.1743 271.94 55.1743 271.511V270.034L55.4403 270.482C55.1416 270.599 54.7683 270.694 54.3203 270.769C53.877 270.839 53.4126 270.897 52.9273 270.944C52.2226 271.009 51.6906 271.133 51.3313 271.315C50.9766 271.497 50.7993 271.803 50.7993 272.232C50.7993 272.638 50.9463 272.946 51.2403 273.156C51.5343 273.361 51.9893 273.464 52.6053 273.464ZM63.6705 274.395V270.832C63.6705 270.617 63.6705 270.442 63.6705 270.307C63.6705 270.167 63.6705 270.034 63.6705 269.908C63.6705 269.521 63.6052 269.182 63.4745 268.893C63.3439 268.604 63.1385 268.38 62.8585 268.221C62.5785 268.062 62.2122 267.983 61.7595 267.983C61.3629 267.983 60.9942 268.086 60.6535 268.291C60.3175 268.492 60.0469 268.765 59.8415 269.11C59.6409 269.451 59.5405 269.833 59.5405 270.258L58.8615 269.999C58.8615 269.416 59.0039 268.886 59.2885 268.41C59.5779 267.934 59.9605 267.556 60.4365 267.276C60.9172 266.991 61.4399 266.849 62.0045 266.849C62.5785 266.849 63.0802 266.959 63.5095 267.178C63.9389 267.397 64.2702 267.712 64.5035 268.123C64.7415 268.529 64.8605 269.019 64.8605 269.593C64.8605 269.798 64.8605 270.022 64.8605 270.265C64.8605 270.508 64.8605 270.734 64.8605 270.944V274.395H63.6705ZM58.3505 274.395V266.961H59.5405V274.395H58.3505ZM67.3215 271.154V270.09H73.0685L72.8585 270.44C72.8585 270.412 72.8585 270.386 72.8585 270.363C72.8585 270.335 72.8585 270.309 72.8585 270.286C72.8585 269.857 72.7675 269.465 72.5855 269.11C72.4081 268.751 72.1421 268.464 71.7875 268.249C71.4328 268.034 70.9941 267.927 70.4715 267.927C69.9441 267.927 69.4798 268.039 69.0785 268.263C68.6771 268.487 68.3645 268.804 68.1405 269.215C67.9165 269.621 67.8045 270.106 67.8045 270.671C67.8045 271.245 67.9118 271.74 68.1265 272.155C68.3458 272.57 68.6561 272.89 69.0575 273.114C69.4588 273.338 69.9348 273.45 70.4855 273.45C70.8775 273.45 71.2181 273.41 71.5075 273.331C71.7968 273.247 72.0348 273.137 72.2215 273.002C72.4128 272.862 72.5575 272.71 72.6555 272.547C72.7535 272.384 72.8118 272.22 72.8305 272.057H74.0205C73.9971 272.356 73.9038 272.652 73.7405 272.946C73.5771 273.24 73.3461 273.508 73.0475 273.751C72.7488 273.989 72.3825 274.18 71.9485 274.325C71.5145 274.47 71.0151 274.542 70.4505 274.542C69.7038 274.542 69.0458 274.379 68.4765 274.052C67.9071 273.725 67.4591 273.273 67.1325 272.694C66.8105 272.115 66.6495 271.45 66.6495 270.699C66.6495 269.938 66.8128 269.271 67.1395 268.697C67.4661 268.118 67.9165 267.666 68.4905 267.339C69.0645 267.012 69.7201 266.849 70.4575 266.849C71.2088 266.849 71.8598 267.012 72.4105 267.339C72.9611 267.666 73.3858 268.114 73.6845 268.683C73.9831 269.248 74.1325 269.892 74.1325 270.615C74.1325 270.69 74.1301 270.788 74.1255 270.909C74.1208 271.03 74.1138 271.112 74.1045 271.154H67.3215Z" fill="#494B53"/>
<path d="M366.866 273.9L364.059 263.519H365.368L367.776 272.962H367.692L370.072 263.519H371.388L368.609 273.9H366.866ZM373.076 273.844V266.41H374.252V273.844H373.076ZM373.671 264.702C373.451 264.702 373.26 264.641 373.097 264.52C372.938 264.394 372.859 264.223 372.859 264.009C372.859 263.799 372.938 263.633 373.097 263.512C373.26 263.386 373.451 263.323 373.671 263.323C373.89 263.323 374.079 263.386 374.238 263.512C374.396 263.633 374.476 263.799 374.476 264.009C374.476 264.223 374.396 264.394 374.238 264.52C374.079 264.641 373.89 264.702 373.671 264.702ZM379.307 273.984C378.859 273.984 378.443 273.937 378.061 273.844C377.683 273.746 377.351 273.606 377.067 273.424C376.787 273.237 376.567 273.008 376.409 272.738C376.255 272.467 376.178 272.157 376.178 271.807C376.178 271.769 376.178 271.732 376.178 271.695C376.178 271.653 376.178 271.618 376.178 271.59H377.375C377.375 271.618 377.375 271.641 377.375 271.66C377.375 271.678 377.375 271.706 377.375 271.744C377.375 272.122 377.55 272.411 377.9 272.612C378.25 272.808 378.728 272.906 379.335 272.906C379.708 272.906 380.042 272.868 380.336 272.794C380.63 272.719 380.861 272.605 381.029 272.451C381.201 272.297 381.288 272.103 381.288 271.87C381.288 271.482 381.106 271.207 380.742 271.044C380.382 270.876 379.843 270.731 379.125 270.61C378.747 270.544 378.387 270.46 378.047 270.358C377.706 270.25 377.403 270.113 377.137 269.945C376.875 269.777 376.668 269.569 376.514 269.322C376.364 269.07 376.29 268.769 376.29 268.419C376.29 267.966 376.423 267.583 376.689 267.271C376.959 266.953 377.323 266.713 377.781 266.55C378.238 266.382 378.747 266.298 379.307 266.298C379.848 266.298 380.347 266.384 380.805 266.557C381.262 266.729 381.628 266.981 381.904 267.313C382.184 267.639 382.324 268.043 382.324 268.524C382.324 268.542 382.324 268.566 382.324 268.594C382.324 268.617 382.324 268.64 382.324 268.664H381.134C381.134 268.64 381.134 268.622 381.134 268.608C381.134 268.594 381.134 268.577 381.134 268.559C381.134 268.288 381.047 268.066 380.875 267.894C380.702 267.716 380.478 267.586 380.203 267.502C379.927 267.413 379.633 267.369 379.321 267.369C379.027 267.369 378.737 267.401 378.453 267.467C378.168 267.527 377.932 267.63 377.746 267.775C377.559 267.919 377.466 268.118 377.466 268.37C377.466 268.622 377.552 268.825 377.725 268.979C377.902 269.128 378.149 269.252 378.467 269.35C378.789 269.443 379.167 269.529 379.601 269.609C379.988 269.679 380.354 269.767 380.7 269.875C381.045 269.977 381.348 270.11 381.61 270.274C381.876 270.437 382.083 270.645 382.233 270.897C382.387 271.144 382.464 271.447 382.464 271.807C382.464 272.171 382.38 272.488 382.212 272.759C382.048 273.029 381.82 273.256 381.526 273.438C381.236 273.62 380.9 273.755 380.518 273.844C380.14 273.937 379.736 273.984 379.307 273.984ZM387.84 273.984C387.131 273.984 386.487 273.83 385.908 273.522C385.33 273.209 384.87 272.763 384.529 272.185C384.193 271.606 384.025 270.918 384.025 270.12C384.025 269.322 384.193 268.638 384.529 268.069C384.87 267.495 385.33 267.056 385.908 266.753C386.487 266.449 387.131 266.298 387.84 266.298C388.382 266.298 388.865 266.382 389.289 266.55C389.714 266.713 390.073 266.932 390.367 267.208C390.661 267.483 390.885 267.786 391.039 268.118C391.198 268.444 391.277 268.771 391.277 269.098C391.277 269.102 391.277 269.109 391.277 269.119C391.277 269.128 391.277 269.137 391.277 269.147H390.094C390.094 269.123 390.092 269.098 390.087 269.07C390.083 269.037 390.078 269.004 390.073 268.972C390.036 268.659 389.917 268.386 389.716 268.153C389.516 267.915 389.254 267.728 388.932 267.593C388.61 267.457 388.244 267.39 387.833 267.39C387.371 267.39 386.942 267.49 386.545 267.691C386.153 267.887 385.836 268.188 385.593 268.594C385.355 268.995 385.236 269.504 385.236 270.12C385.236 270.731 385.355 271.242 385.593 271.653C385.831 272.063 386.146 272.374 386.538 272.584C386.935 272.789 387.367 272.892 387.833 272.892C388.337 272.892 388.753 272.812 389.079 272.654C389.406 272.495 389.651 272.285 389.814 272.024C389.982 271.758 390.076 271.473 390.094 271.17H391.277C391.277 271.506 391.203 271.842 391.053 272.178C390.904 272.509 390.685 272.812 390.395 273.088C390.106 273.358 389.747 273.575 389.317 273.739C388.893 273.902 388.4 273.984 387.84 273.984ZM396.652 273.977C395.905 273.977 395.245 273.811 394.671 273.48C394.101 273.144 393.653 272.686 393.327 272.108C393.005 271.524 392.844 270.862 392.844 270.12C392.844 269.378 393.005 268.72 393.327 268.146C393.653 267.572 394.101 267.121 394.671 266.795C395.245 266.468 395.905 266.305 396.652 266.305C397.398 266.305 398.056 266.468 398.626 266.795C399.2 267.121 399.648 267.572 399.97 268.146C400.296 268.72 400.46 269.378 400.46 270.12C400.46 270.862 400.296 271.524 399.97 272.108C399.648 272.686 399.2 273.144 398.626 273.48C398.056 273.811 397.398 273.977 396.652 273.977ZM396.652 272.885C397.165 272.885 397.618 272.77 398.01 272.542C398.402 272.313 398.707 271.991 398.927 271.576C399.151 271.16 399.263 270.675 399.263 270.12C399.263 269.564 399.151 269.084 398.927 268.678C398.707 268.267 398.402 267.952 398.01 267.733C397.618 267.509 397.165 267.397 396.652 267.397C396.143 267.397 395.69 267.509 395.294 267.733C394.902 267.952 394.594 268.267 394.37 268.678C394.15 269.084 394.041 269.564 394.041 270.12C394.041 270.675 394.15 271.16 394.37 271.576C394.594 271.991 394.902 272.313 395.294 272.542C395.69 272.77 396.143 272.885 396.652 272.885ZM405.16 273.984C404.712 273.984 404.297 273.937 403.914 273.844C403.536 273.746 403.205 273.606 402.92 273.424C402.64 273.237 402.421 273.008 402.262 272.738C402.108 272.467 402.031 272.157 402.031 271.807C402.031 271.769 402.031 271.732 402.031 271.695C402.031 271.653 402.031 271.618 402.031 271.59H403.228C403.228 271.618 403.228 271.641 403.228 271.66C403.228 271.678 403.228 271.706 403.228 271.744C403.228 272.122 403.403 272.411 403.753 272.612C404.103 272.808 404.581 272.906 405.188 272.906C405.561 272.906 405.895 272.868 406.189 272.794C406.483 272.719 406.714 272.605 406.882 272.451C407.055 272.297 407.141 272.103 407.141 271.87C407.141 271.482 406.959 271.207 406.595 271.044C406.236 270.876 405.697 270.731 404.978 270.61C404.6 270.544 404.241 270.46 403.9 270.358C403.559 270.25 403.256 270.113 402.99 269.945C402.729 269.777 402.521 269.569 402.367 269.322C402.218 269.07 402.143 268.769 402.143 268.419C402.143 267.966 402.276 267.583 402.542 267.271C402.813 266.953 403.177 266.713 403.634 266.55C404.091 266.382 404.6 266.298 405.16 266.298C405.701 266.298 406.201 266.384 406.658 266.557C407.115 266.729 407.482 266.981 407.757 267.313C408.037 267.639 408.177 268.043 408.177 268.524C408.177 268.542 408.177 268.566 408.177 268.594C408.177 268.617 408.177 268.64 408.177 268.664H406.987C406.987 268.64 406.987 268.622 406.987 268.608C406.987 268.594 406.987 268.577 406.987 268.559C406.987 268.288 406.901 268.066 406.728 267.894C406.555 267.716 406.331 267.586 406.056 267.502C405.781 267.413 405.487 267.369 405.174 267.369C404.88 267.369 404.591 267.401 404.306 267.467C404.021 267.527 403.786 267.63 403.599 267.775C403.412 267.919 403.319 268.118 403.319 268.37C403.319 268.622 403.405 268.825 403.578 268.979C403.755 269.128 404.003 269.252 404.32 269.35C404.642 269.443 405.02 269.529 405.454 269.609C405.841 269.679 406.208 269.767 406.553 269.875C406.898 269.977 407.202 270.11 407.463 270.274C407.729 270.437 407.937 270.645 408.086 270.897C408.24 271.144 408.317 271.447 408.317 271.807C408.317 272.171 408.233 272.488 408.065 272.759C407.902 273.029 407.673 273.256 407.379 273.438C407.09 273.62 406.754 273.755 406.371 273.844C405.993 273.937 405.589 273.984 405.16 273.984ZM410.551 270.603V269.539H416.298L416.088 269.889C416.088 269.861 416.088 269.835 416.088 269.812C416.088 269.784 416.088 269.758 416.088 269.735C416.088 269.305 415.997 268.913 415.815 268.559C415.637 268.199 415.371 267.912 415.017 267.698C414.662 267.483 414.223 267.376 413.701 267.376C413.173 267.376 412.709 267.488 412.308 267.712C411.906 267.936 411.594 268.253 411.37 268.664C411.146 269.07 411.034 269.555 411.034 270.12C411.034 270.694 411.141 271.188 411.356 271.604C411.575 272.019 411.885 272.339 412.287 272.563C412.688 272.787 413.164 272.899 413.715 272.899C414.107 272.899 414.447 272.859 414.737 272.78C415.026 272.696 415.264 272.586 415.451 272.451C415.642 272.311 415.787 272.159 415.885 271.996C415.983 271.832 416.041 271.669 416.06 271.506H417.25C417.226 271.804 417.133 272.101 416.97 272.395C416.806 272.689 416.575 272.957 416.277 273.2C415.978 273.438 415.612 273.629 415.178 273.774C414.744 273.918 414.244 273.991 413.68 273.991C412.933 273.991 412.275 273.827 411.706 273.501C411.136 273.174 410.688 272.721 410.362 272.143C410.04 271.564 409.879 270.899 409.879 270.148C409.879 269.387 410.042 268.72 410.369 268.146C410.695 267.567 411.146 267.114 411.72 266.788C412.294 266.461 412.949 266.298 413.687 266.298C414.438 266.298 415.089 266.461 415.64 266.788C416.19 267.114 416.615 267.562 416.914 268.132C417.212 268.696 417.362 269.34 417.362 270.064C417.362 270.138 417.359 270.236 417.355 270.358C417.35 270.479 417.343 270.561 417.334 270.603H410.551Z" fill="#494B53"/>
<path d="M365.697 386.618H364.5V376.293H367.398C368.196 376.293 368.858 376.442 369.386 376.741C369.913 377.035 370.307 377.432 370.569 377.931C370.83 378.43 370.961 378.986 370.961 379.597C370.961 380.208 370.825 380.773 370.555 381.291C370.289 381.809 369.89 382.227 369.358 382.544C368.83 382.857 368.177 383.013 367.398 383.013H365.697V386.618ZM365.697 382.572L365.158 381.963H367.251C367.811 381.963 368.275 381.865 368.644 381.669C369.017 381.468 369.295 381.191 369.477 380.836C369.663 380.481 369.757 380.068 369.757 379.597C369.757 379.121 369.668 378.715 369.491 378.379C369.313 378.043 369.04 377.786 368.672 377.609C368.303 377.432 367.829 377.343 367.251 377.343H365.158L365.697 376.664V382.572ZM375.788 386.751C375.042 386.751 374.381 386.585 373.807 386.254C373.238 385.918 372.79 385.461 372.463 384.882C372.141 384.299 371.98 383.636 371.98 382.894C371.98 382.152 372.141 381.494 372.463 380.92C372.79 380.346 373.238 379.896 373.807 379.569C374.381 379.242 375.042 379.079 375.788 379.079C376.535 379.079 377.193 379.242 377.762 379.569C378.336 379.896 378.784 380.346 379.106 380.92C379.433 381.494 379.596 382.152 379.596 382.894C379.596 383.636 379.433 384.299 379.106 384.882C378.784 385.461 378.336 385.918 377.762 386.254C377.193 386.585 376.535 386.751 375.788 386.751ZM375.788 385.659C376.302 385.659 376.754 385.545 377.146 385.316C377.538 385.087 377.844 384.765 378.063 384.35C378.287 383.935 378.399 383.449 378.399 382.894C378.399 382.339 378.287 381.858 378.063 381.452C377.844 381.041 377.538 380.726 377.146 380.507C376.754 380.283 376.302 380.171 375.788 380.171C375.28 380.171 374.827 380.283 374.43 380.507C374.038 380.726 373.73 381.041 373.506 381.452C373.287 381.858 373.177 382.339 373.177 382.894C373.177 383.449 373.287 383.935 373.506 384.35C373.73 384.765 374.038 385.087 374.43 385.316C374.827 385.545 375.28 385.659 375.788 385.659ZM382.736 375.677V386.618H381.56V375.677H382.736ZM385.138 389.754C384.951 389.754 384.781 389.742 384.627 389.719C384.473 389.7 384.377 389.682 384.34 389.663V388.627C384.4 388.655 384.501 388.678 384.641 388.697C384.781 388.716 384.921 388.725 385.061 388.725C385.359 388.725 385.611 388.662 385.817 388.536C386.022 388.415 386.195 388.247 386.335 388.032C386.475 387.822 386.589 387.584 386.678 387.318L386.902 386.66L384.34 379.184H385.586L387.644 385.589H387.476L389.492 379.184H390.717L387.994 387.255C387.84 387.708 387.653 388.123 387.434 388.501C387.219 388.879 386.93 389.182 386.566 389.411C386.206 389.64 385.73 389.754 385.138 389.754ZM394.374 386.758C393.809 386.758 393.315 386.669 392.89 386.492C392.47 386.315 392.143 386.06 391.91 385.729C391.677 385.393 391.56 384.992 391.56 384.525C391.56 384.04 391.686 383.636 391.938 383.314C392.19 382.987 392.545 382.733 393.002 382.551C393.459 382.369 393.991 382.248 394.598 382.187C395.513 382.094 396.164 382.003 396.551 381.914C396.938 381.821 397.132 381.671 397.132 381.466C397.132 381.461 397.132 381.459 397.132 381.459C397.132 381.454 397.132 381.45 397.132 381.445C397.132 381.016 396.957 380.696 396.607 380.486C396.257 380.271 395.751 380.164 395.088 380.164C394.397 380.164 393.861 380.285 393.478 380.528C393.095 380.766 392.904 381.153 392.904 381.69H391.728C391.728 381.135 391.87 380.663 392.155 380.276C392.44 379.884 392.834 379.585 393.338 379.38C393.847 379.175 394.432 379.072 395.095 379.072C395.702 379.072 396.248 379.165 396.733 379.352C397.223 379.534 397.61 379.807 397.895 380.171C398.184 380.53 398.329 380.976 398.329 381.508C398.329 381.606 398.329 381.704 398.329 381.802C398.329 381.895 398.329 381.991 398.329 382.089V385.218C398.329 385.381 398.336 385.54 398.35 385.694C398.364 385.848 398.387 385.983 398.42 386.1C398.462 386.24 398.509 386.354 398.56 386.443C398.611 386.527 398.653 386.585 398.686 386.618H397.489C397.466 386.595 397.431 386.541 397.384 386.457C397.337 386.368 397.293 386.266 397.251 386.149C397.218 386.056 397.193 385.939 397.174 385.799C397.155 385.654 397.146 385.505 397.146 385.351L397.342 385.484C397.197 385.736 396.985 385.958 396.705 386.149C396.43 386.34 396.096 386.49 395.704 386.597C395.312 386.704 394.869 386.758 394.374 386.758ZM394.563 385.687C395.044 385.687 395.478 385.615 395.865 385.47C396.252 385.321 396.56 385.101 396.789 384.812C397.018 384.523 397.132 384.163 397.132 383.734V382.257L397.398 382.705C397.099 382.822 396.726 382.917 396.278 382.992C395.835 383.062 395.37 383.12 394.885 383.167C394.18 383.232 393.648 383.356 393.289 383.538C392.934 383.72 392.757 384.026 392.757 384.455C392.757 384.861 392.904 385.169 393.198 385.379C393.492 385.584 393.947 385.687 394.563 385.687ZM404.879 386.618V383.335C404.879 383.046 404.879 382.796 404.879 382.586C404.879 382.371 404.879 382.192 404.879 382.047C404.879 381.865 404.865 381.669 404.837 381.459C404.814 381.244 404.756 381.044 404.662 380.857C404.569 380.666 404.422 380.509 404.221 380.388C404.025 380.267 403.752 380.206 403.402 380.206C403.048 380.206 402.749 380.276 402.506 380.416C402.264 380.551 402.068 380.731 401.918 380.955C401.769 381.179 401.662 381.426 401.596 381.697C401.531 381.963 401.498 382.227 401.498 382.488L400.826 382.215C400.826 381.655 400.943 381.137 401.176 380.661C401.41 380.185 401.736 379.802 402.156 379.513C402.581 379.219 403.078 379.072 403.647 379.072C404.212 379.072 404.672 379.186 405.026 379.415C405.381 379.644 405.642 379.959 405.81 380.36C405.978 380.761 406.062 381.223 406.062 381.746C406.062 381.933 406.062 382.173 406.062 382.467C406.062 382.756 406.062 383.088 406.062 383.461V386.618H404.879ZM400.308 386.618V379.184H401.498V386.618H400.308ZM409.436 386.618V383.335C409.436 383.018 409.436 382.756 409.436 382.551C409.436 382.341 409.436 382.164 409.436 382.019C409.436 381.837 409.425 381.641 409.401 381.431C409.378 381.221 409.32 381.025 409.226 380.843C409.133 380.656 408.984 380.505 408.778 380.388C408.578 380.267 408.295 380.206 407.931 380.206C407.572 380.206 407.271 380.274 407.028 380.409C406.79 380.544 406.599 380.722 406.454 380.941C406.314 381.16 406.214 381.398 406.153 381.655C406.093 381.907 406.062 382.15 406.062 382.383L405.39 382.124C405.39 381.592 405.502 381.095 405.726 380.633C405.955 380.166 406.277 379.791 406.692 379.506C407.112 379.217 407.609 379.072 408.183 379.072C408.72 379.072 409.168 379.177 409.527 379.387C409.891 379.597 410.164 379.893 410.346 380.276C410.533 380.654 410.626 381.104 410.626 381.627C410.626 381.823 410.626 382.066 410.626 382.355C410.626 382.644 410.626 382.971 410.626 383.335V386.618H409.436ZM412.765 386.618V379.184H413.941V386.618H412.765ZM413.36 377.476C413.141 377.476 412.949 377.415 412.786 377.294C412.627 377.168 412.548 376.998 412.548 376.783C412.548 376.573 412.627 376.407 412.786 376.286C412.949 376.16 413.141 376.097 413.36 376.097C413.579 376.097 413.768 376.16 413.927 376.286C414.086 376.407 414.165 376.573 414.165 376.783C414.165 376.998 414.086 377.168 413.927 377.294C413.768 377.415 413.579 377.476 413.36 377.476ZM419.22 386.758C418.609 386.758 418.049 386.611 417.54 386.317C417.031 386.018 416.625 385.582 416.322 385.008C416.019 384.429 415.867 383.725 415.867 382.894C415.867 382.077 416.021 381.384 416.329 380.815C416.637 380.246 417.045 379.814 417.554 379.52C418.063 379.221 418.618 379.072 419.22 379.072C419.794 379.072 420.331 379.21 420.83 379.485C421.334 379.756 421.74 380.134 422.048 380.619C422.356 381.104 422.51 381.667 422.51 382.306C422.51 382.32 422.51 382.334 422.51 382.348C422.51 382.362 422.51 382.376 422.51 382.39L421.656 382.425C421.656 382.411 421.656 382.397 421.656 382.383C421.656 382.364 421.656 382.348 421.656 382.334C421.656 381.928 421.549 381.562 421.334 381.235C421.124 380.908 420.846 380.649 420.501 380.458C420.156 380.262 419.785 380.164 419.388 380.164C418.725 380.164 418.177 380.388 417.743 380.836C417.309 381.279 417.092 381.965 417.092 382.894C417.092 383.818 417.309 384.506 417.743 384.959C418.182 385.407 418.73 385.631 419.388 385.631C419.803 385.631 420.181 385.531 420.522 385.33C420.867 385.129 421.143 384.861 421.348 384.525C421.553 384.184 421.656 383.804 421.656 383.384L422.51 383.405C422.51 384.04 422.363 384.611 422.069 385.12C421.775 385.624 421.378 386.023 420.879 386.317C420.384 386.611 419.831 386.758 419.22 386.758ZM421.656 386.618V375.677H422.853V386.618H421.656ZM425.33 383.377V382.313H431.077L430.867 382.663C430.867 382.635 430.867 382.609 430.867 382.586C430.867 382.558 430.867 382.532 430.867 382.509C430.867 382.08 430.776 381.688 430.594 381.333C430.417 380.974 430.151 380.687 429.796 380.472C429.441 380.257 429.003 380.15 428.48 380.15C427.953 380.15 427.488 380.262 427.087 380.486C426.686 380.71 426.373 381.027 426.149 381.438C425.925 381.844 425.813 382.329 425.813 382.894C425.813 383.468 425.92 383.963 426.135 384.378C426.354 384.793 426.665 385.113 427.066 385.337C427.467 385.561 427.943 385.673 428.494 385.673C428.886 385.673 429.227 385.633 429.516 385.554C429.805 385.47 430.043 385.36 430.23 385.225C430.421 385.085 430.566 384.933 430.664 384.77C430.762 384.607 430.82 384.443 430.839 384.28H432.029C432.006 384.579 431.912 384.875 431.749 385.169C431.586 385.463 431.355 385.731 431.056 385.974C430.757 386.212 430.391 386.403 429.957 386.548C429.523 386.693 429.024 386.765 428.459 386.765C427.712 386.765 427.054 386.602 426.485 386.275C425.916 385.948 425.468 385.496 425.141 384.917C424.819 384.338 424.658 383.673 424.658 382.922C424.658 382.161 424.821 381.494 425.148 380.92C425.475 380.341 425.925 379.889 426.499 379.562C427.073 379.235 427.729 379.072 428.466 379.072C429.217 379.072 429.868 379.235 430.419 379.562C430.97 379.889 431.394 380.337 431.693 380.906C431.992 381.471 432.141 382.115 432.141 382.838C432.141 382.913 432.139 383.011 432.134 383.132C432.129 383.253 432.122 383.335 432.113 383.377H425.33Z" fill="#494B53"/>
<path d="M372.081 442.027C372.081 442.442 372.004 442.869 371.85 443.308C371.696 443.742 371.462 444.146 371.15 444.519C370.842 444.888 370.452 445.186 369.981 445.415C369.509 445.644 368.956 445.758 368.322 445.758C367.449 445.758 366.707 445.532 366.096 445.079C365.484 444.622 365.018 443.994 364.696 443.196C364.378 442.398 364.22 441.486 364.22 440.459C364.22 439.428 364.378 438.515 364.696 437.722C365.018 436.924 365.484 436.299 366.096 435.846C366.707 435.393 367.449 435.167 368.322 435.167C369.05 435.167 369.67 435.316 370.184 435.615C370.697 435.914 371.105 436.294 371.409 436.756C371.712 437.218 371.91 437.694 372.004 438.184C372.055 438.431 372.081 438.665 372.081 438.884H370.884C370.884 438.758 370.872 438.613 370.849 438.45C370.793 438.058 370.657 437.696 370.443 437.365C370.233 437.029 369.95 436.761 369.596 436.56C369.241 436.355 368.816 436.252 368.322 436.252C367.743 436.252 367.237 436.411 366.803 436.728C366.373 437.045 366.037 437.517 365.795 438.142C365.557 438.767 365.438 439.54 365.438 440.459C365.438 441.378 365.557 442.153 365.795 442.783C366.037 443.408 366.373 443.882 366.803 444.204C367.237 444.521 367.743 444.68 368.322 444.68C368.737 444.68 369.103 444.605 369.421 444.456C369.738 444.302 370.004 444.099 370.219 443.847C370.438 443.59 370.604 443.306 370.716 442.993C370.828 442.676 370.884 442.354 370.884 442.027H372.081ZM377.374 445.751C376.628 445.751 375.967 445.585 375.393 445.254C374.824 444.918 374.376 444.461 374.049 443.882C373.727 443.299 373.566 442.636 373.566 441.894C373.566 441.152 373.727 440.494 374.049 439.92C374.376 439.346 374.824 438.896 375.393 438.569C375.967 438.242 376.628 438.079 377.374 438.079C378.121 438.079 378.779 438.242 379.348 438.569C379.922 438.896 380.37 439.346 380.692 439.92C381.019 440.494 381.182 441.152 381.182 441.894C381.182 442.636 381.019 443.299 380.692 443.882C380.37 444.461 379.922 444.918 379.348 445.254C378.779 445.585 378.121 445.751 377.374 445.751ZM377.374 444.659C377.888 444.659 378.34 444.545 378.732 444.316C379.124 444.087 379.43 443.765 379.649 443.35C379.873 442.935 379.985 442.449 379.985 441.894C379.985 441.339 379.873 440.858 379.649 440.452C379.43 440.041 379.124 439.726 378.732 439.507C378.34 439.283 377.888 439.171 377.374 439.171C376.866 439.171 376.413 439.283 376.016 439.507C375.624 439.726 375.316 440.041 375.092 440.452C374.873 440.858 374.763 441.339 374.763 441.894C374.763 442.449 374.873 442.935 375.092 443.35C375.316 443.765 375.624 444.087 376.016 444.316C376.413 444.545 376.866 444.659 377.374 444.659ZM385.83 445.73C385.602 445.73 385.378 445.704 385.158 445.653C384.939 445.602 384.741 445.511 384.563 445.38C384.391 445.245 384.253 445.056 384.15 444.813C384.048 444.566 383.996 444.248 383.996 443.861C383.996 443.763 383.996 443.663 383.996 443.56C383.996 443.453 383.996 443.341 383.996 443.224V439.234H382.183V438.184H383.345C383.504 438.184 383.628 438.179 383.716 438.17C383.805 438.156 383.868 438.126 383.905 438.079C383.947 438.028 383.973 437.951 383.982 437.848C383.992 437.741 383.996 437.594 383.996 437.407V435.72H385.193V438.184H387.517V439.234H385.193V442.839C385.193 442.942 385.193 443.042 385.193 443.14C385.193 443.238 385.193 443.329 385.193 443.413C385.193 443.81 385.24 444.12 385.333 444.344C385.431 444.568 385.648 444.68 385.984 444.68C386.12 444.68 386.248 444.668 386.369 444.645C386.491 444.622 386.582 444.598 386.642 444.575V445.611C386.563 445.639 386.451 445.665 386.306 445.688C386.166 445.716 386.008 445.73 385.83 445.73ZM391.367 445.73C391.139 445.73 390.915 445.704 390.695 445.653C390.476 445.602 390.278 445.511 390.1 445.38C389.928 445.245 389.79 445.056 389.687 444.813C389.585 444.566 389.533 444.248 389.533 443.861C389.533 443.763 389.533 443.663 389.533 443.56C389.533 443.453 389.533 443.341 389.533 443.224V439.234H387.72V438.184H388.882C389.041 438.184 389.165 438.179 389.253 438.17C389.342 438.156 389.405 438.126 389.442 438.079C389.484 438.028 389.51 437.951 389.519 437.848C389.529 437.741 389.533 437.594 389.533 437.407V435.72H390.73V438.184H393.054V439.234H390.73V442.839C390.73 442.942 390.73 443.042 390.73 443.14C390.73 443.238 390.73 443.329 390.73 443.413C390.73 443.81 390.777 444.12 390.87 444.344C390.968 444.568 391.185 444.68 391.521 444.68C391.657 444.68 391.785 444.668 391.906 444.645C392.028 444.622 392.119 444.598 392.179 444.575V445.611C392.1 445.639 391.988 445.665 391.843 445.688C391.703 445.716 391.545 445.73 391.367 445.73ZM397.855 445.751C397.108 445.751 396.448 445.585 395.874 445.254C395.304 444.918 394.856 444.461 394.53 443.882C394.208 443.299 394.047 442.636 394.047 441.894C394.047 441.152 394.208 440.494 394.53 439.92C394.856 439.346 395.304 438.896 395.874 438.569C396.448 438.242 397.108 438.079 397.855 438.079C398.601 438.079 399.259 438.242 399.829 438.569C400.403 438.896 400.851 439.346 401.173 439.92C401.499 440.494 401.663 441.152 401.663 441.894C401.663 442.636 401.499 443.299 401.173 443.882C400.851 444.461 400.403 444.918 399.829 445.254C399.259 445.585 398.601 445.751 397.855 445.751ZM397.855 444.659C398.368 444.659 398.821 444.545 399.213 444.316C399.605 444.087 399.91 443.765 400.13 443.35C400.354 442.935 400.466 442.449 400.466 441.894C400.466 441.339 400.354 440.858 400.13 440.452C399.91 440.041 399.605 439.726 399.213 439.507C398.821 439.283 398.368 439.171 397.855 439.171C397.346 439.171 396.893 439.283 396.497 439.507C396.105 439.726 395.797 440.041 395.573 440.452C395.353 440.858 395.244 441.339 395.244 441.894C395.244 442.449 395.353 442.935 395.573 443.35C395.797 443.765 396.105 444.087 396.497 444.316C396.893 444.545 397.346 444.659 397.855 444.659ZM408.841 445.618V442.055C408.841 441.84 408.841 441.665 408.841 441.53C408.841 441.39 408.841 441.257 408.841 441.131C408.841 440.744 408.776 440.405 408.645 440.116C408.515 439.827 408.309 439.603 408.029 439.444C407.749 439.285 407.383 439.206 406.93 439.206C406.534 439.206 406.165 439.309 405.824 439.514C405.488 439.715 405.218 439.988 405.012 440.333C404.812 440.674 404.711 441.056 404.711 441.481L404.032 441.222C404.032 440.639 404.175 440.109 404.459 439.633C404.749 439.157 405.131 438.779 405.607 438.499C406.088 438.214 406.611 438.072 407.175 438.072C407.749 438.072 408.251 438.182 408.68 438.401C409.11 438.62 409.441 438.935 409.674 439.346C409.912 439.752 410.031 440.242 410.031 440.816C410.031 441.021 410.031 441.245 410.031 441.488C410.031 441.731 410.031 441.957 410.031 442.167V445.618H408.841ZM403.521 445.618V438.184H404.711V445.618H403.521Z" fill="#494B53"/>
<path d="M33.2193 25.7542V29.5142H30.4993V32.0542H25.7193C25.7726 31.4942 25.8126 30.6475 25.8393 29.5142H16.3393V25.4742C19.446 23.0875 22.2193 20.4409 24.6593 17.5342H30.4993V25.7542H33.2193ZM25.9393 21.4942C25.0193 22.4409 24.226 23.2342 23.5593 23.8742C22.8926 24.5009 22.1393 25.1275 21.2993 25.7542H25.8793L25.9393 21.4942ZM33.4096 17.5142H47.8896V20.0942C45.2763 24.0542 43.2563 28.0409 41.8296 32.0542H36.4296C37.883 28.4409 39.7963 24.8475 42.1696 21.2742C38.4763 21.2742 35.5563 21.3409 33.4096 21.4742V17.5142ZM61.5565 24.8942C62.4365 24.8942 63.1898 25.0542 63.8165 25.3742C64.4432 25.6809 64.9165 26.1075 65.2365 26.6542C65.5698 27.2009 65.7365 27.8075 65.7365 28.4742C65.7365 29.1542 65.5698 29.7675 65.2365 30.3142C64.9165 30.8609 64.4432 31.2942 63.8165 31.6142C63.1898 31.9209 62.4365 32.0742 61.5565 32.0742C60.6632 32.0742 59.8965 31.9209 59.2565 31.6142C58.6298 31.2942 58.1498 30.8609 57.8165 30.3142C57.4965 29.7675 57.3365 29.1542 57.3365 28.4742C57.3365 28.0742 57.3965 27.6942 57.5165 27.3342L53.9765 32.0742H49.3565L55.5765 23.7542C54.8298 24.3942 53.8298 24.7142 52.5765 24.7142C51.6832 24.7142 50.9165 24.5609 50.2765 24.2542C49.6498 23.9342 49.1698 23.5009 48.8365 22.9542C48.5165 22.4075 48.3565 21.7942 48.3565 21.1142C48.3565 20.4475 48.5165 19.8409 48.8365 19.2942C49.1698 18.7475 49.6498 18.3209 50.2765 18.0142C50.9165 17.6942 51.6832 17.5342 52.5765 17.5342C53.4565 17.5342 54.2098 17.6942 54.8365 18.0142C55.4632 18.3209 55.9365 18.7475 56.2565 19.2942C56.5898 19.8409 56.7565 20.4475 56.7565 21.1142C56.7565 21.6475 56.6565 22.1342 56.4565 22.5742L60.1165 17.6942H64.7165L58.7765 25.6542C59.4965 25.1475 60.4232 24.8942 61.5565 24.8942ZM52.5765 22.1942C52.8565 22.1942 53.1098 22.0809 53.3365 21.8542C53.5765 21.6275 53.6965 21.3742 53.6965 21.0942C53.6965 20.8142 53.5765 20.5742 53.3365 20.3742C53.1098 20.1742 52.8565 20.0742 52.5765 20.0742C52.2698 20.0742 51.9965 20.1742 51.7565 20.3742C51.5298 20.5742 51.4165 20.8142 51.4165 21.0942C51.4165 21.3875 51.5298 21.6475 51.7565 21.8742C51.9965 22.0875 52.2698 22.1942 52.5765 22.1942ZM61.5565 29.5542C61.8365 29.5542 62.0898 29.4409 62.3165 29.2142C62.5565 28.9875 62.6765 28.7342 62.6765 28.4542C62.6765 28.1742 62.5565 27.9342 62.3165 27.7342C62.0898 27.5342 61.8365 27.4342 61.5565 27.4342C61.2498 27.4342 60.9765 27.5342 60.7365 27.7342C60.5098 27.9342 60.3965 28.1742 60.3965 28.4542C60.3965 28.7475 60.5098 29.0075 60.7365 29.2342C60.9765 29.4475 61.2498 29.5542 61.5565 29.5542Z" fill="#494B53"/>
<path d="M27.4993 250.035C27.9793 249.942 28.4526 249.895 28.9193 249.895C29.7326 249.895 30.3926 250.035 30.8993 250.315C31.4193 250.582 31.7926 250.928 32.0193 251.355C32.246 251.768 32.3593 252.202 32.3593 252.655C32.3593 253.708 32.0126 254.608 31.3193 255.355C30.626 256.088 29.686 256.648 28.4993 257.035C27.3126 257.408 25.9926 257.595 24.5393 257.595C20.326 257.595 17.5993 256.128 16.3593 253.195L17.4793 252.915C18.306 252.715 19.006 252.528 19.5793 252.355C20.166 252.168 20.6793 251.962 21.1193 251.735C21.386 252.402 21.766 252.882 22.2593 253.175C22.766 253.455 23.4593 253.595 24.3393 253.595C25.2726 253.595 26.0326 253.488 26.6193 253.275C27.206 253.062 27.4993 252.742 27.4993 252.315C27.4993 252.088 27.386 251.915 27.1593 251.795C26.9326 251.675 26.5726 251.595 26.0793 251.555C25.586 251.502 24.8926 251.475 23.9993 251.475H22.4793V247.975H23.3993C24.4126 247.975 25.2393 247.935 25.8793 247.855C26.5193 247.762 26.8393 247.568 26.8393 247.275C26.8393 246.942 26.666 246.675 26.3193 246.475C25.986 246.262 25.4593 246.155 24.7393 246.155C23.806 246.155 23.046 246.348 22.4593 246.735C21.886 247.122 21.4393 247.682 21.1193 248.415C19.6926 247.842 18.1726 247.435 16.5593 247.195C17.1993 245.755 18.1793 244.642 19.4993 243.855C20.8326 243.068 22.546 242.675 24.6393 242.675C25.9993 242.675 27.2193 242.855 28.2993 243.215C29.3926 243.562 30.246 244.048 30.8593 244.675C31.486 245.302 31.7993 246.002 31.7993 246.775C31.7993 247.228 31.6926 247.635 31.4793 247.995C31.266 248.342 30.846 248.688 30.2193 249.035C29.5926 249.368 28.686 249.702 27.4993 250.035ZM41.7965 242.675C43.2898 242.675 44.6165 242.975 45.7765 243.575C46.9498 244.162 47.8565 244.982 48.4965 246.035C49.1498 247.088 49.4765 248.288 49.4765 249.635C49.4765 252.315 48.7298 254.315 47.2365 255.635C45.7565 256.942 43.7565 257.595 41.2365 257.595C38.1698 257.595 35.7498 256.822 33.9765 255.275C34.7765 254.422 35.5098 253.482 36.1765 252.455C36.6965 252.882 37.4365 253.215 38.3965 253.455C39.3565 253.682 40.2298 253.795 41.0165 253.795C42.1765 253.795 43.1498 253.508 43.9365 252.935C44.7232 252.348 45.2032 251.515 45.3765 250.435C45.3898 250.368 45.3965 250.275 45.3965 250.155C44.7565 251.088 43.9098 251.775 42.8565 252.215C41.8032 252.642 40.7298 252.855 39.6365 252.855C38.5698 252.855 37.6032 252.662 36.7365 252.275C35.8698 251.888 35.1898 251.362 34.6965 250.695C34.2032 250.015 33.9565 249.255 33.9565 248.415C33.9565 247.202 34.2965 246.162 34.9765 245.295C35.6698 244.428 36.6098 243.775 37.7965 243.335C38.9832 242.895 40.3165 242.675 41.7965 242.675ZM41.5965 249.715C42.1032 249.715 42.5698 249.642 42.9965 249.495C43.4365 249.335 43.7832 249.128 44.0365 248.875C44.3032 248.622 44.4365 248.348 44.4365 248.055C44.4365 247.602 44.1565 247.215 43.5965 246.895C43.0498 246.575 42.3832 246.415 41.5965 246.415C40.8098 246.415 40.1365 246.575 39.5765 246.895C39.0298 247.215 38.7565 247.602 38.7565 248.055C38.7565 248.522 39.0298 248.915 39.5765 249.235C40.1365 249.555 40.8098 249.715 41.5965 249.715ZM63.6854 250.235C64.5654 250.235 65.3187 250.395 65.9454 250.715C66.5721 251.022 67.0454 251.448 67.3654 251.995C67.6987 252.542 67.8654 253.148 67.8654 253.815C67.8654 254.495 67.6987 255.108 67.3654 255.655C67.0454 256.202 66.5721 256.635 65.9454 256.955C65.3187 257.262 64.5654 257.415 63.6854 257.415C62.7921 257.415 62.0254 257.262 61.3854 256.955C60.7587 256.635 60.2787 256.202 59.9454 255.655C59.6254 255.108 59.4654 254.495 59.4654 253.815C59.4654 253.415 59.5254 253.035 59.6454 252.675L56.1054 257.415H51.4854L57.7054 249.095C56.9587 249.735 55.9587 250.055 54.7054 250.055C53.8121 250.055 53.0454 249.902 52.4054 249.595C51.7787 249.275 51.2987 248.842 50.9654 248.295C50.6454 247.748 50.4854 247.135 50.4854 246.455C50.4854 245.788 50.6454 245.182 50.9654 244.635C51.2987 244.088 51.7787 243.662 52.4054 243.355C53.0454 243.035 53.8121 242.875 54.7054 242.875C55.5854 242.875 56.3387 243.035 56.9654 243.355C57.5921 243.662 58.0654 244.088 58.3854 244.635C58.7187 245.182 58.8854 245.788 58.8854 246.455C58.8854 246.988 58.7854 247.475 58.5854 247.915L62.2454 243.035H66.8454L60.9054 250.995C61.6254 250.488 62.5521 250.235 63.6854 250.235ZM54.7054 247.535C54.9854 247.535 55.2387 247.422 55.4654 247.195C55.7054 246.968 55.8254 246.715 55.8254 246.435C55.8254 246.155 55.7054 245.915 55.4654 245.715C55.2387 245.515 54.9854 245.415 54.7054 245.415C54.3987 245.415 54.1254 245.515 53.8854 245.715C53.6587 245.915 53.5454 246.155 53.5454 246.435C53.5454 246.728 53.6587 246.988 53.8854 247.215C54.1254 247.428 54.3987 247.535 54.7054 247.535ZM63.6854 254.895C63.9654 254.895 64.2187 254.782 64.4454 254.555C64.6854 254.328 64.8054 254.075 64.8054 253.795C64.8054 253.515 64.6854 253.275 64.4454 253.075C64.2187 252.875 63.9654 252.775 63.6854 252.775C63.3787 252.775 63.1054 252.875 62.8654 253.075C62.6387 253.275 62.5254 253.515 62.5254 253.795C62.5254 254.088 62.6387 254.348 62.8654 254.575C63.1054 254.788 63.3787 254.895 63.6854 254.895Z" fill="#494B53"/>
<path d="M364.313 242.304H378.793V244.884C376.179 248.844 374.159 252.83 372.733 256.844H367.333C368.786 253.23 370.699 249.637 373.073 246.064C369.379 246.064 366.459 246.13 364.313 246.264V242.304ZM392.46 249.684C393.34 249.684 394.093 249.844 394.72 250.164C395.346 250.47 395.82 250.897 396.14 251.444C396.473 251.99 396.64 252.597 396.64 253.264C396.64 253.944 396.473 254.557 396.14 255.104C395.82 255.65 395.346 256.084 394.72 256.404C394.093 256.71 393.34 256.864 392.46 256.864C391.566 256.864 390.8 256.71 390.16 256.404C389.533 256.084 389.053 255.65 388.72 255.104C388.4 254.557 388.24 253.944 388.24 253.264C388.24 252.864 388.3 252.484 388.42 252.124L384.88 256.864H380.26L386.48 248.544C385.733 249.184 384.733 249.504 383.48 249.504C382.586 249.504 381.82 249.35 381.18 249.044C380.553 248.724 380.073 248.29 379.74 247.744C379.42 247.197 379.26 246.584 379.26 245.904C379.26 245.237 379.42 244.63 379.74 244.084C380.073 243.537 380.553 243.11 381.18 242.804C381.82 242.484 382.586 242.324 383.48 242.324C384.36 242.324 385.113 242.484 385.74 242.804C386.366 243.11 386.84 243.537 387.16 244.084C387.493 244.63 387.66 245.237 387.66 245.904C387.66 246.437 387.56 246.924 387.36 247.364L391.02 242.484H395.62L389.68 250.444C390.4 249.937 391.326 249.684 392.46 249.684ZM383.48 246.984C383.76 246.984 384.013 246.87 384.24 246.644C384.48 246.417 384.6 246.164 384.6 245.884C384.6 245.604 384.48 245.364 384.24 245.164C384.013 244.964 383.76 244.864 383.48 244.864C383.173 244.864 382.9 244.964 382.66 245.164C382.433 245.364 382.32 245.604 382.32 245.884C382.32 246.177 382.433 246.437 382.66 246.664C382.9 246.877 383.173 246.984 383.48 246.984ZM392.46 254.344C392.74 254.344 392.993 254.23 393.22 254.004C393.46 253.777 393.58 253.524 393.58 253.244C393.58 252.964 393.46 252.724 393.22 252.524C392.993 252.324 392.74 252.224 392.46 252.224C392.153 252.224 391.88 252.324 391.64 252.524C391.413 252.724 391.3 252.964 391.3 253.244C391.3 253.537 391.413 253.797 391.64 254.024C391.88 254.237 392.153 254.344 392.46 254.344Z" fill="#494B53"/>
<path d="M375.473 362.258C375.953 362.165 376.426 362.118 376.893 362.118C377.706 362.118 378.366 362.258 378.873 362.538C379.393 362.805 379.766 363.151 379.993 363.578C380.219 363.991 380.333 364.425 380.333 364.878C380.333 365.931 379.986 366.831 379.293 367.578C378.599 368.311 377.659 368.871 376.473 369.258C375.286 369.631 373.966 369.818 372.513 369.818C368.299 369.818 365.573 368.351 364.333 365.418L365.453 365.138C366.279 364.938 366.979 364.751 367.553 364.578C368.139 364.391 368.653 364.185 369.093 363.958C369.359 364.625 369.739 365.105 370.233 365.398C370.739 365.678 371.433 365.818 372.313 365.818C373.246 365.818 374.006 365.711 374.593 365.498C375.179 365.285 375.473 364.965 375.473 364.538C375.473 364.311 375.359 364.138 375.133 364.018C374.906 363.898 374.546 363.818 374.053 363.778C373.559 363.725 372.866 363.698 371.973 363.698H370.453V360.198H371.373C372.386 360.198 373.213 360.158 373.853 360.078C374.493 359.985 374.813 359.791 374.813 359.498C374.813 359.165 374.639 358.898 374.293 358.698C373.959 358.485 373.433 358.378 372.713 358.378C371.779 358.378 371.019 358.571 370.433 358.958C369.859 359.345 369.413 359.905 369.093 360.638C367.666 360.065 366.146 359.658 364.533 359.418C365.173 357.978 366.153 356.865 367.473 356.078C368.806 355.291 370.519 354.898 372.613 354.898C373.973 354.898 375.193 355.078 376.273 355.438C377.366 355.785 378.219 356.271 378.833 356.898C379.459 357.525 379.773 358.225 379.773 358.998C379.773 359.451 379.666 359.858 379.453 360.218C379.239 360.565 378.819 360.911 378.193 361.258C377.566 361.591 376.659 361.925 375.473 362.258ZM394.53 362.458C395.41 362.458 396.163 362.618 396.79 362.938C397.417 363.245 397.89 363.671 398.21 364.218C398.543 364.765 398.71 365.371 398.71 366.038C398.71 366.718 398.543 367.331 398.21 367.878C397.89 368.425 397.417 368.858 396.79 369.178C396.163 369.485 395.41 369.638 394.53 369.638C393.637 369.638 392.87 369.485 392.23 369.178C391.603 368.858 391.123 368.425 390.79 367.878C390.47 367.331 390.31 366.718 390.31 366.038C390.31 365.638 390.37 365.258 390.49 364.898L386.95 369.638H382.33L388.55 361.318C387.803 361.958 386.803 362.278 385.55 362.278C384.657 362.278 383.89 362.125 383.25 361.818C382.623 361.498 382.143 361.065 381.81 360.518C381.49 359.971 381.33 359.358 381.33 358.678C381.33 358.011 381.49 357.405 381.81 356.858C382.143 356.311 382.623 355.885 383.25 355.578C383.89 355.258 384.657 355.098 385.55 355.098C386.43 355.098 387.183 355.258 387.81 355.578C388.437 355.885 388.91 356.311 389.23 356.858C389.563 357.405 389.73 358.011 389.73 358.678C389.73 359.211 389.63 359.698 389.43 360.138L393.09 355.258H397.69L391.75 363.218C392.47 362.711 393.397 362.458 394.53 362.458ZM385.55 359.758C385.83 359.758 386.083 359.645 386.31 359.418C386.55 359.191 386.67 358.938 386.67 358.658C386.67 358.378 386.55 358.138 386.31 357.938C386.083 357.738 385.83 357.638 385.55 357.638C385.243 357.638 384.97 357.738 384.73 357.938C384.503 358.138 384.39 358.378 384.39 358.658C384.39 358.951 384.503 359.211 384.73 359.438C384.97 359.651 385.243 359.758 385.55 359.758ZM394.53 367.118C394.81 367.118 395.063 367.005 395.29 366.778C395.53 366.551 395.65 366.298 395.65 366.018C395.65 365.738 395.53 365.498 395.29 365.298C395.063 365.098 394.81 364.998 394.53 364.998C394.223 364.998 393.95 365.098 393.71 365.298C393.483 365.498 393.37 365.738 393.37 366.018C393.37 366.311 393.483 366.571 393.71 366.798C393.95 367.011 394.223 367.118 394.53 367.118Z" fill="#494B53"/>
<path d="M375.473 421.258C375.953 421.165 376.426 421.118 376.893 421.118C377.706 421.118 378.366 421.258 378.873 421.538C379.393 421.805 379.766 422.151 379.993 422.578C380.219 422.991 380.333 423.425 380.333 423.878C380.333 424.931 379.986 425.831 379.293 426.578C378.599 427.311 377.659 427.871 376.473 428.258C375.286 428.631 373.966 428.818 372.513 428.818C368.299 428.818 365.573 427.351 364.333 424.418L365.453 424.138C366.279 423.938 366.979 423.751 367.553 423.578C368.139 423.391 368.653 423.185 369.093 422.958C369.359 423.625 369.739 424.105 370.233 424.398C370.739 424.678 371.433 424.818 372.313 424.818C373.246 424.818 374.006 424.711 374.593 424.498C375.179 424.285 375.473 423.965 375.473 423.538C375.473 423.311 375.359 423.138 375.133 423.018C374.906 422.898 374.546 422.818 374.053 422.778C373.559 422.725 372.866 422.698 371.973 422.698H370.453V419.198H371.373C372.386 419.198 373.213 419.158 373.853 419.078C374.493 418.985 374.813 418.791 374.813 418.498C374.813 418.165 374.639 417.898 374.293 417.698C373.959 417.485 373.433 417.378 372.713 417.378C371.779 417.378 371.019 417.571 370.433 417.958C369.859 418.345 369.413 418.905 369.093 419.638C367.666 419.065 366.146 418.658 364.533 418.418C365.173 416.978 366.153 415.865 367.473 415.078C368.806 414.291 370.519 413.898 372.613 413.898C373.973 413.898 375.193 414.078 376.273 414.438C377.366 414.785 378.219 415.271 378.833 415.898C379.459 416.525 379.773 417.225 379.773 417.998C379.773 418.451 379.666 418.858 379.453 419.218C379.239 419.565 378.819 419.911 378.193 420.258C377.566 420.591 376.659 420.925 375.473 421.258ZM394.53 421.458C395.41 421.458 396.163 421.618 396.79 421.938C397.417 422.245 397.89 422.671 398.21 423.218C398.543 423.765 398.71 424.371 398.71 425.038C398.71 425.718 398.543 426.331 398.21 426.878C397.89 427.425 397.417 427.858 396.79 428.178C396.163 428.485 395.41 428.638 394.53 428.638C393.637 428.638 392.87 428.485 392.23 428.178C391.603 427.858 391.123 427.425 390.79 426.878C390.47 426.331 390.31 425.718 390.31 425.038C390.31 424.638 390.37 424.258 390.49 423.898L386.95 428.638H382.33L388.55 420.318C387.803 420.958 386.803 421.278 385.55 421.278C384.657 421.278 383.89 421.125 383.25 420.818C382.623 420.498 382.143 420.065 381.81 419.518C381.49 418.971 381.33 418.358 381.33 417.678C381.33 417.011 381.49 416.405 381.81 415.858C382.143 415.311 382.623 414.885 383.25 414.578C383.89 414.258 384.657 414.098 385.55 414.098C386.43 414.098 387.183 414.258 387.81 414.578C388.437 414.885 388.91 415.311 389.23 415.858C389.563 416.405 389.73 417.011 389.73 417.678C389.73 418.211 389.63 418.698 389.43 419.138L393.09 414.258H397.69L391.75 422.218C392.47 421.711 393.397 421.458 394.53 421.458ZM385.55 418.758C385.83 418.758 386.083 418.645 386.31 418.418C386.55 418.191 386.67 417.938 386.67 417.658C386.67 417.378 386.55 417.138 386.31 416.938C386.083 416.738 385.83 416.638 385.55 416.638C385.243 416.638 384.97 416.738 384.73 416.938C384.503 417.138 384.39 417.378 384.39 417.658C384.39 417.951 384.503 418.211 384.73 418.438C384.97 418.651 385.243 418.758 385.55 418.758ZM394.53 426.118C394.81 426.118 395.063 426.005 395.29 425.778C395.53 425.551 395.65 425.298 395.65 425.018C395.65 424.738 395.53 424.498 395.29 424.298C395.063 424.098 394.81 423.998 394.53 423.998C394.223 423.998 393.95 424.098 393.71 424.298C393.483 424.498 393.37 424.738 393.37 425.018C393.37 425.311 393.483 425.571 393.71 425.798C393.95 426.011 394.223 426.118 394.53 426.118Z" fill="#494B53"/>
</svg>
