<svg width="26" height="32" viewBox="0 0 26 32" fill="none" xmlns="http://www.w3.org/2000/svg">
<path d="M1.07275 7.00684H25.1223" stroke="#494B53" stroke-miterlimit="10" stroke-linecap="round" stroke-linejoin="round"/>
<path d="M19.9968 4.37793H22.9989V3.3336H19.9968V4.37793Z" stroke="#494B53" stroke-width="0.7" stroke-miterlimit="10" stroke-linecap="round" stroke-linejoin="round"/>
<path d="M15.167 4.37793H18.1691V3.3336H15.167V4.37793Z" stroke="#494B53" stroke-width="0.7" stroke-miterlimit="10" stroke-linecap="round" stroke-linejoin="round"/>
<path d="M18.2048 20.9189H21.6505V16.5983H18.2048V20.9189Z" stroke="#494B53" stroke-miterlimit="10" stroke-linecap="round" stroke-linejoin="round"/>
<path d="M18.2048 20.9184V16.5977H19.7559C18.8451 13.7886 16.2097 11.7558 13.0974 11.7558C9.23016 11.7558 6.09497 14.8906 6.09497 18.7578C6.09497 22.6251 9.23016 25.7603 13.0974 25.7603C16.2097 25.7603 18.8451 23.7274 19.7559 20.9184H18.2048Z" stroke="#494B53" stroke-miterlimit="10" stroke-linecap="round" stroke-linejoin="round"/>
<path d="M4.02541 3.3331C3.73702 3.3331 3.50342 3.56707 3.50342 3.85509C3.50342 4.14347 3.73702 4.37744 4.02541 4.37744C4.31379 4.37744 4.54739 4.14347 4.54739 3.85509C4.54739 3.56707 4.31379 3.3331 4.02541 3.3331Z" stroke="#494B53" stroke-width="0.7" stroke-miterlimit="10" stroke-linecap="round" stroke-linejoin="round"/>
<path d="M6.44264 3.3331C6.15426 3.3331 5.92065 3.56707 5.92065 3.85509C5.92065 4.14347 6.15426 4.37744 6.44264 4.37744C6.73102 4.37744 6.96463 4.14347 6.96463 3.85509C6.96463 3.56707 6.73102 3.3331 6.44264 3.3331Z" stroke="#494B53" stroke-width="0.7" stroke-miterlimit="10" stroke-linecap="round" stroke-linejoin="round"/>
<path d="M19.7561 20.9186H18.205V19.8489C17.0761 19.8489 16.0898 20.4481 15.5388 21.3438C14.97 20.7623 14.1778 20.4003 13.3003 20.4003C13.008 20.4003 12.7265 20.4434 12.4584 20.5181C12.0046 18.7962 10.4412 17.5248 8.57705 17.5248C7.64806 17.5248 6.79525 17.8429 6.11475 18.3722" stroke="#494B53" stroke-miterlimit="10" stroke-linecap="round" stroke-linejoin="round"/>
<path d="M22.2546 0.861361H3.94C2.35662 0.861361 1.07251 2.14511 1.07251 3.72849V27.716C1.07251 29.2994 2.35662 30.5835 3.94 30.5835H22.2546C23.8383 30.5835 25.1221 29.2994 25.1221 27.716V3.72849C25.1221 2.14511 23.8383 0.861361 22.2546 0.861361Z" stroke="#494B53" stroke-miterlimit="10" stroke-linecap="round" stroke-linejoin="round"/>
</svg>
