<svg width="49" height="49" viewBox="0 0 49 49" fill="none" xmlns="http://www.w3.org/2000/svg">
<mask id="path-1-inside-1_716_9656" fill="white">
<path d="M38.5985 23.3907C38.5968 21.816 37.96 20.3062 36.8277 19.1927C35.6954 18.0792 34.1601 17.4529 32.5588 17.4513C32.434 17.4513 32.3167 17.4513 32.1969 17.4624C31.7623 15.7086 30.7409 14.1493 29.2968 13.0349C27.8527 11.9205 26.0697 11.3157 24.2341 11.3175C22.3985 11.3193 20.6167 11.9278 19.175 13.045C17.7332 14.1623 16.7151 15.7236 16.2841 17.4783C14.7718 17.6292 13.37 18.3258 12.3495 19.4336C11.329 20.5414 10.7621 21.9818 10.7585 23.4766C10.7591 24.7911 11.2042 26.068 12.0238 27.1064C11.8791 27.1666 11.7243 27.2292 11.5983 27.2881C11.5234 27.3242 11.4567 27.3748 11.402 27.4368C11.3474 27.4987 11.3059 27.5708 11.2801 27.6488C11.2544 27.727 11.2449 27.8093 11.2522 27.8911C11.2595 27.9729 11.2834 28.0524 11.3225 28.125C13.963 33.0249 17.9599 33.2299 19.8742 33.0004C19.4108 34.3928 18.4887 35.5937 17.2537 36.4131C16.6296 36.7387 15.9419 36.9292 15.2367 36.9715C14.5315 37.0138 13.8253 36.9071 13.1656 36.6585C13.0078 36.6097 12.8366 36.6245 12.6899 36.6998C12.5432 36.775 12.4329 36.9045 12.3832 37.0598C12.3336 37.215 12.3487 37.3833 12.4252 37.5276C12.5017 37.6719 12.6334 37.7804 12.7913 37.8292C13.5295 38.0649 14.2999 38.1891 15.0761 38.1973C16.0636 38.2053 17.0349 37.9509 17.8876 37.461C19.2866 36.5735 20.3557 35.2642 20.9349 33.7293C23.2484 37.126 27.2815 37.612 29.3817 37.612C29.8346 37.6163 30.2873 37.5913 30.7369 37.5371C30.891 37.5132 31.0304 37.4335 31.1276 37.3135C31.2249 37.1936 31.2729 37.0422 31.2622 36.8892C31.6874 37.0003 32.1251 37.058 32.565 37.061C33.6308 37.0614 34.6727 36.7502 35.5583 36.1671C36.4438 35.5839 37.1331 34.755 37.5386 33.7858C37.9441 32.8165 38.0475 31.7506 37.8356 30.7234C37.6237 29.6963 37.1061 28.7542 36.3486 28.017C37.051 27.4599 37.6176 26.7552 38.0069 25.9547C38.3963 25.1542 38.5984 24.278 38.5985 23.3907ZM21.3467 31.9512C21.3467 31.9401 21.3292 31.9365 21.3242 31.9254C21.2773 31.8329 21.2073 31.7535 21.1208 31.6947C21.1058 31.6861 21.0896 31.6837 21.0746 31.6751C21.023 31.6437 20.9671 31.6197 20.9087 31.6039C20.88 31.6015 20.8512 31.6015 20.8226 31.6039C20.8076 31.6039 20.7939 31.5904 20.7776 31.5904C20.7528 31.5926 20.7282 31.5967 20.704 31.6027C20.678 31.605 20.6521 31.6091 20.6266 31.6149C20.6104 31.6149 20.593 31.615 20.5767 31.6223C20.3796 31.6886 15.8348 33.1354 12.7626 28.1372C14.1489 27.6267 17.5494 26.7113 19.3563 29.1349C19.4378 29.2437 19.5535 29.323 19.6855 29.3605C19.8175 29.398 19.9584 29.3916 20.0863 29.3423C20.2147 29.293 20.3229 29.2033 20.394 29.0872C20.4651 28.9711 20.4952 28.8351 20.4794 28.7005C20.4607 28.5361 20.0951 24.7614 25.4709 22.8397C25.8315 24.2018 26.423 27.7139 23.8187 30.0283C23.7207 30.1155 23.6534 30.231 23.6265 30.3583C23.5996 30.4855 23.6144 30.6179 23.669 30.7363C23.7235 30.8553 23.8152 30.9541 23.9308 31.0183C24.0464 31.0826 24.1798 31.1089 24.3116 31.0934C25.5323 31.0169 26.7397 31.3798 27.7083 32.1144C28.9686 33.2111 29.7622 34.7346 29.9308 36.3812C28.2087 36.4818 23.3632 36.3554 21.3467 31.9512ZM36.6955 31.772C36.6945 32.849 36.259 33.8816 35.4846 34.6431C34.7102 35.4046 33.6602 35.8329 32.565 35.8339C32.028 35.8291 31.4976 35.7163 31.0064 35.5025C30.7005 33.8014 29.8007 32.2586 28.462 31.14C27.6269 30.5009 26.6384 30.0842 25.5919 29.9301C28.2037 26.5101 26.5391 22.0494 26.4654 21.8432C26.409 21.6966 26.2977 21.5768 26.1543 21.5083C26.0109 21.4399 25.8463 21.428 25.6942 21.4751C21.0147 22.917 19.7045 25.6866 19.3513 27.3924C18.4613 26.8276 17.4522 26.4697 16.4005 26.3457C15.3488 26.2218 14.2822 26.335 13.2817 26.6769C12.4648 25.8084 12.0099 24.6695 12.0076 23.4864C12.0097 22.2282 12.5133 21.021 13.4104 20.1239C14.3075 19.2268 15.5265 18.7114 16.8057 18.6883C16.9512 18.6867 17.0915 18.6352 17.2025 18.5427C17.3135 18.4501 17.3881 18.3224 17.4134 18.1815C17.699 16.5984 18.5442 15.1655 19.7997 14.1356C21.0552 13.1057 22.6403 12.5451 24.2753 12.5527C25.9102 12.5604 27.4899 13.1357 28.7354 14.1773C29.9809 15.2188 30.8122 16.6596 31.0826 18.2453C31.0957 18.326 31.125 18.4034 31.169 18.4728C31.2129 18.5422 31.2705 18.6023 31.3384 18.6495C31.4063 18.6968 31.4831 18.7302 31.5643 18.7478C31.6456 18.7654 31.7295 18.7668 31.8113 18.7521C32.0584 18.7086 32.309 18.6872 32.56 18.6883C33.6099 18.6876 34.6309 19.0262 35.4659 19.652C36.3009 20.2779 36.9035 21.1563 37.1811 22.152C37.4587 23.1477 37.3957 24.2055 37.002 25.1626C36.6083 26.1197 35.9056 26.923 35.0021 27.4488C34.9125 27.5007 34.8374 27.5737 34.7838 27.6614C34.7301 27.749 34.6996 27.8485 34.6951 27.9507C34.6905 28.0528 34.7119 28.1545 34.7575 28.2465C34.8031 28.3384 34.8713 28.4177 34.9559 28.4772C35.4899 28.8518 35.9256 29.3459 36.227 29.9188C36.5284 30.4918 36.6868 31.127 36.6892 31.772H36.6955Z"/>
</mask>
<path d="M38.5985 23.3907C38.5968 21.816 37.96 20.3062 36.8277 19.1927C35.6954 18.0792 34.1601 17.4529 32.5588 17.4513C32.434 17.4513 32.3167 17.4513 32.1969 17.4624C31.7623 15.7086 30.7409 14.1493 29.2968 13.0349C27.8527 11.9205 26.0697 11.3157 24.2341 11.3175C22.3985 11.3193 20.6167 11.9278 19.175 13.045C17.7332 14.1623 16.7151 15.7236 16.2841 17.4783C14.7718 17.6292 13.37 18.3258 12.3495 19.4336C11.329 20.5414 10.7621 21.9818 10.7585 23.4766C10.7591 24.7911 11.2042 26.068 12.0238 27.1064C11.8791 27.1666 11.7243 27.2292 11.5983 27.2881C11.5234 27.3242 11.4567 27.3748 11.402 27.4368C11.3474 27.4987 11.3059 27.5708 11.2801 27.6488C11.2544 27.727 11.2449 27.8093 11.2522 27.8911C11.2595 27.9729 11.2834 28.0524 11.3225 28.125C13.963 33.0249 17.9599 33.2299 19.8742 33.0004C19.4108 34.3928 18.4887 35.5937 17.2537 36.4131C16.6296 36.7387 15.9419 36.9292 15.2367 36.9715C14.5315 37.0138 13.8253 36.9071 13.1656 36.6585C13.0078 36.6097 12.8366 36.6245 12.6899 36.6998C12.5432 36.775 12.4329 36.9045 12.3832 37.0598C12.3336 37.215 12.3487 37.3833 12.4252 37.5276C12.5017 37.6719 12.6334 37.7804 12.7913 37.8292C13.5295 38.0649 14.2999 38.1891 15.0761 38.1973C16.0636 38.2053 17.0349 37.9509 17.8876 37.461C19.2866 36.5735 20.3557 35.2642 20.9349 33.7293C23.2484 37.126 27.2815 37.612 29.3817 37.612C29.8346 37.6163 30.2873 37.5913 30.7369 37.5371C30.891 37.5132 31.0304 37.4335 31.1276 37.3135C31.2249 37.1936 31.2729 37.0422 31.2622 36.8892C31.6874 37.0003 32.1251 37.058 32.565 37.061C33.6308 37.0614 34.6727 36.7502 35.5583 36.1671C36.4438 35.5839 37.1331 34.755 37.5386 33.7858C37.9441 32.8165 38.0475 31.7506 37.8356 30.7234C37.6237 29.6963 37.1061 28.7542 36.3486 28.017C37.051 27.4599 37.6176 26.7552 38.0069 25.9547C38.3963 25.1542 38.5984 24.278 38.5985 23.3907ZM21.3467 31.9512C21.3467 31.9401 21.3292 31.9365 21.3242 31.9254C21.2773 31.8329 21.2073 31.7535 21.1208 31.6947C21.1058 31.6861 21.0896 31.6837 21.0746 31.6751C21.023 31.6437 20.9671 31.6197 20.9087 31.6039C20.88 31.6015 20.8512 31.6015 20.8226 31.6039C20.8076 31.6039 20.7939 31.5904 20.7776 31.5904C20.7528 31.5926 20.7282 31.5967 20.704 31.6027C20.678 31.605 20.6521 31.6091 20.6266 31.6149C20.6104 31.6149 20.593 31.615 20.5767 31.6223C20.3796 31.6886 15.8348 33.1354 12.7626 28.1372C14.1489 27.6267 17.5494 26.7113 19.3563 29.1349C19.4378 29.2437 19.5535 29.323 19.6855 29.3605C19.8175 29.398 19.9584 29.3916 20.0863 29.3423C20.2147 29.293 20.3229 29.2033 20.394 29.0872C20.4651 28.9711 20.4952 28.8351 20.4794 28.7005C20.4607 28.5361 20.0951 24.7614 25.4709 22.8397C25.8315 24.2018 26.423 27.7139 23.8187 30.0283C23.7207 30.1155 23.6534 30.231 23.6265 30.3583C23.5996 30.4855 23.6144 30.6179 23.669 30.7363C23.7235 30.8553 23.8152 30.9541 23.9308 31.0183C24.0464 31.0826 24.1798 31.1089 24.3116 31.0934C25.5323 31.0169 26.7397 31.3798 27.7083 32.1144C28.9686 33.2111 29.7622 34.7346 29.9308 36.3812C28.2087 36.4818 23.3632 36.3554 21.3467 31.9512ZM36.6955 31.772C36.6945 32.849 36.259 33.8816 35.4846 34.6431C34.7102 35.4046 33.6602 35.8329 32.565 35.8339C32.028 35.8291 31.4976 35.7163 31.0064 35.5025C30.7005 33.8014 29.8007 32.2586 28.462 31.14C27.6269 30.5009 26.6384 30.0842 25.5919 29.9301C28.2037 26.5101 26.5391 22.0494 26.4654 21.8432C26.409 21.6966 26.2977 21.5768 26.1543 21.5083C26.0109 21.4399 25.8463 21.428 25.6942 21.4751C21.0147 22.917 19.7045 25.6866 19.3513 27.3924C18.4613 26.8276 17.4522 26.4697 16.4005 26.3457C15.3488 26.2218 14.2822 26.335 13.2817 26.6769C12.4648 25.8084 12.0099 24.6695 12.0076 23.4864C12.0097 22.2282 12.5133 21.021 13.4104 20.1239C14.3075 19.2268 15.5265 18.7114 16.8057 18.6883C16.9512 18.6867 17.0915 18.6352 17.2025 18.5427C17.3135 18.4501 17.3881 18.3224 17.4134 18.1815C17.699 16.5984 18.5442 15.1655 19.7997 14.1356C21.0552 13.1057 22.6403 12.5451 24.2753 12.5527C25.9102 12.5604 27.4899 13.1357 28.7354 14.1773C29.9809 15.2188 30.8122 16.6596 31.0826 18.2453C31.0957 18.326 31.125 18.4034 31.169 18.4728C31.2129 18.5422 31.2705 18.6023 31.3384 18.6495C31.4063 18.6968 31.4831 18.7302 31.5643 18.7478C31.6456 18.7654 31.7295 18.7668 31.8113 18.7521C32.0584 18.7086 32.309 18.6872 32.56 18.6883C33.6099 18.6876 34.6309 19.0262 35.4659 19.652C36.3009 20.2779 36.9035 21.1563 37.1811 22.152C37.4587 23.1477 37.3957 24.2055 37.002 25.1626C36.6083 26.1197 35.9056 26.923 35.0021 27.4488C34.9125 27.5007 34.8374 27.5737 34.7838 27.6614C34.7301 27.749 34.6996 27.8485 34.6951 27.9507C34.6905 28.0528 34.7119 28.1545 34.7575 28.2465C34.8031 28.3384 34.8713 28.4177 34.9559 28.4772C35.4899 28.8518 35.9256 29.3459 36.227 29.9188C36.5284 30.4918 36.6868 31.127 36.6892 31.772H36.6955Z" fill="#494B53"/>
<path d="M38.5985 23.3907L38.7985 23.3907V23.3905L38.5985 23.3907ZM32.5588 17.4513L32.559 17.2513H32.5588V17.4513ZM32.1969 17.4624L32.0028 17.5105L32.0441 17.6773L32.2153 17.6615L32.1969 17.4624ZM16.2841 17.4783L16.3039 17.6773L16.4446 17.6633L16.4783 17.526L16.2841 17.4783ZM10.7585 23.4766L10.5585 23.4761L10.5585 23.4767L10.7585 23.4766ZM12.0238 27.1064L12.1005 27.2911L12.3444 27.1898L12.1808 26.9825L12.0238 27.1064ZM11.5983 27.2881L11.5136 27.1069L11.5113 27.108L11.5983 27.2881ZM11.2801 27.6488L11.0902 27.586L11.0901 27.5864L11.2801 27.6488ZM11.3225 28.125L11.4986 28.0301L11.4986 28.0301L11.3225 28.125ZM19.8742 33.0004L20.0639 33.0635L20.1635 32.7643L19.8504 32.8018L19.8742 33.0004ZM17.2537 36.4131L17.3462 36.5904L17.3555 36.5855L17.3642 36.5797L17.2537 36.4131ZM13.1656 36.6585L13.2363 36.471L13.2247 36.4674L13.1656 36.6585ZM12.7913 37.8292L12.8521 37.6386L12.8504 37.6381L12.7913 37.8292ZM15.0761 38.1973L15.074 38.3973L15.0745 38.3973L15.0761 38.1973ZM17.8876 37.461L17.9873 37.6346L17.9947 37.6299L17.8876 37.461ZM20.9349 33.7293L21.1002 33.6167L20.8836 33.2987L20.7478 33.6587L20.9349 33.7293ZM29.3817 37.612L29.3836 37.412H29.3817V37.612ZM30.7369 37.5371L30.7608 37.7358L30.7675 37.7348L30.7369 37.5371ZM31.2622 36.8892L31.3128 36.6957L31.0434 36.6253L31.0627 36.9031L31.2622 36.8892ZM32.565 37.061L32.5637 37.261H32.565L32.565 37.061ZM36.3486 28.017L36.2243 27.8603L36.0461 28.0016L36.2091 28.1603L36.3486 28.017ZM21.3467 31.9512H21.1467V31.9948L21.1648 32.0344L21.3467 31.9512ZM21.3242 31.9254L21.5066 31.843L21.5026 31.8349L21.3242 31.9254ZM21.1208 31.6947L21.2333 31.5293L21.227 31.525L21.2203 31.5212L21.1208 31.6947ZM21.0746 31.6751L20.9707 31.846L20.9751 31.8486L21.0746 31.6751ZM20.9087 31.6039L20.961 31.4109L20.9436 31.4062L20.9256 31.4046L20.9087 31.6039ZM20.8226 31.6039V31.8039H20.8311L20.8395 31.8032L20.8226 31.6039ZM20.7776 31.5904V31.3904H20.7688L20.76 31.3912L20.7776 31.5904ZM20.704 31.6027L20.7215 31.8019L20.7369 31.8006L20.752 31.7968L20.704 31.6027ZM20.6266 31.6149V31.8149H20.6494L20.6717 31.8098L20.6266 31.6149ZM20.5767 31.6223L20.6404 31.8119L20.6501 31.8086L20.6594 31.8044L20.5767 31.6223ZM12.7626 28.1372L12.6935 27.9496L12.4643 28.0339L12.5922 28.242L12.7626 28.1372ZM19.3563 29.1349L19.196 29.2544L19.1962 29.2548L19.3563 29.1349ZM20.0863 29.3423L20.0147 29.1556L20.0144 29.1557L20.0863 29.3423ZM20.4794 28.7005L20.2807 28.7231L20.2808 28.7238L20.4794 28.7005ZM25.4709 22.8397L25.6642 22.7885L25.6085 22.5781L25.4036 22.6514L25.4709 22.8397ZM23.8187 30.0283L23.6858 29.8788L23.6857 29.8788L23.8187 30.0283ZM23.669 30.7363L23.8508 30.653L23.8506 30.6527L23.669 30.7363ZM24.3116 31.0934L24.2991 30.8935L24.2883 30.8948L24.3116 31.0934ZM27.7083 32.1144L27.8399 31.9632L27.8292 31.955L27.7083 32.1144ZM29.9308 36.3812L29.9424 36.5808L30.151 36.5686L30.1297 36.3608L29.9308 36.3812ZM36.6955 31.772L36.8955 31.7722L36.8957 31.572H36.6955V31.772ZM32.565 35.8339L32.5632 36.0339L32.5652 36.0338L32.565 35.8339ZM31.0064 35.5025L30.8096 35.5379L30.8285 35.6432L30.9266 35.6859L31.0064 35.5025ZM28.462 31.14L28.5904 30.9864L28.5836 30.9812L28.462 31.14ZM25.5919 29.9301L25.433 29.8087L25.2269 30.0785L25.5628 30.128L25.5919 29.9301ZM26.4654 21.8432L26.6538 21.776L26.6521 21.7715L26.4654 21.8432ZM25.6942 21.4751L25.7531 21.6662L25.7535 21.6661L25.6942 21.4751ZM19.3513 27.3924L19.2442 27.5612L19.4885 27.7163L19.5472 27.4329L19.3513 27.3924ZM13.2817 26.6769L13.136 26.814L13.2243 26.9079L13.3464 26.8662L13.2817 26.6769ZM12.0076 23.4864L11.8076 23.4861L11.8076 23.4868L12.0076 23.4864ZM16.8057 18.6883L16.8036 18.4883L16.8021 18.4883L16.8057 18.6883ZM17.4134 18.1815L17.2166 18.146L17.2165 18.1461L17.4134 18.1815ZM31.0826 18.2453L31.28 18.2132L31.2797 18.2117L31.0826 18.2453ZM31.8113 18.7521L31.7766 18.5551L31.7758 18.5553L31.8113 18.7521ZM32.56 18.6883L32.5592 18.8883L32.5602 18.8883L32.56 18.6883ZM35.0021 27.4488L35.1022 27.622L35.1027 27.6217L35.0021 27.4488ZM34.9559 28.4772L34.8411 28.6409L34.8411 28.6409L34.9559 28.4772ZM36.6892 31.772L36.4892 31.7728L36.49 31.972H36.6892V31.772ZM38.7985 23.3905C38.7968 21.7617 38.138 20.2008 36.9679 19.0501L36.6874 19.3353C37.7819 20.4116 38.3969 21.8702 38.3985 23.3909L38.7985 23.3905ZM36.9679 19.0501C35.7979 17.8995 34.2122 17.253 32.559 17.2513L32.5586 17.6513C34.108 17.6529 35.5928 18.2589 36.6874 19.3353L36.9679 19.0501ZM32.5588 17.2513C32.4355 17.2513 32.309 17.2512 32.1785 17.2632L32.2153 17.6615C32.3244 17.6515 32.4325 17.6513 32.5588 17.6513V17.2513ZM32.391 17.4143C31.9454 15.6162 30.8984 14.0182 29.419 12.8766L29.1746 13.1932C30.5833 14.2803 31.5791 15.8009 32.0028 17.5105L32.391 17.4143ZM29.419 12.8766C27.9396 11.7349 26.1135 11.1156 24.2339 11.1175L24.2343 11.5175C26.026 11.5157 27.7659 12.1061 29.1746 13.1932L29.419 12.8766ZM24.2339 11.1175C22.3543 11.1194 20.5295 11.7424 19.0524 12.887L19.2975 13.2031C20.704 12.1132 22.4427 11.5193 24.2343 11.5175L24.2339 11.1175ZM19.0524 12.887C17.5754 14.0316 16.5317 15.6317 16.0898 17.4306L16.4783 17.526C16.8984 15.8156 17.891 14.293 19.2975 13.2031L19.0524 12.887ZM16.2642 17.2793C14.7037 17.435 13.2564 18.1539 12.2024 19.2981L12.4966 19.5691C13.4836 18.4977 14.8399 17.8234 16.3039 17.6773L16.2642 17.2793ZM12.2024 19.2981C11.1483 20.4424 10.5623 21.9308 10.5585 23.4761L10.9585 23.4771C10.962 22.0327 11.5097 20.6404 12.4966 19.5691L12.2024 19.2981ZM10.5585 23.4767C10.5591 24.8364 11.0196 26.1569 11.8668 27.2304L12.1808 26.9825C11.3889 25.9791 10.9591 24.7457 10.9585 23.4765L10.5585 23.4767ZM11.9471 26.9217C11.8055 26.9805 11.6448 27.0456 11.5136 27.1069L11.683 27.4692C11.8039 27.4127 11.9526 27.3526 12.1005 27.2911L11.9471 26.9217ZM11.5113 27.108C11.4126 27.1556 11.3244 27.2224 11.252 27.3045L11.552 27.569C11.589 27.5272 11.6342 27.4928 11.6853 27.4682L11.5113 27.108ZM11.252 27.3045C11.1797 27.3865 11.1246 27.4822 11.0902 27.586L11.47 27.7117C11.4873 27.6594 11.5151 27.6109 11.552 27.569L11.252 27.3045ZM11.0901 27.5864C11.0559 27.6903 11.0433 27.8 11.053 27.9089L11.4514 27.8734C11.4466 27.8187 11.4529 27.7636 11.4701 27.7113L11.0901 27.5864ZM11.053 27.9089C11.0627 28.0178 11.0945 28.1235 11.1465 28.2199L11.4986 28.0301C11.4723 27.9813 11.4563 27.928 11.4514 27.8734L11.053 27.9089ZM11.1465 28.2198C12.4879 30.7092 14.1821 32.0184 15.7956 32.6716C17.405 33.3232 18.9192 33.3163 19.898 33.199L19.8504 32.8018C18.9149 32.9139 17.4735 32.9194 15.9458 32.3008C14.4221 31.684 12.7976 30.4407 11.4986 28.0301L11.1465 28.2198ZM19.6844 32.9372C19.2353 34.2868 18.3413 35.4514 17.1431 36.2464L17.3642 36.5797C18.6361 35.7359 19.5863 34.4988 20.0639 33.0635L19.6844 32.9372ZM17.1611 36.2358C16.5621 36.5484 15.9019 36.7312 15.2247 36.7719L15.2487 37.1711C15.9819 37.1271 16.6971 36.9291 17.3462 36.5904L17.1611 36.2358ZM15.2247 36.7719C14.5476 36.8125 13.8695 36.71 13.2362 36.4713L13.0951 36.8456C13.7812 37.1042 14.5155 37.2152 15.2487 37.1711L15.2247 36.7719ZM13.2247 36.4674C13.0171 36.4032 12.792 36.4227 12.5986 36.5218L12.7812 36.8777C12.8813 36.8264 12.9985 36.8161 13.1065 36.8496L13.2247 36.4674ZM12.5986 36.5218C12.4052 36.621 12.2588 36.7923 12.1927 36.9988L12.5737 37.1207C12.6069 37.0168 12.6811 36.929 12.7812 36.8777L12.5986 36.5218ZM12.1927 36.9988C12.1266 37.2055 12.1468 37.4295 12.2485 37.6213L12.6019 37.4339C12.5505 37.337 12.5405 37.2245 12.5737 37.1207L12.1927 36.9988ZM12.2485 37.6213C12.3501 37.8129 12.5244 37.956 12.7322 38.0202L12.8504 37.6381C12.7424 37.6047 12.6533 37.5308 12.6019 37.4339L12.2485 37.6213ZM12.7304 38.0197C13.4877 38.2615 14.2779 38.3888 15.074 38.3973L15.0782 37.9973C14.322 37.9893 13.5714 37.8683 12.8521 37.6387L12.7304 38.0197ZM15.0745 38.3973C16.0973 38.4056 17.1036 38.1421 17.9872 37.6344L17.7879 37.2876C16.9662 37.7598 16.0299 38.0051 15.0777 37.9973L15.0745 38.3973ZM17.9947 37.6299C19.4299 36.7194 20.5273 35.3758 21.122 33.7999L20.7478 33.6587C20.184 35.1526 19.1432 36.4276 17.7804 37.2922L17.9947 37.6299ZM20.7696 33.8419C23.1421 37.3252 27.2667 37.812 29.3817 37.812V37.412C27.2963 37.412 23.3547 36.9268 21.1002 33.6167L20.7696 33.8419ZM29.3798 37.812C29.8413 37.8164 30.3027 37.7909 30.7608 37.7357L30.713 37.3386C30.272 37.3917 29.8279 37.4162 29.3836 37.412L29.3798 37.812ZM30.7675 37.7348C30.9701 37.7034 31.1541 37.5984 31.283 37.4395L30.9723 37.1876C30.9066 37.2686 30.8119 37.3231 30.7063 37.3395L30.7675 37.7348ZM31.283 37.4395C31.4119 37.2805 31.4759 37.0792 31.4618 36.8753L31.0627 36.9031C31.0698 37.0052 31.0378 37.1067 30.9723 37.1876L31.283 37.4395ZM31.2117 37.0827C31.6529 37.198 32.1072 37.2579 32.5637 37.261L32.5664 36.861C32.1431 36.8581 31.7219 36.8026 31.3128 36.6957L31.2117 37.0827ZM32.565 37.261C33.6697 37.2614 34.7498 36.9389 35.6683 36.3341L35.4483 36C34.5955 36.5616 33.592 36.8614 32.5651 36.861L32.565 37.261ZM35.6683 36.3341C36.5867 35.7293 37.3022 34.8693 37.7231 33.863L37.3541 33.7086C36.9641 34.6408 36.3009 35.4385 35.4483 36L35.6683 36.3341ZM37.7231 33.863C38.1442 32.8566 38.2515 31.7497 38.0315 30.683L37.6397 30.7638C37.8435 31.7515 37.7441 32.7764 37.3541 33.7086L37.7231 33.863ZM38.0315 30.683C37.8114 29.6164 37.274 28.6386 36.4881 27.8737L36.2091 28.1603C36.9382 28.8699 37.436 29.7762 37.6397 30.7638L38.0315 30.683ZM36.4729 28.1737C37.1986 27.5981 37.7843 26.8698 38.1868 26.0422L37.8271 25.8672C37.451 26.6406 36.9034 27.3217 36.2243 27.8603L36.4729 28.1737ZM38.1868 26.0422C38.5893 25.2145 38.7984 24.3085 38.7985 23.3907L38.3985 23.3906C38.3984 24.2476 38.2032 25.0938 37.8271 25.8672L38.1868 26.0422ZM21.5467 31.9512C21.5467 31.8896 21.5205 31.8437 21.4979 31.8165C21.4789 31.7936 21.4585 31.7791 21.456 31.7773C21.447 31.7707 21.4559 31.7771 21.4624 31.7828C21.4709 31.7903 21.4915 31.81 21.5065 31.843L21.142 32.0078C21.1594 32.0464 21.1841 32.0706 21.1973 32.0823C21.2042 32.0885 21.2103 32.0931 21.2136 32.0956C21.2153 32.0969 21.2168 32.098 21.2176 32.0985C21.2182 32.099 21.2181 32.0989 21.2185 32.0992C21.2187 32.0993 21.2187 32.0993 21.2186 32.0993C21.2185 32.0992 21.2177 32.0986 21.2165 32.0976C21.2153 32.0967 21.2133 32.0952 21.211 32.0932C21.2066 32.0894 21.1986 32.0822 21.1899 32.0717C21.1809 32.0609 21.1698 32.045 21.1611 32.0238C21.152 32.0018 21.1467 31.9772 21.1467 31.9512H21.5467ZM21.5026 31.8349C21.4402 31.712 21.3475 31.607 21.2333 31.5293L21.0083 31.8601C21.0671 31.9001 21.1143 31.9538 21.1459 32.0159L21.5026 31.8349ZM21.2203 31.5212C21.2067 31.5134 21.1943 31.5079 21.1848 31.504C21.1759 31.5004 21.1677 31.4975 21.1645 31.4964C21.1599 31.4947 21.1603 31.4949 21.1615 31.4953C21.1632 31.496 21.168 31.4981 21.1741 31.5016L20.9751 31.8486C20.9888 31.8564 21.0012 31.8619 21.0106 31.8658C21.0195 31.8694 21.0278 31.8723 21.031 31.8734C21.0356 31.8751 21.0351 31.8749 21.0339 31.8745C21.0322 31.8737 21.0275 31.8717 21.0213 31.8682L21.2203 31.5212ZM21.1785 31.5042C21.1108 31.463 21.0375 31.4316 20.961 31.4109L20.8564 31.7969C20.8968 31.8079 20.9353 31.8244 20.9707 31.846L21.1785 31.5042ZM20.9256 31.4046C20.8857 31.4012 20.8455 31.4012 20.8056 31.4046L20.8395 31.8032C20.8569 31.8017 20.8743 31.8017 20.8917 31.8032L20.9256 31.4046ZM20.8226 31.4039C20.8487 31.4039 20.8683 31.4098 20.8771 31.4128C20.8817 31.4144 20.8848 31.4158 20.8857 31.4162C20.8863 31.4165 20.8868 31.4167 20.8842 31.4155C20.8816 31.4143 20.8683 31.408 20.8526 31.4027C20.8355 31.3971 20.8096 31.3904 20.7776 31.3904V31.7904C20.7538 31.7904 20.7357 31.7854 20.7262 31.7823C20.7181 31.7796 20.7122 31.7767 20.7169 31.7788C20.7181 31.7793 20.7221 31.7812 20.7264 31.7831C20.7309 31.785 20.7377 31.7879 20.7459 31.7907C20.762 31.7963 20.7889 31.8039 20.8226 31.8039V31.4039ZM20.76 31.3912C20.725 31.3943 20.6902 31.4001 20.6561 31.4085L20.752 31.7968C20.7662 31.7933 20.7807 31.7909 20.7953 31.7896L20.76 31.3912ZM20.6865 31.4034C20.6512 31.4065 20.6162 31.4121 20.5816 31.4201L20.6717 31.8098C20.6881 31.806 20.7047 31.8034 20.7215 31.8019L20.6865 31.4034ZM20.6266 31.4149C20.6171 31.4149 20.5559 31.4121 20.4941 31.4402L20.6594 31.8044C20.6427 31.812 20.6291 31.8141 20.6234 31.8147C20.6206 31.815 20.6191 31.815 20.6198 31.815C20.6208 31.815 20.6222 31.8149 20.6266 31.8149V31.4149ZM20.513 31.4327C20.4304 31.4605 19.2803 31.829 17.7804 31.5816C16.2898 31.3358 14.4372 30.4797 12.933 28.0325L12.5922 28.242C14.1602 30.7929 16.1161 31.7125 17.7153 31.9763C19.305 32.2384 20.5259 31.8504 20.6404 31.8119L20.513 31.4327ZM12.8317 28.3249C13.5151 28.0733 14.6857 27.7258 15.9001 27.7358C17.1109 27.7457 18.3423 28.1094 19.196 29.2544L19.5167 29.0154C18.5634 27.7368 17.1911 27.3464 15.9034 27.3358C14.6193 27.3252 13.3964 27.6907 12.6935 27.9496L12.8317 28.3249ZM19.1962 29.2548C19.3042 29.399 19.4572 29.5035 19.6309 29.5529L19.7402 29.1681C19.6499 29.1424 19.5713 29.0884 19.5164 29.015L19.1962 29.2548ZM19.6309 29.5529C19.8045 29.6022 19.9898 29.5938 20.1582 29.5289L20.0144 29.1557C19.927 29.1894 19.8305 29.1938 19.7402 29.1681L19.6309 29.5529ZM20.158 29.529C20.327 29.4642 20.4702 29.3458 20.5646 29.1917L20.2235 28.9828C20.1756 29.0609 20.1024 29.1219 20.0147 29.1556L20.158 29.529ZM20.5646 29.1917C20.659 29.0376 20.699 28.8566 20.678 28.6772L20.2808 28.7238C20.2913 28.8137 20.2713 28.9047 20.2235 28.9828L20.5646 29.1917ZM20.6781 28.6779C20.6712 28.6175 20.5762 27.6743 21.1325 26.5156C21.6857 25.3632 22.8949 23.9729 25.5382 23.028L25.4036 22.6514C22.6711 23.6281 21.3751 25.086 20.7719 26.3425C20.1717 27.5927 20.2688 28.6191 20.2807 28.7231L20.6781 28.6779ZM25.2775 22.8909C25.6367 24.2476 26.1958 27.6483 23.6858 29.8788L23.9516 30.1778C26.6502 27.7795 26.0263 24.156 25.6642 22.7885L25.2775 22.8909ZM23.6857 29.8788C23.5561 29.9942 23.4666 30.1475 23.4308 30.3169L23.8221 30.3997C23.8401 30.3146 23.8853 30.2368 23.9517 30.1777L23.6857 29.8788ZM23.4308 30.3169C23.395 30.4864 23.4148 30.6626 23.4873 30.82L23.8506 30.6527C23.8141 30.5733 23.8042 30.4847 23.8221 30.3997L23.4308 30.3169ZM23.4871 30.8197C23.5597 30.9778 23.6813 31.1085 23.8337 31.1932L24.028 30.8435C23.9492 30.7998 23.8874 30.7328 23.8508 30.653L23.4871 30.8197ZM23.8337 31.1932C23.9861 31.2778 24.1616 31.3124 24.3349 31.2921L24.2883 30.8948C24.198 30.9054 24.1067 30.8873 24.028 30.8435L23.8337 31.1932ZM24.3241 31.293C25.4973 31.2195 26.6573 31.5683 27.5875 32.2738L27.8292 31.955C26.8221 31.1913 25.5674 30.8143 24.2991 30.8938L24.3241 31.293ZM27.577 32.2653C28.7994 33.329 29.5684 34.806 29.7318 36.4015L30.1297 36.3608C29.9559 34.6632 29.1378 33.0932 27.8396 31.9635L27.577 32.2653ZM29.9191 36.1815C29.0708 36.2311 27.4578 36.224 25.8134 35.6661C24.1737 35.1098 22.5087 34.0086 21.5285 31.8679L21.1648 32.0344C22.2012 34.298 23.9672 35.4621 25.6849 36.0449C27.3979 36.6261 29.0687 36.6319 29.9424 36.5808L29.9191 36.1815ZM36.4955 31.7718C36.4945 32.7947 36.0809 33.7762 35.3444 34.5005L35.6248 34.7857C36.4371 33.987 36.8944 32.9032 36.8955 31.7722L36.4955 31.7718ZM35.3444 34.5005C34.6077 35.2249 33.6081 35.6329 32.5648 35.6339L32.5652 36.0338C33.7123 36.0328 34.8127 35.5843 35.6248 34.7857L35.3444 34.5005ZM32.5668 35.6339C32.0565 35.6293 31.5527 35.5222 31.0863 35.3191L30.9266 35.6859C31.4424 35.9105 31.9994 36.0288 32.5632 36.0338L32.5668 35.6339ZM31.2033 35.4671C30.889 33.7194 29.9646 32.1349 28.5903 30.9866L28.3338 31.2935C29.6368 32.3823 30.5121 33.8835 30.8096 35.5379L31.2033 35.4671ZM28.5836 30.9812C27.7213 30.3213 26.701 29.8913 25.6211 29.7322L25.5628 30.128C26.5759 30.2772 27.5325 30.6805 28.3405 31.2989L28.5836 30.9812ZM25.7509 30.0515C27.0964 28.2896 27.336 26.2651 27.2353 24.6689C27.1346 23.072 26.6924 21.8842 26.6538 21.776L26.2771 21.9105C26.3121 22.0085 26.739 23.154 26.8361 24.694C26.9333 26.2347 26.6993 28.1506 25.433 29.8087L25.7509 30.0515ZM26.6521 21.7715C26.5771 21.5765 26.4295 21.418 26.2405 21.3278L26.0682 21.6888C26.166 21.7355 26.241 21.8168 26.2788 21.915L26.6521 21.7715ZM26.2405 21.3278C26.0516 21.2377 25.835 21.2221 25.635 21.2841L25.7535 21.6661C25.8575 21.6339 25.9702 21.6421 26.0682 21.6888L26.2405 21.3278ZM25.6354 21.284C23.2651 22.0143 21.7344 23.0856 20.7503 24.2026C19.7666 25.3191 19.3377 26.4716 19.1555 27.3518L19.5472 27.4329C19.7181 26.6075 20.1209 25.5222 21.0505 24.467C21.9797 23.4123 23.4439 22.3778 25.7531 21.6662L25.6354 21.284ZM19.4585 27.2235C18.543 26.6426 17.5052 26.2746 16.4239 26.1471L16.3771 26.5443C17.3991 26.6648 18.3796 27.0126 19.2442 27.5612L19.4585 27.2235ZM16.4239 26.1471C15.3426 26.0196 14.2459 26.1361 13.217 26.4877L13.3464 26.8662C14.3185 26.534 15.355 26.4239 16.3771 26.5443L16.4239 26.1471ZM13.4274 26.5399C12.6449 25.7081 12.2098 24.6179 12.2076 23.486L11.8076 23.4868C11.81 24.7211 12.2846 25.9088 13.136 26.814L13.4274 26.5399ZM12.2076 23.4867C12.2096 22.282 12.6918 21.1253 13.5518 20.2653L13.269 19.9825C12.3348 20.9167 11.8098 22.1745 11.8076 23.4861L12.2076 23.4867ZM13.5518 20.2653C14.4119 19.4052 15.5814 18.9104 16.8093 18.8882L16.8021 18.4883C15.4715 18.5124 14.203 19.0484 13.269 19.9825L13.5518 20.2653ZM16.8078 18.8883C16.999 18.8862 17.184 18.8186 17.3306 18.6963L17.0744 18.3891C16.9991 18.4519 16.9033 18.4872 16.8036 18.4883L16.8078 18.8883ZM17.3306 18.6963C17.4773 18.5739 17.5765 18.4045 17.6102 18.2168L17.2165 18.1461C17.1996 18.2403 17.1497 18.3263 17.0744 18.3891L17.3306 18.6963ZM17.6102 18.217C17.8873 16.6812 18.7074 15.2903 19.9266 14.2902L19.6729 13.9809C18.381 15.0406 17.5107 16.5156 17.2166 18.146L17.6102 18.217ZM19.9266 14.2902C21.1458 13.2901 22.6856 12.7453 24.2744 12.7527L24.2762 12.3527C22.5951 12.3449 20.9647 12.9213 19.6729 13.9809L19.9266 14.2902ZM24.2744 12.7527C25.8631 12.7601 27.3976 13.3193 28.6071 14.3307L28.8637 14.0239C27.5822 12.9522 25.9574 12.3606 24.2762 12.3527L24.2744 12.7527ZM28.6071 14.3307C29.8165 15.3421 30.6231 16.7406 30.8854 18.2789L31.2797 18.2117C31.0013 16.5787 30.1453 15.0956 28.8637 14.0239L28.6071 14.3307ZM30.8851 18.2773C30.9026 18.3848 30.9417 18.4877 31 18.5798L31.338 18.3659C31.3084 18.3191 31.2887 18.2672 31.28 18.2132L30.8851 18.2773ZM31 18.5798C31.0583 18.6719 31.1346 18.7514 31.2242 18.8137L31.4526 18.4854C31.4065 18.4533 31.3676 18.4126 31.338 18.3659L31 18.5798ZM31.2242 18.8137C31.3139 18.8761 31.4151 18.9201 31.522 18.9432L31.6067 18.5523C31.5512 18.5403 31.4988 18.5174 31.4526 18.4854L31.2242 18.8137ZM31.522 18.9432C31.6288 18.9664 31.7392 18.9683 31.8468 18.9489L31.7758 18.5553C31.7198 18.5654 31.6623 18.5644 31.6067 18.5523L31.522 18.9432ZM31.846 18.9491C32.0814 18.9076 32.3201 18.8873 32.5592 18.8883L32.5609 18.4883C32.298 18.4872 32.0355 18.5095 31.7766 18.5551L31.846 18.9491ZM32.5602 18.8883C33.567 18.8876 34.5458 19.2124 35.346 19.8121L35.5859 19.492C34.716 18.84 33.6528 18.4875 32.5599 18.4883L32.5602 18.8883ZM35.346 19.8121C36.146 20.4118 36.7229 21.2529 36.9884 22.2057L37.3738 22.0983C37.0842 21.0597 36.4558 20.144 35.5859 19.492L35.346 19.8121ZM36.9884 22.2057C37.254 23.1584 37.1939 24.1706 36.8171 25.0865L37.187 25.2387C37.5976 24.2404 37.6633 23.137 37.3738 22.0983L36.9884 22.2057ZM36.8171 25.0865C36.4402 26.0025 35.7674 26.772 34.9015 27.276L35.1027 27.6217C36.0438 27.0739 36.7764 26.2368 37.187 25.2387L36.8171 25.0865ZM34.902 27.2757C34.7837 27.3441 34.6843 27.4407 34.6132 27.557L34.9544 27.7658C34.9904 27.7068 35.0412 27.6573 35.1022 27.622L34.902 27.2757ZM34.6132 27.557C34.542 27.6733 34.5014 27.8056 34.4953 27.9417L34.8949 27.9596C34.8979 27.8914 34.9183 27.8247 34.9544 27.7658L34.6132 27.557ZM34.4953 27.9417C34.4891 28.0778 34.5178 28.2131 34.5783 28.3353L34.9367 28.1577C34.9061 28.096 34.8918 28.0279 34.8949 27.9596L34.4953 27.9417ZM34.5783 28.3353C34.6388 28.4574 34.7293 28.5624 34.8411 28.6409L35.0708 28.3134C35.0133 28.2731 34.9673 28.2194 34.9367 28.1577L34.5783 28.3353ZM34.8411 28.6409C35.3493 28.9974 35.7636 29.4674 36.05 30.012L36.404 29.8257C36.0877 29.2244 35.6306 28.7061 35.0708 28.3134L34.8411 28.6409ZM36.05 30.012C36.3365 30.5565 36.487 31.16 36.4892 31.7728L36.8892 31.7713C36.8867 31.0939 36.7203 30.427 36.404 29.8257L36.05 30.012ZM36.6892 31.972H36.6955V31.572H36.6892V31.972Z" fill="white" mask="url(#path-1-inside-1_716_9656)"/>
</svg>
