<svg width="49" height="49" viewBox="0 0 49 49" fill="none" xmlns="http://www.w3.org/2000/svg">
<path fill-rule="evenodd" clip-rule="evenodd" d="M23.1428 11.291C19.9659 11.6636 17.2306 13.9212 16.3592 16.8901L16.2125 17.3899L15.7167 17.467C14.444 17.6648 13.4073 18.199 12.4418 19.1544C11.1777 20.4052 10.6474 21.743 10.7218 23.4937C10.7708 24.6459 11.076 25.5448 11.7328 26.4714C11.8914 26.6951 12.0211 26.9026 12.0211 26.9325C12.0211 26.9625 11.8663 27.0468 11.6771 27.1199C11.4548 27.2058 11.2978 27.3162 11.2329 27.4319C11.1385 27.6006 11.1438 27.6313 11.3241 27.9567C11.7601 28.7438 12.3552 29.5281 13.0397 30.218C14.0334 31.2195 14.9362 31.8074 16.0597 32.1845C17.0385 32.5131 17.4418 32.5726 18.7171 32.5765C19.574 32.5791 19.9181 32.6018 19.9181 32.6556C19.9181 32.8194 19.5132 33.7127 19.2141 34.209C18.8203 34.8622 17.9979 35.7503 17.3939 36.1746C17.0874 36.3898 16.7255 36.5666 16.3042 36.7068C15.714 36.9033 15.6121 36.917 14.7192 36.9199C13.9069 36.9225 13.6836 36.8998 13.2175 36.7669C12.6034 36.5918 12.3856 36.6276 12.3135 36.9155C12.2436 37.1937 12.3839 37.3383 12.8617 37.4804C14.2192 37.8841 15.7556 37.8317 16.9364 37.3416C18.3147 36.7694 19.7076 35.3068 20.3949 33.7096C20.5377 33.378 20.6616 33.0993 20.6703 33.0902C20.679 33.0811 20.8805 33.3341 21.1182 33.6524C22.1033 34.9717 23.4401 35.9191 25.162 36.5185C26.5172 36.9903 27.8153 37.1769 29.509 37.1435C30.5018 37.1239 30.6475 37.1068 30.7699 36.9959C30.858 36.9161 30.9083 36.7905 30.9083 36.6504C30.9083 36.3945 30.9063 36.3948 31.5663 36.5357C32.188 36.6684 33.1762 36.6233 33.8584 36.4312C35.2086 36.0508 36.4212 35.0891 37.0328 33.9134C37.4541 33.1035 37.5606 32.6993 37.6015 31.7551C37.6319 31.0537 37.6164 30.8477 37.4985 30.3814C37.2718 29.4848 36.8906 28.7743 36.2597 28.0725L35.9642 27.7439L36.1838 27.5664C38.3738 25.795 38.9312 22.6244 37.4796 20.1963C37.1893 19.7108 36.3837 18.8551 35.882 18.4993C34.8642 17.7775 33.7183 17.4103 32.4833 17.4103H31.9109L31.7316 16.8345C31.3302 15.5457 30.682 14.4924 29.7145 13.5572C28.8394 12.7114 28.097 12.2307 26.9926 11.7947C25.9041 11.3651 24.3006 11.1552 23.1428 11.291ZM25.534 12.2156C28.2506 12.7693 30.392 14.8103 31.0699 17.4919C31.1509 17.8125 31.2528 18.1103 31.2964 18.1538C31.3502 18.2077 31.6847 18.235 32.3429 18.2393C33.4851 18.2467 33.8076 18.3199 34.7581 18.7874C38.124 20.4427 38.4299 25.0614 35.3147 27.1901C35.0628 27.3622 34.8568 27.5249 34.8568 27.5518C34.8568 27.5786 34.8397 27.6452 34.8188 27.6997C34.7936 27.7654 34.9993 28.0161 35.4308 28.4454C35.9715 28.9834 36.1274 29.1869 36.3581 29.6557C36.9679 30.8952 36.9834 32.1915 36.4025 33.3672C35.7671 34.6533 34.5908 35.5085 33.1129 35.7588C32.4629 35.8689 31.7795 35.8133 31.1329 35.5979C30.7341 35.4651 30.645 35.3978 30.645 35.2294C30.645 34.9881 30.181 33.7056 29.9128 33.2054C28.9052 31.3269 27.353 30.2094 25.297 29.8821L25.0491 29.8426L25.3413 29.4332C25.9234 28.6174 26.3385 27.6244 26.5411 26.563C26.6812 25.8291 26.6817 24.3042 26.5421 23.4643C26.4119 22.681 26.1288 21.6929 25.9909 21.5404C25.8383 21.3718 25.5956 21.397 24.8797 21.6562C22.0044 22.697 20.0485 24.5482 19.4568 26.7887C19.3804 27.0783 19.3047 27.355 19.2886 27.4037C19.2662 27.4717 19.2099 27.459 19.0458 27.3492C18.6494 27.0836 17.7822 26.6998 17.193 26.529C16.0556 26.1994 14.585 26.1944 13.4733 26.5164L12.9367 26.6719L12.639 26.3354C12.2033 25.8431 11.7233 24.8171 11.5886 24.0903C11.0589 21.2314 13.2123 18.4974 16.2075 18.226C16.4746 18.2018 16.7412 18.1469 16.7999 18.1039C16.8587 18.0609 16.9756 17.7536 17.0597 17.4209C17.7197 14.8095 19.8683 12.7838 22.5834 12.2132C23.4232 12.0367 24.6612 12.0378 25.534 12.2156ZM25.5558 22.7083C25.763 23.5074 25.8584 24.4756 25.8183 25.3737C25.7382 27.1676 25.2229 28.4483 24.1038 29.6347C23.8096 29.9466 23.6693 30.1479 23.6693 30.2581C23.6693 30.5522 23.8352 30.6196 24.6564 30.6585C26.0377 30.7241 27.1868 31.2024 28.0652 32.0775C29.1094 33.1176 29.8942 34.7371 29.9991 36.0683L30.0198 36.3315L28.7695 36.3255C27.425 36.3189 26.7681 36.2222 25.6334 35.8637C23.5733 35.2128 21.9568 33.8528 21.0135 31.9763C20.9192 31.7889 20.7897 31.6192 20.7257 31.5992C20.6616 31.5791 20.3278 31.6209 19.984 31.6921C17.6221 32.1813 15.1913 31.3843 13.4918 29.5635C13.0012 29.038 12.2185 27.9762 12.2185 27.8363C12.2185 27.7352 13.1586 27.4206 13.9953 27.2418C14.6911 27.0931 16.3456 27.0729 16.8909 27.2063C17.09 27.2551 17.5236 27.4245 17.8546 27.5828C18.3508 27.8202 18.5477 27.9632 18.979 28.3991C19.5347 28.9608 19.6883 29.0258 19.9181 28.796C20.0274 28.6867 20.0498 28.5766 20.0498 28.1484C20.0498 26.8102 20.8124 25.25 21.964 24.2322C22.4639 23.7904 23.3787 23.1863 23.9813 22.9001C24.6589 22.5781 25.2595 22.3478 25.376 22.3653C25.4294 22.3732 25.5076 22.5224 25.5558 22.7083Z" fill="#494B53"/>
</svg>
