<svg width="48" height="49" viewBox="0 0 48 49" fill="none" xmlns="http://www.w3.org/2000/svg">
<path fill-rule="evenodd" clip-rule="evenodd" d="M21.2753 19.1402C22.0506 19.2093 22.7499 19.7324 23.2681 20.2588C22.6146 21.087 22.068 22.1925 21.677 23.4824C21.2334 24.9444 21 26.6171 21 28.3196C21 28.5132 21.0027 28.7092 21.0089 28.9021C21.0358 29.7645 21.3642 30.4966 21.9587 31.0188C22.2265 31.2549 22.5448 31.4419 22.8951 31.5692C23.2454 31.6964 23.6209 31.7614 23.9998 31.7602C24.3788 31.7614 24.7542 31.6965 25.1045 31.5692C25.4549 31.442 25.7731 31.2549 26.0409 31.0188C26.6358 30.4966 26.9642 29.7645 26.991 28.9021C26.9969 28.7092 27 28.5132 27 28.3196C27 26.6171 26.7658 24.9444 26.3226 23.4824C25.9514 22.2577 25.4401 21.1992 24.8301 20.3864C25.4889 19.7942 26.4676 19.1192 27.5 19.1192C28.3413 19.1192 29.1712 19.3264 30.1597 20.3999C29.5542 21.2109 29.0463 22.2644 28.6774 23.4824C28.2334 24.9444 28 26.6171 28 28.3196C28 28.5139 28.0031 28.7095 28.009 28.9021C28.0358 29.7645 28.3642 30.4966 28.9591 31.0188C29.2268 31.2549 29.545 31.442 29.8952 31.5692C30.2455 31.6965 30.6209 31.7614 30.9998 31.7602C31.3788 31.7614 31.7542 31.6965 32.1046 31.5693C32.4549 31.442 32.7731 31.2549 33.0409 31.0188C33.6358 30.4966 33.9642 29.7645 33.9911 28.9021C33.9969 28.7095 34 28.5139 34 28.3196C34 26.6171 33.7658 24.9444 33.323 23.4824C32.9375 22.2107 32.4008 21.1183 31.7596 20.2941C32.6147 19.3809 33.4497 19.067 34.2751 19.1402C35.8866 19.2838 36.9689 21.4134 36.9789 21.4335C37.0283 21.5335 37.0974 21.616 37.1798 21.6732C37.2621 21.7304 37.3549 21.7604 37.4492 21.7603C37.5472 21.7601 37.6435 21.7275 37.728 21.6657C37.8126 21.6038 37.8823 21.5151 37.9301 21.4085C37.9779 21.302 38.002 21.1815 37.9999 21.0595C37.9978 20.9375 37.9695 20.8184 37.9181 20.7145C37.8627 20.6022 36.5382 17.9727 34.3623 17.7725C33.2195 17.6668 32.087 18.2465 30.9865 19.4976C29.868 18.407 28.684 17.7602 27.5 17.7602C26.042 17.7602 24.6606 18.711 23.9631 19.308C23.352 18.6015 22.4669 17.8741 21.3625 17.7724C20.1049 17.6562 18.7615 18.0979 17.5327 19.553C16.2788 18.287 14.9787 17.6869 13.6625 17.7674C11.5568 17.8965 10.2309 19.7538 10.0867 19.9649C10.0079 20.0805 9.98141 20.2206 10.013 20.3545C10.0446 20.4884 10.1317 20.605 10.2552 20.6788C10.3787 20.7525 10.5285 20.7773 10.6715 20.7478C10.7423 20.7331 10.8094 20.7056 10.8689 20.6667C10.9283 20.6278 10.979 20.5783 11.018 20.5211C11.0635 20.4546 12.1448 18.8952 13.7359 18.7984C14.737 18.7371 15.7753 19.2618 16.8255 20.3588C16.3096 21.1752 15.8772 22.2437 15.5644 23.4823C15.1945 24.9443 15 26.617 15 28.3195C15 28.5131 15.0026 28.7091 15.0078 28.902C15.0298 29.7644 15.3038 30.4966 15.7991 31.0188C16.0223 31.2549 16.2875 31.4419 16.5794 31.5692C16.8713 31.6964 17.1841 31.7614 17.4998 31.7602C17.8156 31.7614 18.1285 31.6965 18.4205 31.5692C18.7124 31.442 18.9777 31.2549 19.2009 31.0188C19.6966 30.4966 19.9702 29.7644 19.9925 28.902C19.9974 28.7091 20 28.5131 20 28.3195C20 26.617 19.8055 24.9443 19.4353 23.4823C19.1287 22.2686 18.7076 21.2181 18.2052 20.4083C19.2233 19.407 20.4163 19.064 21.2753 19.1402ZM29.2447 28.3196C29.2447 25.5303 29.9049 22.9291 30.9998 21.2845C32.0958 22.9291 32.7549 25.5303 32.7546 28.3196C32.7546 28.5039 32.7518 28.6896 32.746 28.8719C32.7075 30.1098 31.841 30.6638 30.9994 30.6638C30.1578 30.6638 29.2921 30.1098 29.2532 28.8719C29.2474 28.6896 29.2447 28.5039 29.2447 28.3196ZM23.9998 21.2845C22.9053 22.9291 22.2451 25.5303 22.2451 28.3196C22.2451 28.5033 22.2478 28.689 22.2536 28.8723C22.2925 30.1098 23.1582 30.6638 23.9998 30.6638C24.8414 30.6638 25.7079 30.1098 25.7464 28.8719C25.7522 28.689 25.7549 28.5033 25.7549 28.3196C25.7549 25.5303 25.0947 22.9291 23.9998 21.2845ZM16.0374 28.3195C16.0374 25.5302 16.5879 22.9289 17.4998 21.2843C18.4115 22.9289 18.9626 25.5302 18.9623 28.3195C18.9623 28.5032 18.9597 28.6889 18.9551 28.8719C18.923 30.1098 18.2011 30.6638 17.4998 30.6638C16.7986 30.6638 16.077 30.1098 16.0445 28.8719C16.04 28.6892 16.0374 28.5032 16.0374 28.3195Z" fill="#494B53"/>
</svg>
