<svg width="49" height="49" viewBox="0 0 49 49" fill="none" xmlns="http://www.w3.org/2000/svg">
<mask id="path-1-inside-1_716_9661" fill="white">
<path d="M41.1234 22.5124C40.8459 21.5387 40.2346 20.6817 39.3869 20.078C39.454 19.2178 39.454 15.4637 36.1393 14.2941C35.7854 14.1693 35.4555 14.0916 35.2487 14.0471C34.4084 13.5407 31.0211 11.643 28.6773 12.4941C28.0669 12.7245 27.5539 13.1413 27.2184 13.6793C24.9173 12.7162 23.4156 13.3364 20.1867 15.5504C19.305 16.0645 18.6241 16.8399 18.2483 17.758C17.8724 18.6761 17.8223 19.6863 18.1055 20.6342C18.2082 20.91 18.3452 21.1731 18.5135 21.4178C18.0312 21.5618 17.566 21.7536 17.1255 21.99C16.6009 22.2937 16.1805 22.7366 15.9158 23.2646C15.651 23.7926 15.5534 24.3827 15.6349 24.9628C14.2686 24.9369 12.908 24.7875 11.5713 24.5168C11.4796 23.714 11.0631 22.9771 10.4105 22.4626C9.66732 22.0632 8.84672 21.812 7.99858 21.7243C7.15045 21.6367 6.29247 21.7144 5.47679 21.9527C5.25678 22.0107 5.06674 22.1437 4.94275 22.3264C4.81876 22.5092 4.76945 22.729 4.80418 22.9442C4.97383 23.7563 5.34361 24.5182 5.88296 25.1671C4.71845 25.341 3.59666 25.7149 2.57207 26.2706C2.37643 26.3821 2.23046 26.5582 2.16178 26.7655C2.09311 26.9728 2.10651 27.1969 2.19943 27.3954C2.60824 28.1967 3.20483 28.8976 3.94306 29.4439C4.68129 29.9902 5.54139 30.3673 6.45683 30.5459C6.62669 30.5676 6.79783 30.5789 6.96921 30.5796C7.54633 30.5619 8.11322 30.4294 8.63361 30.1908C9.15399 29.9521 9.61642 29.6125 9.9913 29.1936C12.1706 29.0668 14.3284 28.7092 16.4249 28.1275C16.4957 28.3052 16.5609 28.4829 16.6317 28.6446L10.1776 32.0989C9.71335 31.7369 9.11828 31.5639 8.52124 31.6174C6.28541 31.827 4.42222 35.2583 4.07008 35.9424C4.00323 36.0731 3.97103 36.2174 3.97629 36.3627C3.98156 36.508 4.02413 36.6498 4.10028 36.7758C4.17643 36.9017 4.28383 37.0079 4.41305 37.0851C4.54228 37.1622 4.68937 37.2079 4.84144 37.2182C4.96068 37.2182 5.09111 37.2307 5.23271 37.2307C6.24943 37.2739 7.26429 37.1123 8.21105 36.7562C9.15782 36.4001 10.0152 35.8576 10.7273 35.1641C11.0491 34.7168 11.187 34.1722 11.1148 33.6342L17.3509 30.2882C17.6294 30.8606 18.0236 31.3749 18.5108 31.8018C18.9981 32.2287 19.5688 32.5597 20.1904 32.7759C20.7006 32.955 21.2398 33.047 21.7834 33.0478C22.072 33.0402 22.359 33.0057 22.6405 32.9447C22.6973 33.222 22.7873 33.4921 22.9088 33.7497C23.2259 34.4294 23.7073 35.0278 24.3136 35.496C24.9198 35.9643 25.6336 36.2889 26.3967 36.4435C26.808 36.5289 27.2278 36.5718 27.6488 36.5714C28.7281 36.5886 29.7892 36.3038 30.7007 35.7523C32.5993 35.6634 35.545 34.942 35.8897 32.6924C35.9509 32.3068 35.9888 31.9182 36.0033 31.5285C36.2656 31.5658 36.5301 31.5865 36.7952 31.5907C37.3772 31.6174 37.9577 31.5143 38.4907 31.2898C39.0236 31.0653 39.4944 30.7254 39.8657 30.2971C40.6342 29.1554 41.1432 27.8728 41.3598 26.5319C41.5764 25.191 41.4959 23.8217 41.1234 22.5124ZM9.17895 34.1761C8.47247 34.8208 7.5629 35.2255 6.59098 35.3276C7.28408 34.3361 8.12066 33.4405 8.70384 33.3872H8.74483C8.83053 33.3872 8.98704 33.4192 9.21249 33.6804C9.25767 33.7573 9.27854 33.845 9.27259 33.933C9.26664 34.0209 9.23412 34.1054 9.17895 34.1761ZM29.3424 14.1466C30.587 13.6989 33.0874 14.8094 34.373 15.6179C34.4762 15.682 34.5913 15.7266 34.7121 15.7494C35.4722 15.8546 36.1882 16.1543 36.784 16.6166C37.0032 16.9369 37.1868 17.2781 37.3318 17.6347C37.3318 17.6703 37.3523 17.7076 37.3635 17.7414C37.5688 18.2261 37.6331 18.7546 37.5498 19.2713C37.4337 19.8818 37.118 20.4416 36.648 20.8705C35.0912 21.8659 33.212 22.2965 31.3509 22.0842C31.2242 22.0784 31.0976 22.0965 30.9783 22.1375C30.6997 21.8039 30.3455 21.5348 29.9424 21.3503C30.5013 18.8626 30.8013 15.9627 28.8375 14.5571C28.9569 14.3735 29.1334 14.23 29.3424 14.1466ZM27.55 23.9002C27.55 23.6893 27.6156 23.4832 27.7384 23.3079C27.8613 23.1325 28.0359 22.9959 28.2401 22.9152C28.4444 22.8345 28.6692 22.8134 28.886 22.8545C29.1029 22.8957 29.3021 22.9972 29.4584 23.1463C29.6148 23.2954 29.7212 23.4854 29.7644 23.6922C29.8075 23.899 29.7854 24.1134 29.7008 24.3082C29.6161 24.503 29.4729 24.6695 29.289 24.7867C29.1052 24.9038 28.889 24.9663 28.6679 24.9663C28.3714 24.9663 28.0871 24.854 27.8775 24.6541C27.6678 24.4541 27.55 24.1829 27.55 23.9002ZM19.8644 20.0514C19.7326 19.4641 19.7977 18.8522 20.0504 18.3022C20.3032 17.7521 20.7309 17.2918 21.2729 16.9862C24.813 14.5536 25.3719 14.5749 27.6078 15.8685C28.6083 16.4513 28.7611 18.1785 28.081 21.1157C27.3074 21.2619 26.6261 21.6945 26.1862 22.3187C24.4987 21.3924 22.5673 20.9489 20.6227 21.0411C20.2726 20.7902 20.0086 20.4457 19.8644 20.0514ZM10.2112 27.3954C10.0972 27.1223 9.95228 26.8619 9.7789 26.6189C10.1556 26.5199 10.5162 26.3716 10.8502 26.1782C12.1246 26.4693 14.9115 26.502 16.2202 26.5656C14.7366 26.9186 11.7365 27.2932 10.2112 27.3954ZM9.26279 23.854C9.40481 23.9611 9.52152 24.0956 9.60532 24.2487C9.68911 24.4018 9.7381 24.5701 9.74909 24.7424C9.53631 24.8633 9.29713 24.9356 9.05022 24.9538C8.8033 24.972 8.55532 24.9355 8.32561 24.8473C7.72463 24.5509 7.24224 24.0746 6.95244 23.4915C7.74331 23.3511 8.56077 23.4793 9.26279 23.854ZM6.69532 28.7778C5.77735 28.5882 4.9591 28.0954 4.38496 27.3865C5.35999 26.9141 6.47952 26.7881 7.54307 27.0311C7.7787 27.1342 7.98901 27.2833 8.1604 27.4688C8.33178 27.6543 8.46043 27.872 8.53801 28.1079C8.30861 28.351 8.02186 28.5385 7.70145 28.655C7.38104 28.7715 7.03616 28.8136 6.69532 28.7778ZM20.8276 31.1074C20.4122 30.9665 20.0321 30.7448 19.7114 30.4563C19.3906 30.1679 19.1363 29.819 18.9644 29.4317C18.8694 29.1919 18.7502 28.9164 18.6216 28.6179C17.9192 26.9867 16.7416 24.2556 18.0626 23.5164C19.1924 22.9823 20.4468 22.7332 21.7062 22.7929C22.9655 22.8526 24.1878 23.2192 25.2564 23.8575C25.3907 23.9234 25.5396 23.9575 25.6906 23.957C25.7013 24.532 25.8964 25.0901 26.2495 25.5563C26.2163 25.5735 26.1846 25.5931 26.1545 25.6149C24.5026 27.1238 23.2921 29.0176 22.6424 31.1092C22.0554 31.3086 21.4142 31.308 20.8276 31.1074ZM34.0563 32.433C33.87 33.6768 31.1013 33.9736 30.3728 33.9842C30.1566 33.988 29.9483 34.062 29.7821 34.1939C29.3499 34.4723 28.8616 34.6619 28.3484 34.7506C27.8352 34.8393 27.3082 34.8252 26.801 34.7092C26.317 34.6168 25.8638 34.4136 25.4805 34.1171C25.0972 33.8205 24.7952 33.4395 24.6006 33.0069C23.6597 31.0523 26.3464 27.9267 27.4624 26.8836C27.557 26.7935 27.63 26.685 27.6767 26.5656C28.1722 26.7459 28.7114 26.7872 29.2306 26.6846C29.2574 26.7406 29.2905 26.7936 29.3294 26.8428C29.7081 27.2525 30.0626 27.682 30.3914 28.1293C31.0354 29.103 31.908 29.9206 32.9402 30.5175C33.3257 30.7222 33.7261 30.9003 34.1383 31.0505C34.159 31.5131 34.1284 31.9765 34.047 32.433H34.0563ZM38.405 29.1848C37.3821 30.4144 34.9897 29.581 33.8644 28.9644C33.0647 28.4891 32.3918 27.8431 31.8987 27.0773C31.5913 26.6757 31.254 26.2475 30.8516 25.805C31.3593 25.286 31.6423 24.6029 31.6435 23.8931V23.8558C31.7981 23.8558 31.9472 23.8735 32.1055 23.8735C34.2209 23.9809 36.3054 23.3534 37.9727 22.1073C38.1365 21.9484 38.2896 21.7799 38.4311 21.6026C38.8809 21.9893 39.2043 22.4915 39.3627 23.049C39.6465 24.0804 39.7079 25.1559 39.5433 26.2105C39.3787 27.2652 38.9914 28.277 38.405 29.1848Z"/>
</mask>
<path d="M41.1234 22.5124C40.8459 21.5387 40.2346 20.6817 39.3869 20.078C39.454 19.2178 39.454 15.4637 36.1393 14.2941C35.7854 14.1693 35.4555 14.0916 35.2487 14.0471C34.4084 13.5407 31.0211 11.643 28.6773 12.4941C28.0669 12.7245 27.5539 13.1413 27.2184 13.6793C24.9173 12.7162 23.4156 13.3364 20.1867 15.5504C19.305 16.0645 18.6241 16.8399 18.2483 17.758C17.8724 18.6761 17.8223 19.6863 18.1055 20.6342C18.2082 20.91 18.3452 21.1731 18.5135 21.4178C18.0312 21.5618 17.566 21.7536 17.1255 21.99C16.6009 22.2937 16.1805 22.7366 15.9158 23.2646C15.651 23.7926 15.5534 24.3827 15.6349 24.9628C14.2686 24.9369 12.908 24.7875 11.5713 24.5168C11.4796 23.714 11.0631 22.9771 10.4105 22.4626C9.66732 22.0632 8.84672 21.812 7.99858 21.7243C7.15045 21.6367 6.29247 21.7144 5.47679 21.9527C5.25678 22.0107 5.06674 22.1437 4.94275 22.3264C4.81876 22.5092 4.76945 22.729 4.80418 22.9442C4.97383 23.7563 5.34361 24.5182 5.88296 25.1671C4.71845 25.341 3.59666 25.7149 2.57207 26.2706C2.37643 26.3821 2.23046 26.5582 2.16178 26.7655C2.09311 26.9728 2.10651 27.1969 2.19943 27.3954C2.60824 28.1967 3.20483 28.8976 3.94306 29.4439C4.68129 29.9902 5.54139 30.3673 6.45683 30.5459C6.62669 30.5676 6.79783 30.5789 6.96921 30.5796C7.54633 30.5619 8.11322 30.4294 8.63361 30.1908C9.15399 29.9521 9.61642 29.6125 9.9913 29.1936C12.1706 29.0668 14.3284 28.7092 16.4249 28.1275C16.4957 28.3052 16.5609 28.4829 16.6317 28.6446L10.1776 32.0989C9.71335 31.7369 9.11828 31.5639 8.52124 31.6174C6.28541 31.827 4.42222 35.2583 4.07008 35.9424C4.00323 36.0731 3.97103 36.2174 3.97629 36.3627C3.98156 36.508 4.02413 36.6498 4.10028 36.7758C4.17643 36.9017 4.28383 37.0079 4.41305 37.0851C4.54228 37.1622 4.68937 37.2079 4.84144 37.2182C4.96068 37.2182 5.09111 37.2307 5.23271 37.2307C6.24943 37.2739 7.26429 37.1123 8.21105 36.7562C9.15782 36.4001 10.0152 35.8576 10.7273 35.1641C11.0491 34.7168 11.187 34.1722 11.1148 33.6342L17.3509 30.2882C17.6294 30.8606 18.0236 31.3749 18.5108 31.8018C18.9981 32.2287 19.5688 32.5597 20.1904 32.7759C20.7006 32.955 21.2398 33.047 21.7834 33.0478C22.072 33.0402 22.359 33.0057 22.6405 32.9447C22.6973 33.222 22.7873 33.4921 22.9088 33.7497C23.2259 34.4294 23.7073 35.0278 24.3136 35.496C24.9198 35.9643 25.6336 36.2889 26.3967 36.4435C26.808 36.5289 27.2278 36.5718 27.6488 36.5714C28.7281 36.5886 29.7892 36.3038 30.7007 35.7523C32.5993 35.6634 35.545 34.942 35.8897 32.6924C35.9509 32.3068 35.9888 31.9182 36.0033 31.5285C36.2656 31.5658 36.5301 31.5865 36.7952 31.5907C37.3772 31.6174 37.9577 31.5143 38.4907 31.2898C39.0236 31.0653 39.4944 30.7254 39.8657 30.2971C40.6342 29.1554 41.1432 27.8728 41.3598 26.5319C41.5764 25.191 41.4959 23.8217 41.1234 22.5124ZM9.17895 34.1761C8.47247 34.8208 7.5629 35.2255 6.59098 35.3276C7.28408 34.3361 8.12066 33.4405 8.70384 33.3872H8.74483C8.83053 33.3872 8.98704 33.4192 9.21249 33.6804C9.25767 33.7573 9.27854 33.845 9.27259 33.933C9.26664 34.0209 9.23412 34.1054 9.17895 34.1761ZM29.3424 14.1466C30.587 13.6989 33.0874 14.8094 34.373 15.6179C34.4762 15.682 34.5913 15.7266 34.7121 15.7494C35.4722 15.8546 36.1882 16.1543 36.784 16.6166C37.0032 16.9369 37.1868 17.2781 37.3318 17.6347C37.3318 17.6703 37.3523 17.7076 37.3635 17.7414C37.5688 18.2261 37.6331 18.7546 37.5498 19.2713C37.4337 19.8818 37.118 20.4416 36.648 20.8705C35.0912 21.8659 33.212 22.2965 31.3509 22.0842C31.2242 22.0784 31.0976 22.0965 30.9783 22.1375C30.6997 21.8039 30.3455 21.5348 29.9424 21.3503C30.5013 18.8626 30.8013 15.9627 28.8375 14.5571C28.9569 14.3735 29.1334 14.23 29.3424 14.1466ZM27.55 23.9002C27.55 23.6893 27.6156 23.4832 27.7384 23.3079C27.8613 23.1325 28.0359 22.9959 28.2401 22.9152C28.4444 22.8345 28.6692 22.8134 28.886 22.8545C29.1029 22.8957 29.3021 22.9972 29.4584 23.1463C29.6148 23.2954 29.7212 23.4854 29.7644 23.6922C29.8075 23.899 29.7854 24.1134 29.7008 24.3082C29.6161 24.503 29.4729 24.6695 29.289 24.7867C29.1052 24.9038 28.889 24.9663 28.6679 24.9663C28.3714 24.9663 28.0871 24.854 27.8775 24.6541C27.6678 24.4541 27.55 24.1829 27.55 23.9002ZM19.8644 20.0514C19.7326 19.4641 19.7977 18.8522 20.0504 18.3022C20.3032 17.7521 20.7309 17.2918 21.2729 16.9862C24.813 14.5536 25.3719 14.5749 27.6078 15.8685C28.6083 16.4513 28.7611 18.1785 28.081 21.1157C27.3074 21.2619 26.6261 21.6945 26.1862 22.3187C24.4987 21.3924 22.5673 20.9489 20.6227 21.0411C20.2726 20.7902 20.0086 20.4457 19.8644 20.0514ZM10.2112 27.3954C10.0972 27.1223 9.95228 26.8619 9.7789 26.6189C10.1556 26.5199 10.5162 26.3716 10.8502 26.1782C12.1246 26.4693 14.9115 26.502 16.2202 26.5656C14.7366 26.9186 11.7365 27.2932 10.2112 27.3954ZM9.26279 23.854C9.40481 23.9611 9.52152 24.0956 9.60532 24.2487C9.68911 24.4018 9.7381 24.5701 9.74909 24.7424C9.53631 24.8633 9.29713 24.9356 9.05022 24.9538C8.8033 24.972 8.55532 24.9355 8.32561 24.8473C7.72463 24.5509 7.24224 24.0746 6.95244 23.4915C7.74331 23.3511 8.56077 23.4793 9.26279 23.854ZM6.69532 28.7778C5.77735 28.5882 4.9591 28.0954 4.38496 27.3865C5.35999 26.9141 6.47952 26.7881 7.54307 27.0311C7.7787 27.1342 7.98901 27.2833 8.1604 27.4688C8.33178 27.6543 8.46043 27.872 8.53801 28.1079C8.30861 28.351 8.02186 28.5385 7.70145 28.655C7.38104 28.7715 7.03616 28.8136 6.69532 28.7778ZM20.8276 31.1074C20.4122 30.9665 20.0321 30.7448 19.7114 30.4563C19.3906 30.1679 19.1363 29.819 18.9644 29.4317C18.8694 29.1919 18.7502 28.9164 18.6216 28.6179C17.9192 26.9867 16.7416 24.2556 18.0626 23.5164C19.1924 22.9823 20.4468 22.7332 21.7062 22.7929C22.9655 22.8526 24.1878 23.2192 25.2564 23.8575C25.3907 23.9234 25.5396 23.9575 25.6906 23.957C25.7013 24.532 25.8964 25.0901 26.2495 25.5563C26.2163 25.5735 26.1846 25.5931 26.1545 25.6149C24.5026 27.1238 23.2921 29.0176 22.6424 31.1092C22.0554 31.3086 21.4142 31.308 20.8276 31.1074ZM34.0563 32.433C33.87 33.6768 31.1013 33.9736 30.3728 33.9842C30.1566 33.988 29.9483 34.062 29.7821 34.1939C29.3499 34.4723 28.8616 34.6619 28.3484 34.7506C27.8352 34.8393 27.3082 34.8252 26.801 34.7092C26.317 34.6168 25.8638 34.4136 25.4805 34.1171C25.0972 33.8205 24.7952 33.4395 24.6006 33.0069C23.6597 31.0523 26.3464 27.9267 27.4624 26.8836C27.557 26.7935 27.63 26.685 27.6767 26.5656C28.1722 26.7459 28.7114 26.7872 29.2306 26.6846C29.2574 26.7406 29.2905 26.7936 29.3294 26.8428C29.7081 27.2525 30.0626 27.682 30.3914 28.1293C31.0354 29.103 31.908 29.9206 32.9402 30.5175C33.3257 30.7222 33.7261 30.9003 34.1383 31.0505C34.159 31.5131 34.1284 31.9765 34.047 32.433H34.0563ZM38.405 29.1848C37.3821 30.4144 34.9897 29.581 33.8644 28.9644C33.0647 28.4891 32.3918 27.8431 31.8987 27.0773C31.5913 26.6757 31.254 26.2475 30.8516 25.805C31.3593 25.286 31.6423 24.6029 31.6435 23.8931V23.8558C31.7981 23.8558 31.9472 23.8735 32.1055 23.8735C34.2209 23.9809 36.3054 23.3534 37.9727 22.1073C38.1365 21.9484 38.2896 21.7799 38.4311 21.6026C38.8809 21.9893 39.2043 22.4915 39.3627 23.049C39.6465 24.0804 39.7079 25.1559 39.5433 26.2105C39.3787 27.2652 38.9914 28.277 38.405 29.1848Z" fill="#494B53" stroke="white" stroke-width="0.9" mask="url(#path-1-inside-1_716_9661)"/>
</svg>
