<svg width="49" height="49" viewBox="0 0 49 49" fill="none" xmlns="http://www.w3.org/2000/svg">
<path fill-rule="evenodd" clip-rule="evenodd" d="M31.836 12.559C31.2083 12.7172 30.6555 13.1225 30.2917 13.6912L30.1105 13.9746L29.6196 13.7823C28.9173 13.5073 28.3983 13.4129 27.7804 13.4479C26.6725 13.5106 25.6635 13.9775 23.4523 15.4507C22.5321 16.0637 22.1009 16.4462 21.7723 16.9405C21.2772 17.6853 21.0773 18.3978 21.1148 19.2842C21.1452 20.0027 21.2554 20.3452 21.653 20.9569L21.9457 21.4072L21.494 21.5423C20.8519 21.7343 20.2918 21.9686 19.9614 22.1836C19.1302 22.7245 18.6813 23.6687 18.8038 24.619C18.8807 25.2153 18.9935 25.1551 17.8634 25.1207C16.6247 25.0829 15.1971 24.9159 14.0929 24.6793L13.8607 24.6295L13.8259 24.345C13.7095 23.3953 13.1966 22.6881 12.3836 22.3566C11.1014 21.8339 9.59537 21.7416 8.36141 22.1103C8.15857 22.1709 8.0811 22.2236 8.01928 22.3431C7.94601 22.4847 7.94621 22.5249 8.02123 22.8288C8.15726 23.38 8.54366 24.1027 9.01397 24.6855C9.24703 24.9744 9.43348 25.2155 9.42838 25.2214C9.42323 25.2273 9.12825 25.2788 8.77297 25.3358C8.00333 25.4593 7.2991 25.6326 6.76402 25.8302C6.18358 26.0446 5.52427 26.3596 5.40384 26.48C5.24655 26.6373 5.26911 26.8631 5.47656 27.2071C6.17183 28.3602 7.24079 29.2052 8.55566 29.6414C9.16326 29.8429 9.71935 29.8823 10.2992 29.7647C11.0704 29.6085 11.5909 29.3381 12.1518 28.8024C12.5182 28.4525 12.3743 28.4927 13.6499 28.3839C15.1172 28.2588 16.6998 27.9877 18.3636 27.5764C18.9345 27.4352 19.4086 27.3291 19.4172 27.3405C19.4656 27.4042 19.861 28.4267 19.868 28.5063C19.8748 28.583 19.2048 28.9609 16.3532 30.4887L12.8301 32.3764L12.6523 32.2343C12.5545 32.1561 12.3395 32.0297 12.1745 31.9533C11.7552 31.7593 11.1691 31.7567 10.7102 31.9468C9.59642 32.4082 8.54566 33.5204 7.45594 35.3913C7.0928 36.0148 7.0703 36.1639 7.30901 36.3648L7.4698 36.5L8.39677 36.4737C9.38542 36.4458 9.75786 36.3863 10.5096 36.1364C11.7345 35.7292 12.9883 34.8788 13.2519 34.2764C13.3469 34.0593 13.3662 33.9319 13.3615 33.5539L13.3558 33.0951L15.9909 31.6814C17.4402 30.9039 18.9923 30.0711 19.4399 29.8309L20.2538 29.3941L20.4094 29.703C20.6629 30.206 20.8962 30.541 21.2466 30.9052C22.3179 32.0185 23.8859 32.5262 25.2977 32.2167C25.5012 32.1721 25.6753 32.1432 25.6846 32.1525C25.6939 32.1618 25.7574 32.3898 25.8258 32.6593C26.0864 33.6865 26.7596 34.5593 27.7562 35.1618C28.5571 35.6459 29.5048 35.8661 30.604 35.8235C31.4548 35.7904 32.0841 35.6369 32.7828 35.2919C33.2417 35.0653 33.3336 35.0385 33.826 34.9885C35.2446 34.8442 36.4009 34.4599 37.1806 33.8737C37.9281 33.3117 38.1712 32.7421 38.2385 31.3946L38.2719 30.7268L38.4765 30.7601C39.9832 31.0059 41.1143 30.7624 41.9403 30.0148C42.4279 29.5735 43.0529 28.3616 43.3868 27.2099C43.6406 26.3343 43.7202 25.6549 43.6943 24.5855C43.643 22.4662 43.1574 21.2322 42.0185 20.3271L41.6509 20.035L41.6361 19.247C41.5859 16.5556 40.3347 14.7962 38.1059 14.2828C37.9546 14.248 37.5944 14.0878 37.3055 13.9268C36.2626 13.3458 34.9344 12.8149 34.0049 12.6075C33.477 12.4897 32.2223 12.4616 31.836 12.559ZM33.6444 13.411C34.5322 13.5914 35.8321 14.1055 36.8706 14.687C37.2824 14.9177 37.5285 15.0199 37.8308 15.0859C38.7799 15.2933 39.676 15.7776 39.9738 16.2437C40.2257 16.6383 40.4253 17.0583 40.5868 17.5338C40.7148 17.9104 40.7312 18.0273 40.7303 18.559C40.7294 19.0817 40.7121 19.2066 40.5964 19.526C40.4141 20.0292 40.1859 20.397 39.8313 20.7591C39.5815 21.0141 39.4181 21.121 38.856 21.3969C37.4401 22.0922 36.0265 22.3918 34.5442 22.3108C34.1136 22.2873 33.8525 22.2945 33.7357 22.333C33.5641 22.3896 33.5612 22.388 33.2158 22.0426C32.9668 21.7936 32.7623 21.6442 32.4933 21.5148L32.1182 21.3344L32.2109 20.947C32.2618 20.7339 32.3645 20.2107 32.4391 19.7843C32.6154 18.7762 32.6381 17.2613 32.4867 16.6086C32.2924 15.7712 31.8878 15.1136 31.296 14.6735C31.108 14.5337 30.9541 14.4081 30.9541 14.3946C30.9541 14.3352 31.183 13.9938 31.3245 13.8421C31.5172 13.6355 31.7497 13.4895 32.0206 13.4047C32.3112 13.3139 33.1826 13.3173 33.6444 13.411ZM28.726 14.3595C29.4158 14.5391 30.5424 15.123 30.9192 15.4959C31.2129 15.7868 31.4696 16.3132 31.5766 16.844C31.6759 17.337 31.6767 18.281 31.5784 19.0754C31.4972 19.7308 31.2212 21.1354 31.1615 21.1965C31.1417 21.2167 30.9483 21.2787 30.7316 21.3341C30.0976 21.4962 29.6623 21.7901 29.2754 22.317C29.1456 22.4939 29.0249 22.6322 29.0073 22.6243C28.9897 22.6165 28.7285 22.4832 28.4268 22.3281C27.0057 21.5975 25.4954 21.2347 23.8758 21.2347H23.154L22.8026 20.9031C22.2992 20.4283 22.0971 20.0082 22.0636 19.3672C22.0323 18.7693 22.1371 18.2751 22.4115 17.727C22.7235 17.1035 23.0958 16.7465 24.1947 16.0169C25.7605 14.9773 26.4657 14.5928 27.1792 14.3895C27.6124 14.2661 28.3152 14.2524 28.726 14.3595ZM41.563 21.1032C42.1737 21.7066 42.4383 22.2185 42.6392 23.1852C43.0216 25.0248 42.7081 27.0307 41.7792 28.6901C41.2125 29.7023 40.5796 30.0298 39.2983 29.9737C38.5794 29.9423 37.9948 29.8064 37.176 29.4802C35.9905 29.0081 35.1931 28.3609 34.2539 27.1088C33.9847 26.7499 33.5811 26.2485 33.3569 25.9945L32.9493 25.5327L33.2262 25.2218C33.688 24.7034 33.9048 24.1416 33.9048 23.4633V23.1461L35.1926 23.1213C36.2618 23.1008 36.5654 23.0782 36.9806 22.9881C38.0877 22.748 39.2705 22.2562 40.0806 21.6991C40.283 21.5599 40.563 21.2984 40.7497 21.0742C41.001 20.7722 41.0881 20.6981 41.1512 20.7322C41.1954 20.7562 41.3807 20.9231 41.563 21.1032ZM25.4778 22.1851C26.2172 22.3116 27.0256 22.582 27.7332 22.9397C28.23 23.1908 28.3581 23.2352 28.5857 23.2352H28.8536V23.5011C28.8536 24.1263 29.0443 24.6618 29.4498 25.1747L29.6545 25.4337L29.4062 25.5595C28.9146 25.8087 27.756 27.1152 27.0944 28.1668C26.5565 29.0216 25.9064 30.4336 25.7808 31.0198C25.7578 31.127 25.704 31.1946 25.6124 31.2314C24.4881 31.6817 23.0559 31.3848 22.1047 30.5043C21.6097 30.0459 21.4272 29.741 20.8814 28.4611C20.0173 26.4345 19.736 25.4722 19.7338 24.5355C19.731 23.3754 20.0649 22.9685 21.409 22.4941C22.6568 22.0537 24.0782 21.9457 25.4778 22.1851ZM32.0898 22.2878C33.2365 22.847 33.2281 24.4251 32.0755 24.9887C31.7209 25.1621 31.1789 25.1819 30.7896 25.0357C30.4024 24.8903 30.0497 24.5378 29.9032 24.1499C29.6491 23.477 29.9203 22.7141 30.5433 22.349C31.0581 22.0473 31.5561 22.0275 32.0898 22.2878ZM11.2907 22.8394C12.3047 23.0984 12.7817 23.5525 12.8973 24.3692C12.9519 24.7546 12.9755 24.72 12.5018 24.9488C12.0905 25.1474 11.5222 25.193 11.0758 25.0632C10.3939 24.865 9.65508 24.1955 9.23308 23.3935C9.10065 23.1418 9.00487 22.9156 9.02028 22.8907C9.03563 22.8659 9.24523 22.8187 9.48604 22.7859C9.7269 22.7532 9.95771 22.7186 9.99897 22.7091C10.1608 22.6718 10.9433 22.7507 11.2907 22.8394ZM13.9374 25.5094C14.5846 25.6184 15.239 25.6746 16.5506 25.7339C17.197 25.7631 18.0005 25.8002 18.3362 25.8163L18.9465 25.8456L18.972 26.0533C18.986 26.1675 19.0107 26.3667 19.027 26.4958L19.0565 26.7308L18.8505 26.7862C18.007 27.0134 13.6908 27.5868 12.8291 27.5861L12.6246 27.586L12.4404 27.1985C12.3391 26.9854 12.1421 26.6541 12.0028 26.4623C11.8634 26.2706 11.7494 26.0986 11.7494 26.0803C11.7494 26.062 11.8338 26.0313 11.9369 26.012C12.2661 25.9506 13.0179 25.69 13.2248 25.5655C13.4715 25.417 13.4152 25.4215 13.9374 25.5094ZM30.5861 25.8673C30.9608 25.9841 31.0648 25.996 31.5186 25.9735C31.7995 25.9596 32.0676 25.9322 32.1144 25.9127C32.1791 25.8856 32.2162 25.917 32.2695 26.044C32.3081 26.1358 32.5002 26.3968 32.6965 26.6239C32.8927 26.851 33.2759 27.3349 33.5479 27.6991C34.5236 29.0056 35.5257 29.7877 36.8681 30.2903L37.3057 30.4542V31.0736C37.3057 31.797 37.2337 32.3283 37.0961 32.6213C36.7206 33.421 35.2944 34.0127 33.3797 34.1633C32.9799 34.1947 32.8933 34.2201 32.6045 34.3912C31.8638 34.8299 31.0898 35.0159 30.1803 34.9739C28.5584 34.8989 27.3746 34.1099 26.8186 32.7333C26.2432 31.3089 27.2093 29.078 29.4292 26.7049C29.7376 26.3753 29.9833 26.0645 30.0322 25.9422C30.0776 25.8287 30.1259 25.7358 30.1395 25.7358C30.1531 25.7358 30.3541 25.795 30.5861 25.8673ZM10.0548 26.2573C10.4898 26.335 10.574 26.3723 10.9365 26.6483C11.2391 26.8785 11.5532 27.3215 11.6759 27.6908L11.7608 27.9466L11.4987 28.2121C10.8935 28.8248 9.9237 29.1117 9.13195 28.9122C8.15311 28.6655 7.34297 28.1503 6.70356 27.3678C6.53552 27.1622 6.39808 26.9799 6.39808 26.9628C6.39808 26.9167 7.17032 26.5699 7.56507 26.4386C8.30485 26.1927 9.29004 26.121 10.0548 26.2573ZM11.8422 32.7592C12.0714 32.8784 12.3479 33.1959 12.4041 33.4044C12.4638 33.6263 12.4287 33.8985 12.3159 34.0879C12.1069 34.4389 11.0753 35.068 10.324 35.3028C9.76736 35.4766 8.39857 35.6703 8.39857 35.5752C8.39857 35.5083 9.3011 34.2548 9.59557 33.9128C10.4951 32.868 11.2782 32.4659 11.8422 32.7592Z" fill="#494B53"/>
</svg>
