<svg width="49" height="49" viewBox="0 0 49 49" fill="none" xmlns="http://www.w3.org/2000/svg">
<mask id="path-1-inside-1_716_9687" fill="white">
<path d="M42.3642 19.7518C40.9483 18.5558 39.0205 18.0918 36.9587 18.4429C36.006 18.572 35.0517 18.6837 34.0957 18.7779C33.7789 18.4905 33.3666 18.3312 32.9388 18.3308C32.5111 18.3305 32.0985 18.4892 31.7812 18.7761C31.4643 18.4895 31.0523 18.3308 30.625 18.3308C30.1977 18.3308 29.7857 18.4895 29.4688 18.7761C29.1518 18.4895 28.7398 18.3308 28.3125 18.3308C27.8852 18.3308 27.4732 18.4895 27.1562 18.7761C26.8393 18.4895 26.4273 18.3308 26 18.3308C25.5727 18.3308 25.1607 18.4895 24.8438 18.7761C24.5268 18.4895 24.1148 18.3308 23.6875 18.3308C23.2602 18.3308 22.8482 18.4895 22.5312 18.7761C22.2143 18.4895 21.8023 18.3308 21.375 18.3308C20.9477 18.3308 20.5357 18.4895 20.2188 18.7761C19.9014 18.4891 19.4886 18.3304 19.0607 18.3308C18.6328 18.3313 18.2204 18.4908 17.9036 18.7785C16.9542 18.6843 16.0065 18.5734 15.0605 18.4457C12.9795 18.092 11.052 18.5555 9.63607 19.7515C8.2585 20.9147 7.49971 22.6798 7.5 24.7211C7.49971 26.7617 8.25821 28.5261 9.63579 29.6891C10.7838 30.6351 12.2323 31.1394 13.7196 31.1109C14.1657 31.11 14.6109 31.0719 15.0506 30.9968C16.0002 30.8681 16.9513 30.7568 17.9041 30.6628C18.2209 30.9503 18.6332 31.1097 19.061 31.11C19.4888 31.1104 19.9015 30.9517 20.2188 30.6648C20.5357 30.9514 20.9477 31.11 21.375 31.11C21.8023 31.11 22.2143 30.9514 22.5312 30.6648C22.8482 30.9514 23.2602 31.11 23.6875 31.11C24.1148 31.11 24.5268 30.9514 24.8438 30.6648C25.1607 30.9514 25.5727 31.11 26 31.11C26.4273 31.11 26.8393 30.9514 27.1562 30.6648C27.404 30.8889 27.7115 31.0362 28.0414 31.0887C28.3713 31.1411 28.7094 31.0965 29.0144 30.9603C28.6789 31.5991 28.0208 32.2727 26.7255 32.5558C26.5757 32.5886 26.4451 32.6795 26.3623 32.8085C26.2795 32.9376 26.2513 33.0942 26.284 33.244C26.3193 33.3923 26.4107 33.5212 26.5391 33.6035C26.6674 33.6858 26.8227 33.7152 26.9722 33.6855C28.8642 33.272 29.81 32.1335 30.2295 31.0628C30.6467 31.1629 31.0864 31.1027 31.4614 30.8941C31.3092 32.2641 30.609 33.8097 28.4172 34.5475C28.3453 34.5717 28.2788 34.6098 28.2216 34.6597C28.1644 34.7096 28.1175 34.7703 28.0838 34.8383C28.05 34.9063 28.03 34.9803 28.0248 35.056C28.0196 35.1317 28.0294 35.2078 28.0536 35.2797C28.1044 35.4237 28.2093 35.5422 28.346 35.6101C28.4827 35.6779 28.6405 35.6899 28.7859 35.6433C31.4007 34.7631 32.3851 32.8794 32.6086 31.0778C32.8718 31.1295 33.1435 31.1189 33.4018 31.0467C33.6602 30.9746 33.898 30.8429 34.0964 30.6624C35.0458 30.7566 35.9935 30.8675 36.9395 30.9951C39.023 31.3494 40.9482 30.8848 42.3642 29.6891C43.7415 28.5256 44.5003 26.7608 44.5 24.7197C44.5003 22.6792 43.7418 20.9147 42.3642 19.7518ZM32.3594 29.3758V20.0651C32.3594 19.9118 32.4203 19.7647 32.5287 19.6563C32.6371 19.5479 32.7842 19.487 32.9375 19.487C33.0908 19.487 33.2379 19.5479 33.3463 19.6563C33.4547 19.7647 33.5156 19.9118 33.5156 20.0651V29.3758C33.5156 29.5291 33.4547 29.6761 33.3463 29.7846C33.2379 29.893 33.0908 29.9539 32.9375 29.9539C32.7842 29.9539 32.6371 29.893 32.5287 29.7846C32.4203 29.6761 32.3594 29.5291 32.3594 29.3758ZM34.6719 24.138C35.4959 24.0174 36.3194 23.8846 37.1416 23.7292C37.2897 23.6865 37.4456 23.6781 37.5974 23.7047C37.7493 23.7312 37.893 23.7921 38.0178 23.8825C38.2162 24.0247 38.3577 24.2326 38.4171 24.4693C38.4765 24.706 38.45 24.9561 38.3423 25.1751C38.2346 25.3941 38.0527 25.5677 37.8289 25.6652C37.6052 25.7626 37.3541 25.7774 37.1204 25.7071C36.3056 25.5531 35.4891 25.4213 34.6719 25.3017V24.138ZM34.6719 26.4689C35.4105 26.5794 36.1484 26.6997 36.8847 26.8387C37.0681 26.8811 37.2557 26.9028 37.4439 26.9034C37.9132 26.909 38.3701 26.7533 38.7382 26.4622C38.9845 26.2437 39.1816 25.9756 39.3167 25.6754C39.4517 25.3752 39.5215 25.0497 39.5216 24.7206C39.5216 24.3914 39.4519 24.0659 39.317 23.7657C39.182 23.4654 38.985 23.1972 38.7388 22.9787C38.4825 22.7797 38.1842 22.6419 37.8665 22.5758C37.5488 22.5098 37.2203 22.5172 36.9059 22.5976C36.1623 22.7381 35.4174 22.8594 34.6719 22.9707V22.0213C35.4943 21.921 36.3162 21.8109 37.1368 21.6814C37.5965 21.5706 38.0751 21.5641 38.5376 21.6623C39.0001 21.7604 39.4348 21.9608 39.8098 22.2487C40.158 22.5574 40.4326 22.9403 40.6134 23.369C40.7942 23.7978 40.8766 24.2617 40.8545 24.7265C40.8753 25.1894 40.7923 25.6511 40.6115 26.0777C40.4307 26.5043 40.1568 26.8851 39.8098 27.1921C39.4346 27.4798 38.9999 27.68 38.5375 27.7781C38.075 27.8762 37.5965 27.8698 37.1368 27.7592L37.1168 27.7558C36.3031 27.6274 35.4878 27.5181 34.6719 27.4185V26.4689ZM19.6406 29.3758C19.6406 29.5291 19.5797 29.6761 19.4713 29.7846C19.3629 29.893 19.2158 29.9539 19.0625 29.9539C18.9092 29.9539 18.7621 29.893 18.6537 29.7846C18.5453 29.6761 18.4844 29.5291 18.4844 29.3758V20.0651C18.4844 19.9118 18.5453 19.7647 18.6537 19.6563C18.7621 19.5479 18.9092 19.487 19.0625 19.487C19.2158 19.487 19.3629 19.5479 19.4713 19.6563C19.5797 19.7647 19.6406 19.9118 19.6406 20.0651V29.3758ZM17.3281 25.3016C16.511 25.4213 15.6945 25.5531 14.8796 25.7071C14.8725 25.7082 14.8654 25.7096 14.8584 25.7113C14.7103 25.754 14.5544 25.7623 14.4026 25.7357C14.2508 25.7092 14.107 25.6484 13.9822 25.5581C13.872 25.4481 13.7845 25.3175 13.7249 25.1737C13.6653 25.0299 13.6346 24.8757 13.6347 24.72C13.6347 24.5643 13.6655 24.4102 13.7252 24.2664C13.785 24.1227 13.8725 23.9921 13.9827 23.8822C14.1482 23.7555 14.3523 23.6897 14.5606 23.6959C14.668 23.6966 14.775 23.7092 14.8796 23.7335C15.6944 23.8874 16.5109 24.0192 17.3281 24.1389L17.3281 25.3016ZM17.3281 22.9716C16.5895 22.8612 15.8516 22.7409 15.1153 22.6019C14.7981 22.5189 14.4661 22.5097 14.1448 22.575C13.8235 22.6402 13.5214 22.7783 13.2618 22.9784C13.0155 23.1968 12.8184 23.465 12.6834 23.7652C12.5484 24.0654 12.4785 24.3908 12.4784 24.72C12.4783 25.0491 12.548 25.3746 12.6829 25.6748C12.8178 25.9751 13.0148 26.2433 13.2609 26.4619C13.5192 26.6609 13.8194 26.7984 14.1387 26.8642C14.458 26.9299 14.7881 26.9221 15.104 26.8413C15.8443 26.7015 16.5859 26.5807 17.3281 26.4698V27.4193C16.5057 27.5195 15.6838 27.6297 14.8632 27.7592C14.4036 27.8701 13.925 27.8767 13.4624 27.7786C12.9999 27.6805 12.5652 27.4801 12.1902 27.1921C11.842 26.8834 11.5674 26.5006 11.3866 26.0718C11.2058 25.643 11.1234 25.1792 11.1455 24.7144C11.1247 24.2514 11.2077 23.7897 11.3885 23.363C11.5692 22.9364 11.8432 22.5555 12.1902 22.2485C12.7311 21.8172 13.4066 21.59 14.0982 21.6069C14.3618 21.6077 14.6246 21.6338 14.8832 21.6848C15.6969 21.8132 16.5122 21.9225 17.3281 22.0221L17.3281 22.9716ZM14.8861 29.8525C14.8796 29.8534 14.8734 29.8542 14.8669 29.8553C13.1263 30.1503 11.5333 29.7783 10.3819 28.8059C9.26881 27.8662 8.65625 26.4156 8.65625 24.7211C8.65625 23.0258 9.2691 21.5747 10.3822 20.635C11.3241 19.8657 12.5103 19.4589 13.7261 19.4881C14.1149 19.489 14.5029 19.5225 14.8861 19.5883C15.7022 19.6991 16.52 19.7932 17.3385 19.8789C17.3317 19.9408 17.3283 20.0029 17.3281 20.0651V20.859C16.5788 20.7657 15.8303 20.664 15.0834 20.5461C14.4564 20.4013 13.8049 20.3989 13.1769 20.5392C12.5489 20.6794 11.9604 20.9587 11.4546 21.3565C10.9736 21.7726 10.5921 22.2915 10.3385 22.8748C10.0849 23.4581 9.96552 24.0909 9.98921 24.7265C9.96669 25.3601 10.0867 25.9907 10.3403 26.5719C10.5939 27.153 10.9747 27.6697 11.4546 28.0841C12.1997 28.6869 13.1328 29.0088 14.0911 28.9936C14.4175 28.9929 14.7431 28.9609 15.0633 28.8979C15.8171 28.7789 16.5723 28.6763 17.3281 28.5823V29.3758C17.3283 29.438 17.3317 29.5001 17.3385 29.5619C16.52 29.6476 15.7022 29.7418 14.8861 29.8525ZM21.375 29.9539C21.2217 29.9537 21.0748 29.8927 20.9664 29.7843C20.8581 29.676 20.7971 29.529 20.7969 29.3758V20.0651C20.7969 19.9118 20.8578 19.7647 20.9662 19.6563C21.0746 19.5479 21.2217 19.487 21.375 19.487C21.5283 19.487 21.6754 19.5479 21.7838 19.6563C21.8922 19.7647 21.9531 19.9118 21.9531 20.0651V29.3758C21.9529 29.529 21.8919 29.676 21.7836 29.7843C21.6752 29.8927 21.5283 29.9537 21.375 29.9539ZM23.6875 29.9539C23.5342 29.9537 23.3873 29.8927 23.2789 29.7843C23.1706 29.676 23.1096 29.529 23.1094 29.3758V20.0651C23.1094 19.9118 23.1703 19.7647 23.2787 19.6563C23.3871 19.5479 23.5342 19.487 23.6875 19.487C23.8408 19.487 23.9879 19.5479 24.0963 19.6563C24.2047 19.7647 24.2656 19.9118 24.2656 20.0651V29.3758C24.2654 29.529 24.2044 29.676 24.0961 29.7843C23.9877 29.8927 23.8408 29.9537 23.6875 29.9539ZM26 29.9539C25.8467 29.9537 25.6998 29.8927 25.5914 29.7843C25.4831 29.676 25.4221 29.529 25.4219 29.3758V20.0651C25.4219 19.9118 25.4828 19.7647 25.5912 19.6563C25.6996 19.5479 25.8467 19.487 26 19.487C26.1533 19.487 26.3004 19.5479 26.4088 19.6563C26.5172 19.7647 26.5781 19.9118 26.5781 20.0651V29.3758C26.5779 29.529 26.5169 29.676 26.4086 29.7843C26.3002 29.8927 26.1533 29.9537 26 29.9539ZM28.3125 29.9539C28.1592 29.9537 28.0123 29.8927 27.9039 29.7843C27.7956 29.676 27.7346 29.529 27.7344 29.3758V20.0651C27.7344 19.9118 27.7953 19.7647 27.9037 19.6563C28.0121 19.5479 28.1592 19.487 28.3125 19.487C28.4658 19.487 28.6129 19.5479 28.7213 19.6563C28.8297 19.7647 28.8906 19.9118 28.8906 20.0651V29.3758C28.8904 29.529 28.8294 29.676 28.7211 29.7843C28.6127 29.8927 28.4658 29.9537 28.3125 29.9539ZM30.625 29.9539C30.4717 29.9537 30.3248 29.8927 30.2164 29.7843C30.1081 29.676 30.0471 29.529 30.0469 29.3758V20.0651C30.0469 19.9118 30.1078 19.7647 30.2162 19.6563C30.3246 19.5479 30.4717 19.487 30.625 19.487C30.7783 19.487 30.9254 19.5479 31.0338 19.6563C31.1422 19.7647 31.2031 19.9118 31.2031 20.0651V29.3758C31.2029 29.529 31.1419 29.676 31.0336 29.7843C30.9252 29.8927 30.7783 29.9537 30.625 29.9539ZM41.6181 28.8056C40.4667 29.778 38.8737 30.1495 37.114 29.8525C36.2978 29.7418 35.48 29.6476 34.6615 29.5619C34.6683 29.5001 34.6717 29.438 34.6719 29.3758V28.5824C35.4245 28.676 36.1764 28.7781 36.9271 28.8965C37.5526 29.0394 38.2022 29.0407 38.8283 28.9001C39.4543 28.7596 40.041 28.4807 40.5454 28.0841C41.0264 27.668 41.4079 27.1492 41.6615 26.5659C41.9151 25.9827 42.0345 25.3499 42.0108 24.7144C42.0333 24.0808 41.9133 23.4502 41.6598 22.8691C41.4062 22.288 41.0255 21.7712 40.5457 21.3568C40.0432 20.9601 39.4581 20.6811 38.8336 20.5402C38.209 20.3994 37.5609 20.4002 36.9367 20.5427C36.1829 20.6617 35.4277 20.7642 34.6719 20.8582V20.0651C34.6717 20.0027 34.6683 19.9404 34.6614 19.8783C35.4861 19.792 36.3103 19.6972 37.1331 19.5855C38.8737 19.2908 40.4667 19.6629 41.6184 20.635C42.7312 21.5747 43.3438 23.0253 43.3438 24.7197C43.3438 26.4148 42.7309 27.8659 41.6181 28.8056Z"/>
</mask>
<path d="M42.3642 19.7518C40.9483 18.5558 39.0205 18.0918 36.9587 18.4429C36.006 18.572 35.0517 18.6837 34.0957 18.7779C33.7789 18.4905 33.3666 18.3312 32.9388 18.3308C32.5111 18.3305 32.0985 18.4892 31.7812 18.7761C31.4643 18.4895 31.0523 18.3308 30.625 18.3308C30.1977 18.3308 29.7857 18.4895 29.4688 18.7761C29.1518 18.4895 28.7398 18.3308 28.3125 18.3308C27.8852 18.3308 27.4732 18.4895 27.1562 18.7761C26.8393 18.4895 26.4273 18.3308 26 18.3308C25.5727 18.3308 25.1607 18.4895 24.8438 18.7761C24.5268 18.4895 24.1148 18.3308 23.6875 18.3308C23.2602 18.3308 22.8482 18.4895 22.5312 18.7761C22.2143 18.4895 21.8023 18.3308 21.375 18.3308C20.9477 18.3308 20.5357 18.4895 20.2188 18.7761C19.9014 18.4891 19.4886 18.3304 19.0607 18.3308C18.6328 18.3313 18.2204 18.4908 17.9036 18.7785C16.9542 18.6843 16.0065 18.5734 15.0605 18.4457C12.9795 18.092 11.052 18.5555 9.63607 19.7515C8.2585 20.9147 7.49971 22.6798 7.5 24.7211C7.49971 26.7617 8.25821 28.5261 9.63579 29.6891C10.7838 30.6351 12.2323 31.1394 13.7196 31.1109C14.1657 31.11 14.6109 31.0719 15.0506 30.9968C16.0002 30.8681 16.9513 30.7568 17.9041 30.6628C18.2209 30.9503 18.6332 31.1097 19.061 31.11C19.4888 31.1104 19.9015 30.9517 20.2188 30.6648C20.5357 30.9514 20.9477 31.11 21.375 31.11C21.8023 31.11 22.2143 30.9514 22.5312 30.6648C22.8482 30.9514 23.2602 31.11 23.6875 31.11C24.1148 31.11 24.5268 30.9514 24.8438 30.6648C25.1607 30.9514 25.5727 31.11 26 31.11C26.4273 31.11 26.8393 30.9514 27.1562 30.6648C27.404 30.8889 27.7115 31.0362 28.0414 31.0887C28.3713 31.1411 28.7094 31.0965 29.0144 30.9603C28.6789 31.5991 28.0208 32.2727 26.7255 32.5558C26.5757 32.5886 26.4451 32.6795 26.3623 32.8085C26.2795 32.9376 26.2513 33.0942 26.284 33.244C26.3193 33.3923 26.4107 33.5212 26.5391 33.6035C26.6674 33.6858 26.8227 33.7152 26.9722 33.6855C28.8642 33.272 29.81 32.1335 30.2295 31.0628C30.6467 31.1629 31.0864 31.1027 31.4614 30.8941C31.3092 32.2641 30.609 33.8097 28.4172 34.5475C28.3453 34.5717 28.2788 34.6098 28.2216 34.6597C28.1644 34.7096 28.1175 34.7703 28.0838 34.8383C28.05 34.9063 28.03 34.9803 28.0248 35.056C28.0196 35.1317 28.0294 35.2078 28.0536 35.2797C28.1044 35.4237 28.2093 35.5422 28.346 35.6101C28.4827 35.6779 28.6405 35.6899 28.7859 35.6433C31.4007 34.7631 32.3851 32.8794 32.6086 31.0778C32.8718 31.1295 33.1435 31.1189 33.4018 31.0467C33.6602 30.9746 33.898 30.8429 34.0964 30.6624C35.0458 30.7566 35.9935 30.8675 36.9395 30.9951C39.023 31.3494 40.9482 30.8848 42.3642 29.6891C43.7415 28.5256 44.5003 26.7608 44.5 24.7197C44.5003 22.6792 43.7418 20.9147 42.3642 19.7518ZM32.3594 29.3758V20.0651C32.3594 19.9118 32.4203 19.7647 32.5287 19.6563C32.6371 19.5479 32.7842 19.487 32.9375 19.487C33.0908 19.487 33.2379 19.5479 33.3463 19.6563C33.4547 19.7647 33.5156 19.9118 33.5156 20.0651V29.3758C33.5156 29.5291 33.4547 29.6761 33.3463 29.7846C33.2379 29.893 33.0908 29.9539 32.9375 29.9539C32.7842 29.9539 32.6371 29.893 32.5287 29.7846C32.4203 29.6761 32.3594 29.5291 32.3594 29.3758ZM34.6719 24.138C35.4959 24.0174 36.3194 23.8846 37.1416 23.7292C37.2897 23.6865 37.4456 23.6781 37.5974 23.7047C37.7493 23.7312 37.893 23.7921 38.0178 23.8825C38.2162 24.0247 38.3577 24.2326 38.4171 24.4693C38.4765 24.706 38.45 24.9561 38.3423 25.1751C38.2346 25.3941 38.0527 25.5677 37.8289 25.6652C37.6052 25.7626 37.3541 25.7774 37.1204 25.7071C36.3056 25.5531 35.4891 25.4213 34.6719 25.3017V24.138ZM34.6719 26.4689C35.4105 26.5794 36.1484 26.6997 36.8847 26.8387C37.0681 26.8811 37.2557 26.9028 37.4439 26.9034C37.9132 26.909 38.3701 26.7533 38.7382 26.4622C38.9845 26.2437 39.1816 25.9756 39.3167 25.6754C39.4517 25.3752 39.5215 25.0497 39.5216 24.7206C39.5216 24.3914 39.4519 24.0659 39.317 23.7657C39.182 23.4654 38.985 23.1972 38.7388 22.9787C38.4825 22.7797 38.1842 22.6419 37.8665 22.5758C37.5488 22.5098 37.2203 22.5172 36.9059 22.5976C36.1623 22.7381 35.4174 22.8594 34.6719 22.9707V22.0213C35.4943 21.921 36.3162 21.8109 37.1368 21.6814C37.5965 21.5706 38.0751 21.5641 38.5376 21.6623C39.0001 21.7604 39.4348 21.9608 39.8098 22.2487C40.158 22.5574 40.4326 22.9403 40.6134 23.369C40.7942 23.7978 40.8766 24.2617 40.8545 24.7265C40.8753 25.1894 40.7923 25.6511 40.6115 26.0777C40.4307 26.5043 40.1568 26.8851 39.8098 27.1921C39.4346 27.4798 38.9999 27.68 38.5375 27.7781C38.075 27.8762 37.5965 27.8698 37.1368 27.7592L37.1168 27.7558C36.3031 27.6274 35.4878 27.5181 34.6719 27.4185V26.4689ZM19.6406 29.3758C19.6406 29.5291 19.5797 29.6761 19.4713 29.7846C19.3629 29.893 19.2158 29.9539 19.0625 29.9539C18.9092 29.9539 18.7621 29.893 18.6537 29.7846C18.5453 29.6761 18.4844 29.5291 18.4844 29.3758V20.0651C18.4844 19.9118 18.5453 19.7647 18.6537 19.6563C18.7621 19.5479 18.9092 19.487 19.0625 19.487C19.2158 19.487 19.3629 19.5479 19.4713 19.6563C19.5797 19.7647 19.6406 19.9118 19.6406 20.0651V29.3758ZM17.3281 25.3016C16.511 25.4213 15.6945 25.5531 14.8796 25.7071C14.8725 25.7082 14.8654 25.7096 14.8584 25.7113C14.7103 25.754 14.5544 25.7623 14.4026 25.7357C14.2508 25.7092 14.107 25.6484 13.9822 25.5581C13.872 25.4481 13.7845 25.3175 13.7249 25.1737C13.6653 25.0299 13.6346 24.8757 13.6347 24.72C13.6347 24.5643 13.6655 24.4102 13.7252 24.2664C13.785 24.1227 13.8725 23.9921 13.9827 23.8822C14.1482 23.7555 14.3523 23.6897 14.5606 23.6959C14.668 23.6966 14.775 23.7092 14.8796 23.7335C15.6944 23.8874 16.5109 24.0192 17.3281 24.1389L17.3281 25.3016ZM17.3281 22.9716C16.5895 22.8612 15.8516 22.7409 15.1153 22.6019C14.7981 22.5189 14.4661 22.5097 14.1448 22.575C13.8235 22.6402 13.5214 22.7783 13.2618 22.9784C13.0155 23.1968 12.8184 23.465 12.6834 23.7652C12.5484 24.0654 12.4785 24.3908 12.4784 24.72C12.4783 25.0491 12.548 25.3746 12.6829 25.6748C12.8178 25.9751 13.0148 26.2433 13.2609 26.4619C13.5192 26.6609 13.8194 26.7984 14.1387 26.8642C14.458 26.9299 14.7881 26.9221 15.104 26.8413C15.8443 26.7015 16.5859 26.5807 17.3281 26.4698V27.4193C16.5057 27.5195 15.6838 27.6297 14.8632 27.7592C14.4036 27.8701 13.925 27.8767 13.4624 27.7786C12.9999 27.6805 12.5652 27.4801 12.1902 27.1921C11.842 26.8834 11.5674 26.5006 11.3866 26.0718C11.2058 25.643 11.1234 25.1792 11.1455 24.7144C11.1247 24.2514 11.2077 23.7897 11.3885 23.363C11.5692 22.9364 11.8432 22.5555 12.1902 22.2485C12.7311 21.8172 13.4066 21.59 14.0982 21.6069C14.3618 21.6077 14.6246 21.6338 14.8832 21.6848C15.6969 21.8132 16.5122 21.9225 17.3281 22.0221L17.3281 22.9716ZM14.8861 29.8525C14.8796 29.8534 14.8734 29.8542 14.8669 29.8553C13.1263 30.1503 11.5333 29.7783 10.3819 28.8059C9.26881 27.8662 8.65625 26.4156 8.65625 24.7211C8.65625 23.0258 9.2691 21.5747 10.3822 20.635C11.3241 19.8657 12.5103 19.4589 13.7261 19.4881C14.1149 19.489 14.5029 19.5225 14.8861 19.5883C15.7022 19.6991 16.52 19.7932 17.3385 19.8789C17.3317 19.9408 17.3283 20.0029 17.3281 20.0651V20.859C16.5788 20.7657 15.8303 20.664 15.0834 20.5461C14.4564 20.4013 13.8049 20.3989 13.1769 20.5392C12.5489 20.6794 11.9604 20.9587 11.4546 21.3565C10.9736 21.7726 10.5921 22.2915 10.3385 22.8748C10.0849 23.4581 9.96552 24.0909 9.98921 24.7265C9.96669 25.3601 10.0867 25.9907 10.3403 26.5719C10.5939 27.153 10.9747 27.6697 11.4546 28.0841C12.1997 28.6869 13.1328 29.0088 14.0911 28.9936C14.4175 28.9929 14.7431 28.9609 15.0633 28.8979C15.8171 28.7789 16.5723 28.6763 17.3281 28.5823V29.3758C17.3283 29.438 17.3317 29.5001 17.3385 29.5619C16.52 29.6476 15.7022 29.7418 14.8861 29.8525ZM21.375 29.9539C21.2217 29.9537 21.0748 29.8927 20.9664 29.7843C20.8581 29.676 20.7971 29.529 20.7969 29.3758V20.0651C20.7969 19.9118 20.8578 19.7647 20.9662 19.6563C21.0746 19.5479 21.2217 19.487 21.375 19.487C21.5283 19.487 21.6754 19.5479 21.7838 19.6563C21.8922 19.7647 21.9531 19.9118 21.9531 20.0651V29.3758C21.9529 29.529 21.8919 29.676 21.7836 29.7843C21.6752 29.8927 21.5283 29.9537 21.375 29.9539ZM23.6875 29.9539C23.5342 29.9537 23.3873 29.8927 23.2789 29.7843C23.1706 29.676 23.1096 29.529 23.1094 29.3758V20.0651C23.1094 19.9118 23.1703 19.7647 23.2787 19.6563C23.3871 19.5479 23.5342 19.487 23.6875 19.487C23.8408 19.487 23.9879 19.5479 24.0963 19.6563C24.2047 19.7647 24.2656 19.9118 24.2656 20.0651V29.3758C24.2654 29.529 24.2044 29.676 24.0961 29.7843C23.9877 29.8927 23.8408 29.9537 23.6875 29.9539ZM26 29.9539C25.8467 29.9537 25.6998 29.8927 25.5914 29.7843C25.4831 29.676 25.4221 29.529 25.4219 29.3758V20.0651C25.4219 19.9118 25.4828 19.7647 25.5912 19.6563C25.6996 19.5479 25.8467 19.487 26 19.487C26.1533 19.487 26.3004 19.5479 26.4088 19.6563C26.5172 19.7647 26.5781 19.9118 26.5781 20.0651V29.3758C26.5779 29.529 26.5169 29.676 26.4086 29.7843C26.3002 29.8927 26.1533 29.9537 26 29.9539ZM28.3125 29.9539C28.1592 29.9537 28.0123 29.8927 27.9039 29.7843C27.7956 29.676 27.7346 29.529 27.7344 29.3758V20.0651C27.7344 19.9118 27.7953 19.7647 27.9037 19.6563C28.0121 19.5479 28.1592 19.487 28.3125 19.487C28.4658 19.487 28.6129 19.5479 28.7213 19.6563C28.8297 19.7647 28.8906 19.9118 28.8906 20.0651V29.3758C28.8904 29.529 28.8294 29.676 28.7211 29.7843C28.6127 29.8927 28.4658 29.9537 28.3125 29.9539ZM30.625 29.9539C30.4717 29.9537 30.3248 29.8927 30.2164 29.7843C30.1081 29.676 30.0471 29.529 30.0469 29.3758V20.0651C30.0469 19.9118 30.1078 19.7647 30.2162 19.6563C30.3246 19.5479 30.4717 19.487 30.625 19.487C30.7783 19.487 30.9254 19.5479 31.0338 19.6563C31.1422 19.7647 31.2031 19.9118 31.2031 20.0651V29.3758C31.2029 29.529 31.1419 29.676 31.0336 29.7843C30.9252 29.8927 30.7783 29.9537 30.625 29.9539ZM41.6181 28.8056C40.4667 29.778 38.8737 30.1495 37.114 29.8525C36.2978 29.7418 35.48 29.6476 34.6615 29.5619C34.6683 29.5001 34.6717 29.438 34.6719 29.3758V28.5824C35.4245 28.676 36.1764 28.7781 36.9271 28.8965C37.5526 29.0394 38.2022 29.0407 38.8283 28.9001C39.4543 28.7596 40.041 28.4807 40.5454 28.0841C41.0264 27.668 41.4079 27.1492 41.6615 26.5659C41.9151 25.9827 42.0345 25.3499 42.0108 24.7144C42.0333 24.0808 41.9133 23.4502 41.6598 22.8691C41.4062 22.288 41.0255 21.7712 40.5457 21.3568C40.0432 20.9601 39.4581 20.6811 38.8336 20.5402C38.209 20.3994 37.5609 20.4002 36.9367 20.5427C36.1829 20.6617 35.4277 20.7642 34.6719 20.8582V20.0651C34.6717 20.0027 34.6683 19.9404 34.6614 19.8783C35.4861 19.792 36.3103 19.6972 37.1331 19.5855C38.8737 19.2908 40.4667 19.6629 41.6184 20.635C42.7312 21.5747 43.3438 23.0253 43.3438 24.7197C43.3438 26.4148 42.7309 27.8659 41.6181 28.8056Z" fill="#494B53" stroke="white" stroke-width="0.4" mask="url(#path-1-inside-1_716_9687)"/>
</svg>
