<svg width="49" height="49" viewBox="0 0 49 49" fill="none" xmlns="http://www.w3.org/2000/svg">
<path fill-rule="evenodd" clip-rule="evenodd" d="M12.8256 18.532C11.4541 18.7336 10.3913 19.2629 9.41705 20.2294C8.85103 20.7908 8.63835 21.0791 8.35233 21.6723C7.0683 24.3348 7.61932 27.7258 9.62799 29.5236C10.2414 30.0726 11.4921 30.7029 12.3044 30.8724C13.0054 31.0186 14.3312 31.0401 15.0948 30.9174C15.3825 30.8712 16.1407 30.7726 16.7796 30.6985L17.9411 30.5636L18.2126 30.757C18.6213 31.048 19.3444 31.0728 19.8472 30.8131L20.2396 30.6103L20.632 30.8122C21.1381 31.0725 21.8593 31.047 22.2704 30.7542L22.5458 30.5581L22.8095 30.7531C23.213 31.0513 23.9647 31.0763 24.4656 30.8081L24.8547 30.5997L25.2333 30.8113C25.7185 31.0825 26.4672 31.0567 26.8921 30.7542L27.1675 30.5581L27.4258 30.7491C27.7344 30.9773 28.4371 31.0652 28.8373 30.9257C28.9921 30.8717 29.1329 30.8417 29.1501 30.8589C29.1673 30.8761 29.0531 31.0805 28.8961 31.3131C28.5272 31.86 27.9367 32.276 27.1519 32.5414C26.8065 32.6582 26.4938 32.8013 26.4569 32.8593C26.3241 33.0683 26.3892 33.3545 26.6012 33.4933C26.7981 33.6223 26.8551 33.6219 27.3169 33.4876C28.4531 33.1574 29.4219 32.4134 29.9189 31.4896C30.1805 31.0033 30.1805 31.0033 30.5991 31.003C30.8292 31.0029 31.1333 30.9428 31.2749 30.8697C31.5314 30.737 31.5321 30.7374 31.5321 30.9913C31.5321 31.4387 31.1928 32.3639 30.8288 32.909C30.3873 33.5701 29.9703 33.905 28.9661 34.4053C28.1353 34.8192 28.0116 34.9763 28.216 35.3582C28.3655 35.6375 28.8028 35.5841 29.5818 35.1916C31.1188 34.4173 32.0144 33.2909 32.3832 31.6686L32.5304 31.0209L33.0343 30.9844C33.3734 30.9599 33.6233 30.8851 33.7982 30.7558L34.0581 30.5636L35.6074 30.7614C36.5418 30.8807 37.6237 30.9591 38.3338 30.9591C39.3974 30.9591 39.5854 30.9347 40.2831 30.7061C42.6851 29.9188 44.1726 27.887 44.3251 25.1847C44.5285 21.5811 42.4168 18.9355 39.0084 18.524C38.2929 18.4376 37.9985 18.4521 36.3718 18.6545C34.1527 18.9305 34.1173 18.9309 33.7228 18.6871C33.2801 18.4135 32.5661 18.4187 32.1128 18.6989L31.7785 18.9055L31.4155 18.7009C30.9303 18.4275 30.3062 18.4256 29.8264 18.6959L29.4723 18.8954L29.1356 18.6967C28.6747 18.4248 28.0393 18.4233 27.5265 18.6926L27.1398 18.8959L26.7853 18.6961C26.309 18.4277 25.6809 18.4276 25.2047 18.6959L24.8506 18.8954L24.5139 18.6967C24.0593 18.4285 23.4172 18.4234 22.921 18.6842L22.5504 18.879L22.1827 18.6874C21.6859 18.4284 21.0519 18.4318 20.5831 18.6959L20.229 18.8954L19.8902 18.6956C19.4394 18.4295 18.7964 18.4267 18.2939 18.6888C17.8324 18.9293 17.8068 18.929 15.6965 18.6638C13.9024 18.4384 13.567 18.423 12.8256 18.532ZM15.6616 19.623C16.6448 19.7426 17.4591 19.8405 17.471 19.8407C17.4829 19.8409 17.4928 20.0961 17.4928 20.4079C17.4928 21.0885 17.6614 21.0571 15.6209 20.756C14.0355 20.522 13.6196 20.5305 12.7909 20.8139C11.718 21.1807 11.0494 21.7914 10.5323 22.8769C10.2342 23.5028 10.2109 23.6118 10.1812 24.5254C10.1548 25.3361 10.181 25.6081 10.3345 26.1133C10.8171 27.7023 12.1418 28.7645 13.7868 28.8816C14.1943 28.9105 14.8897 28.8522 15.8796 28.7059C16.6949 28.5854 17.3936 28.5173 17.4321 28.5548C17.4707 28.5922 17.4904 28.8543 17.4757 29.137L17.4492 29.6511L15.9668 29.842C14.2036 30.069 13.202 30.0881 12.4428 29.9092C10.628 29.4813 9.29262 28.1561 8.80011 26.2939C8.59484 25.5177 8.5985 23.9202 8.80734 23.1547C9.28172 21.4159 10.5616 20.1114 12.2608 19.635C13.2344 19.3621 13.5073 19.3611 15.6616 19.623ZM19.3516 19.5065C19.7629 19.7256 19.7543 19.6152 19.7572 24.75L19.76 29.6155L19.5459 29.8295C19.2828 30.0927 18.9028 30.108 18.6429 29.8657L18.452 29.6879V24.7344C18.452 20.1255 18.4626 19.7716 18.6046 19.6479C18.8864 19.4024 19.0854 19.3648 19.3516 19.5065ZM21.8746 19.6434C22.0166 19.7713 22.0272 20.1274 22.0272 24.7378C22.0272 29.5785 22.0231 29.6988 21.8528 29.8691C21.5931 30.1288 21.1265 30.1017 20.9 29.8138C20.7219 29.5875 20.7192 29.5107 20.722 24.7343C20.7241 21.0589 20.7505 19.8514 20.831 19.7475C21.1061 19.3924 21.5473 19.3484 21.8746 19.6434ZM24.1268 19.6599L24.3817 19.9148V24.7652V29.6155L24.1676 29.8295C23.7974 30.1997 23.2523 30.0826 23.0828 29.5964C22.937 29.1782 22.9515 20.1332 23.0984 19.8428C23.2076 19.6271 23.5366 19.4088 23.7562 19.4064C23.8198 19.4057 23.9865 19.5197 24.1268 19.6599ZM26.4963 19.68C26.6376 19.8471 26.6489 20.22 26.6489 24.7501V29.6399L26.4593 29.8417C26.1912 30.127 25.7579 30.1141 25.5216 29.8138C25.3437 29.5876 25.3409 29.5086 25.3409 24.7292C25.3409 20.9763 25.3656 19.8434 25.4499 19.7377C25.742 19.3716 26.2133 19.3457 26.4963 19.68ZM28.7484 19.6599L29.0033 19.9148V24.7652V29.6155L28.7892 29.8295C28.4032 30.2156 27.7828 30.0365 27.6508 29.5007C27.624 29.3916 27.6131 27.1701 27.6268 24.5641L27.6517 19.8259L27.8964 19.6155C28.2184 19.3385 28.4384 19.3499 28.7484 19.6599ZM31.1179 19.68C31.2593 19.8471 31.2705 20.22 31.2705 24.7501V29.6399L31.0809 29.8417C30.8379 30.1004 30.4324 30.1058 30.1643 29.854L29.9625 29.6643V24.7906C29.9625 21.5088 29.9928 19.8601 30.0554 19.7432C30.2522 19.3755 30.8311 19.341 31.1179 19.68ZM33.3721 19.6621L33.6292 19.9191L33.6052 24.8146L33.5813 29.7102L33.3755 29.8769C33.2623 29.9685 33.0606 30.0435 32.9273 30.0435C32.7941 30.0435 32.5924 29.9685 32.4792 29.8769L32.2733 29.7102L32.2494 24.8146L32.2254 19.9191L32.4825 19.6621C32.6239 19.5207 32.824 19.405 32.9273 19.405C33.0307 19.405 33.2308 19.5207 33.3721 19.6621ZM39.9958 19.7171C42.0999 20.3818 43.3954 22.3166 43.3899 24.786C43.3864 26.3481 42.8367 27.7238 41.8429 28.6577C41.1257 29.3319 40.5712 29.6426 39.678 29.871C38.8014 30.0952 38.1139 30.0915 36.1756 29.8521L34.5841 29.6556V29.0702V28.4849L34.8675 28.5246C35.0235 28.5465 35.6766 28.6421 36.3191 28.7371C37.733 28.9463 38.3268 28.9539 38.9501 28.7708C40.5118 28.3121 41.46 27.2596 41.7996 25.6078C42.188 23.719 41.3103 21.8069 39.6919 21.0166C38.7066 20.5355 38.1452 20.4912 36.3718 20.7544C35.5564 20.8753 34.8206 20.9744 34.7367 20.9745C34.6072 20.9747 34.5841 20.8898 34.5841 20.4118V19.849L34.8675 19.8029C35.0235 19.7776 35.7592 19.6797 36.5026 19.5855C38.1225 19.3801 39.0383 19.4146 39.9958 19.7171ZM38.9369 21.7342C40.5788 22.2855 41.3663 24.2435 40.6818 26.0729C40.368 26.9118 39.6725 27.5437 38.7673 27.8126C38.1491 27.9961 37.8558 27.9873 36.1101 27.7321C35.2948 27.6129 34.6179 27.5152 34.6059 27.5151C34.594 27.5149 34.5841 27.2579 34.5841 26.944V26.3732L34.8675 26.4195C35.0235 26.4448 35.6008 26.5448 36.1507 26.6414C37.4571 26.871 37.7684 26.8645 38.3071 26.5961C40.0082 25.7484 39.6016 23.0254 37.7234 22.6873C37.5407 22.6544 36.9298 22.7197 36.2019 22.8499C34.4805 23.1578 34.5841 23.1789 34.5841 22.5206V21.9738L36.132 21.7453C37.7362 21.5086 38.2589 21.5065 38.9369 21.7342ZM16.1412 21.789L17.4492 21.9802L17.4752 22.5238L17.5011 23.0675H17.2438C17.1021 23.0675 16.4345 22.9662 15.76 22.8424C14.5813 22.6261 14.5152 22.6228 14.0519 22.7575C13.1603 23.0167 12.6567 23.7429 12.6577 24.7679C12.6587 25.6783 13.0845 26.3622 13.8494 26.6817C14.2917 26.8665 14.6678 26.8529 16.106 26.6007C16.7847 26.4816 17.3744 26.4054 17.4164 26.4314C17.4837 26.4729 17.5326 27.5147 17.4672 27.5147C17.4531 27.5147 16.8547 27.603 16.1374 27.7109C14.3488 27.98 13.4957 27.9716 12.8671 27.6787C12.2022 27.369 11.8175 27.007 11.4679 26.3624C11.1768 25.8255 11.1707 25.7931 11.1707 24.7679C11.1707 23.8794 11.1992 23.6599 11.3592 23.3137C11.704 22.5677 12.4598 21.8986 13.22 21.6666C13.6175 21.5452 14.8162 21.5954 16.1412 21.789ZM16.2284 23.8853L17.4492 24.0824L17.4753 24.6781C17.4897 25.0058 17.4693 25.3059 17.4301 25.3451C17.3909 25.3843 16.7087 25.5232 15.9142 25.6538C14.2231 25.9316 14.0322 25.9012 13.7291 25.3071C13.3083 24.4822 13.9094 23.4984 14.746 23.643C14.8899 23.6679 15.5569 23.7769 16.2284 23.8853ZM37.8072 23.7303C38.7024 24.0885 38.731 25.3266 37.8536 25.745C37.5327 25.8979 37.2567 25.8726 35.0821 25.4907L34.5772 25.402L34.6024 24.7405L34.6277 24.079L35.847 23.879C36.5176 23.7689 37.1062 23.6622 37.155 23.6417C37.3212 23.5719 37.4579 23.5906 37.8072 23.7303Z" fill="#494B53"/>
</svg>
