<svg width="49" height="49" viewBox="0 0 49 49" fill="none" xmlns="http://www.w3.org/2000/svg">
<path d="M39.6918 24.7558L43.2352 18.4953C43.2978 18.3825 43.3142 18.249 43.2808 18.1239C43.2474 17.9989 43.1669 17.8923 43.0568 17.8275C42.9468 17.7627 42.8161 17.7448 42.6932 17.7778C42.5703 17.8108 42.4652 17.892 42.4007 18.0037L38.8575 24.2639H32.3174L28.7744 18.0034C28.7322 17.9287 28.6714 17.8666 28.5981 17.8234C28.5249 17.7803 28.4418 17.7575 28.3572 17.7575H20.9926C20.908 17.7575 20.8249 17.7802 20.7516 17.8234C20.6784 17.8666 20.6176 17.9287 20.5753 18.0034L17.0321 24.2639H10.7438L7.20062 18.0034C7.13668 17.8906 7.0314 17.8082 6.90794 17.7745C6.78449 17.7408 6.65297 17.7585 6.54231 17.8237C6.43165 17.889 6.35093 17.9964 6.31789 18.1223C6.28486 18.2482 6.30222 18.3824 6.36615 18.4953L9.9095 24.7558L6.36645 31.0163C6.33479 31.0722 6.31424 31.1339 6.30595 31.1979C6.29767 31.2619 6.30183 31.3269 6.31819 31.3893C6.33455 31.4517 6.36278 31.5101 6.40129 31.5613C6.43979 31.6126 6.48781 31.6556 6.5426 31.6879C6.5974 31.7202 6.65789 31.7411 6.72062 31.7496C6.78336 31.758 6.84711 31.7538 6.90824 31.7371C6.96937 31.7204 7.02668 31.6916 7.0769 31.6523C7.12711 31.613 7.16925 31.5641 7.20091 31.5082L10.7442 25.2474H17.0321L20.5755 31.5082C20.6177 31.5829 20.6786 31.645 20.7518 31.6882C20.825 31.7314 20.9081 31.7541 20.9927 31.7541H28.3574C28.442 31.7541 28.5251 31.7314 28.5983 31.6882C28.6716 31.645 28.7324 31.5829 28.7746 31.5082L32.3175 25.2474H38.8572L42.4004 31.5082C42.4318 31.5646 42.4738 31.6142 42.524 31.654C42.5742 31.6939 42.6317 31.7232 42.6931 31.7402C42.7544 31.7573 42.8185 31.7618 42.8816 31.7534C42.9447 31.7451 43.0055 31.7241 43.0606 31.6916C43.1157 31.6592 43.164 31.6159 43.2026 31.5644C43.2412 31.5128 43.2694 31.4539 43.2856 31.3912C43.3018 31.3284 43.3057 31.263 43.297 31.1987C43.2883 31.1344 43.2672 31.0725 43.2349 31.0166L39.6918 24.7558ZM28.0789 30.7704H21.2708L17.8667 24.7558L21.2708 18.7412H28.0789L31.4827 24.7558L28.0789 30.7704Z" fill="#494B53"/>
</svg>
