<svg width="48" height="49" viewBox="0 0 48 49" fill="none" xmlns="http://www.w3.org/2000/svg">
<path d="M30.669 18.2082C30.826 18.4726 31.0358 18.6674 31.2443 18.7789C31.4458 18.8866 31.6764 18.9304 31.851 18.8324L31.8584 18.8282L31.8652 18.823C31.9337 18.7711 31.9902 18.7052 32.0307 18.6297C32.0713 18.5542 32.095 18.4709 32.1002 18.3854L32.1002 18.3841C32.1154 18.0842 32.0409 17.7858 31.8865 17.5253C31.7321 17.2649 31.5044 17.0538 31.2315 16.9173L31.2308 16.9169C31.1532 16.8787 31.0683 16.8571 30.9819 16.8535C30.8954 16.85 30.8092 16.8647 30.7291 16.8966L30.7146 16.9024L30.702 16.9116C30.6321 16.9623 30.574 17.0273 30.5318 17.1024C30.4896 17.1775 30.4642 17.2607 30.4576 17.3466L30.4576 17.3467C30.4345 17.6479 30.5087 17.9492 30.669 18.2082ZM30.669 18.2082C30.6692 18.2086 30.6694 18.2089 30.6696 18.2093L30.7759 18.1434L30.6683 18.2072C30.6686 18.2075 30.6688 18.2079 30.669 18.2082ZM32.8746 19.7009L32.9074 19.5802L32.8747 19.7009L32.8749 19.7009L32.8759 19.7012L32.8796 19.7022L32.8942 19.7062L32.9513 19.7217L33.1682 19.7807L33.9426 19.9913L36.2964 20.6316C37.9521 21.0819 39.6151 21.5342 39.7523 21.5714C40.6045 21.938 41.0967 22.9378 41.2657 24.2711C41.4341 25.6006 41.2745 27.2204 40.865 28.7486C40.4555 30.2767 39.7748 31.7746 38.9528 32.8504C38.126 33.9326 37.1847 34.5534 36.2535 34.4165L36.2416 34.4137C36.2287 34.4106 36.2093 34.4058 36.1834 34.3992C36.1318 34.386 36.0558 34.3663 35.9569 34.3405C35.7591 34.2888 35.4707 34.2127 35.1044 34.1157C34.3719 33.9217 33.3286 33.6441 32.0783 33.3107C29.5776 32.644 26.2488 31.7543 22.9218 30.8643C19.5948 29.9743 16.2697 29.0841 13.7763 28.4164L10.7638 27.6095L9.91986 27.3834L9.69753 27.3239L9.64054 27.3086L9.62611 27.3047L9.62248 27.3037L9.62157 27.3035C9.62137 27.3034 9.62127 27.3034 9.58891 27.4242L9.62144 27.3028L9.60884 27.3008C9.56951 27.2944 9.53092 27.2841 9.49369 27.2699L9.49371 27.2699L9.49042 27.2687C8.5834 26.9523 8.05841 25.9494 7.8725 24.5888C7.68774 23.2367 7.84616 21.5766 8.26104 20.0282C8.68526 18.445 9.4011 16.8913 10.2636 15.8062C11.1314 14.7144 12.1144 14.1342 13.0806 14.3931L26.4135 17.9656L26.4621 17.9787L26.5062 17.9543L30.1549 15.9415C30.1553 15.9413 30.1556 15.9411 30.156 15.9409C30.387 15.8198 30.6443 15.7528 30.9079 15.7455C31.1717 15.7382 31.4344 15.7908 31.6755 15.8992C32.1807 16.1322 32.6019 16.5111 32.8818 16.9841C33.1614 17.4567 33.2865 18.0001 33.2405 18.5403C33.2013 18.8953 33.0526 19.229 32.814 19.4971L32.6799 19.6479L32.8746 19.7009ZM11.8203 26.5717L11.6724 26.7244L11.8777 26.7794L36.3314 33.3317C36.5733 33.3965 36.8579 33.3001 37.143 33.1072C37.433 32.911 37.7477 32.5991 38.0615 32.1843C38.6898 31.354 39.3266 30.0955 39.7614 28.4727C40.1963 26.8499 40.2742 25.4407 40.1456 24.4065C40.0813 23.89 39.9649 23.4622 39.8119 23.1468C39.6616 22.8369 39.4634 22.6108 39.2214 22.5459L31.3772 20.4441L31.328 20.4309L31.2836 20.4559L28.8544 21.8209C28.7241 21.8942 28.5681 21.9137 28.4208 21.8742C28.2736 21.8347 28.1482 21.7399 28.0719 21.6113C27.9957 21.4828 27.9748 21.3312 28.0127 21.1899C28.0505 21.0485 28.1445 20.9278 28.2747 20.8546L30.3133 19.709L30.4732 19.6191L30.3311 19.5031C30.0753 19.2946 29.8595 19.0433 29.6937 18.7613L29.6936 18.7611C29.5247 18.475 29.4109 18.1616 29.3576 17.8366L29.329 17.6617L29.1738 17.7474L24.8381 20.1432C24.7071 20.2154 24.5509 20.2337 24.4039 20.1931C24.257 20.1525 24.1324 20.0566 24.0571 19.9275C23.982 19.7984 23.9623 19.6468 24.0013 19.5057C24.0403 19.3647 24.1352 19.2447 24.266 19.1725C24.266 19.1725 24.266 19.1725 24.2661 19.1725L24.7736 18.8935L25.0461 18.7437L24.7457 18.6632L14.7649 15.9889L14.546 15.9302L14.6132 16.1467C15.0684 17.6118 14.9556 19.7321 14.4331 21.682L14.433 21.6824L14.4329 21.6828L14.4328 21.6832L14.4327 21.6836L14.4326 21.684L14.4325 21.6844L14.4323 21.6847L14.4322 21.6851L14.4321 21.6855L14.432 21.6859L14.4319 21.6863L14.4318 21.6867L14.4317 21.6871L14.4316 21.6875L14.4315 21.6879L14.4314 21.6882L14.4313 21.6886L14.4312 21.689L14.4311 21.6894L14.431 21.6898L14.4309 21.6902L14.4308 21.6906L14.4307 21.691L14.4306 21.6914L14.4305 21.6918L14.4304 21.6921L14.4303 21.6925L14.4302 21.6929L14.4301 21.6933L14.43 21.6937L14.4298 21.6941L14.4297 21.6945L14.4296 21.6949L14.4295 21.6953L14.4294 21.6956L14.4293 21.696L14.4292 21.6964L14.4291 21.6968L14.429 21.6972L14.4289 21.6976L14.4288 21.698L14.4287 21.6984L14.4286 21.6988L14.4285 21.6991L14.4284 21.6995L14.4283 21.6999L14.4282 21.7003L14.4281 21.7007L14.428 21.7011L14.4279 21.7015L14.4278 21.7019L14.4277 21.7023L14.4276 21.7026L14.4275 21.703L14.4273 21.7034L14.4272 21.7038L14.4271 21.7042L14.427 21.7046L14.4269 21.705L14.4268 21.7054L14.4267 21.7058L14.4266 21.7061L14.4265 21.7065L14.4264 21.7069L14.4263 21.7073L14.4262 21.7077L14.4261 21.7081L14.426 21.7085L14.4259 21.7089L14.4258 21.7093L14.4257 21.7096L14.4256 21.71L14.4255 21.7104L14.4254 21.7108L14.4253 21.7112L14.4252 21.7116L14.4251 21.712L14.4249 21.7124L14.4248 21.7128L14.4247 21.7131L14.4246 21.7135L14.4245 21.7139L14.4244 21.7143L14.4243 21.7147L14.4242 21.7151L14.4241 21.7155L14.424 21.7159L14.4239 21.7163L14.4238 21.7166L14.4237 21.717L14.4236 21.7174L14.4235 21.7178L14.4234 21.7182L14.4233 21.7186L14.4232 21.719L14.4231 21.7194L14.423 21.7198L14.4229 21.7201L14.4228 21.7205L14.4227 21.7209L14.4226 21.7213L14.4224 21.7217L14.4223 21.7221L14.4222 21.7225L14.4221 21.7229L14.422 21.7233L14.4219 21.7236L14.4218 21.724L14.4217 21.7244L14.4216 21.7248L14.4215 21.7252L14.4214 21.7256L14.4213 21.726L14.4212 21.7264L14.4211 21.7268L14.421 21.7271L14.4209 21.7275L14.4208 21.7279L14.4207 21.7283L14.4206 21.7287L14.4205 21.7291L14.4204 21.7295L14.4203 21.7299L14.4202 21.7303L14.4201 21.7306L14.4199 21.731L14.4198 21.7314L14.4197 21.7318L14.4196 21.7322L14.4195 21.7326L14.4194 21.733L14.4193 21.7334L14.4192 21.7338L14.4191 21.7341L14.419 21.7345L14.4189 21.7349L14.4188 21.7353L14.4187 21.7357L14.4186 21.7361L14.4185 21.7365L14.4184 21.7369L14.4183 21.7373L14.4182 21.7377L14.4181 21.738L14.418 21.7384L14.4179 21.7388L14.4178 21.7392L14.4177 21.7396L14.4175 21.74L14.4174 21.7404L14.4173 21.7408L14.4172 21.7412L14.4171 21.7415L14.417 21.7419L14.4169 21.7423L14.4168 21.7427L14.4167 21.7431L14.4166 21.7435L14.4165 21.7439L14.4164 21.7443L14.4163 21.7447L14.4162 21.745L14.4161 21.7454L14.416 21.7458L14.4159 21.7462L14.4158 21.7466L14.4157 21.747L14.4156 21.7474L14.4155 21.7478L14.4154 21.7482L14.4153 21.7485L14.4152 21.7489L14.415 21.7493L14.4149 21.7497L14.4148 21.7501L14.4147 21.7505L14.4146 21.7509L14.4145 21.7513L14.4144 21.7517L14.4143 21.752L14.4142 21.7524L14.4141 21.7528L14.414 21.7532L14.4139 21.7536L14.4138 21.754L14.4137 21.7544L14.4136 21.7548L14.4135 21.7552L14.4134 21.7555L14.4133 21.7559L14.4132 21.7563L14.4131 21.7567L14.413 21.7571L14.4129 21.7575L14.4128 21.7579L14.4127 21.7583L14.4125 21.7587L14.4124 21.759L14.4123 21.7594L14.4122 21.7598L14.4121 21.7602L14.412 21.7606L14.4119 21.761L14.4118 21.7614L14.4117 21.7618L14.4116 21.7622L14.4115 21.7625L14.4114 21.7629L14.4113 21.7633L14.4112 21.7637L14.4111 21.7641L14.411 21.7645L14.4109 21.7649L14.4108 21.7653L14.4107 21.7657L14.4106 21.766L14.4105 21.7664L14.4104 21.7668L14.4103 21.7672L14.4101 21.7676L14.41 21.768L14.4099 21.7684L14.4098 21.7688L14.4097 21.7692L14.4096 21.7695L14.4095 21.7699L14.4094 21.7703L14.4093 21.7707L14.4092 21.7711L14.4091 21.7715L14.409 21.7719L14.4089 21.7723L14.4088 21.7727L14.4087 21.773L14.4086 21.7734L14.4085 21.7738L14.4084 21.7742L14.4083 21.7746L14.4082 21.775L14.4081 21.7754L14.408 21.7758L14.4079 21.7762L14.4078 21.7765L14.4076 21.7769L14.4075 21.7773L14.4074 21.7777L14.4073 21.7781L14.4072 21.7785L14.4071 21.7789L14.407 21.7793L14.4069 21.7797L14.4068 21.78L14.4067 21.7804L14.4066 21.7808L14.4065 21.7812L14.4064 21.7816L14.4063 21.782L14.4062 21.7824L14.4061 21.7828L14.406 21.7832L14.4059 21.7835L14.4058 21.7839L14.4057 21.7843L14.4056 21.7847L14.4055 21.7851L14.4054 21.7855L14.4053 21.7859L14.4051 21.7863L14.405 21.7867L14.4049 21.7871L14.4048 21.7874L14.4047 21.7878L14.4046 21.7882L14.4045 21.7886L14.4044 21.789L14.4043 21.7894L14.4042 21.7898L14.4041 21.7902L14.404 21.7906L14.4039 21.7909L14.4038 21.7913L14.4037 21.7917L14.4036 21.7921L14.4035 21.7925L14.4034 21.7929L14.4033 21.7933L14.4032 21.7937L14.4031 21.7941L14.403 21.7944L14.4029 21.7948L14.4027 21.7952L14.4026 21.7956L14.4025 21.796L14.4024 21.7964L14.4023 21.7968L14.4022 21.7972L14.4021 21.7976L14.402 21.7979L14.4019 21.7983L14.4018 21.7987L14.4017 21.7991L14.4016 21.7995L14.4015 21.7999L14.4014 21.8003L14.4013 21.8007L14.4012 21.8011L14.4011 21.8014L14.401 21.8018L14.4009 21.8022L14.4008 21.8026L14.4007 21.803L14.4006 21.8034L14.4005 21.8038L14.4004 21.8042L14.4002 21.8046L14.4001 21.8049L14.4 21.8053L14.3999 21.8057L14.3998 21.8061L14.3997 21.8065L14.3996 21.8069L14.3995 21.8073L14.3994 21.8077L14.3993 21.8081L14.3992 21.8084L14.3991 21.8088L14.399 21.8092L14.3989 21.8096L14.3988 21.81L14.3987 21.8104L14.3986 21.8108L14.3985 21.8112L14.3984 21.8116L14.3983 21.8119L14.3982 21.8123L14.3981 21.8127L14.398 21.8131L14.3979 21.8135L14.3977 21.8139L14.3976 21.8143L14.3975 21.8147L14.3974 21.8151L14.3973 21.8154L14.3972 21.8158L14.3971 21.8162L14.397 21.8166L14.3969 21.817L14.3968 21.8174L14.3967 21.8178L14.3966 21.8182L14.3965 21.8186L14.3964 21.8189L14.3963 21.8193L14.3962 21.8197L14.3961 21.8201L14.396 21.8205L14.3959 21.8209L14.3958 21.8213L14.3957 21.8217L14.3956 21.8221L14.3955 21.8224L14.3953 21.8228L14.3952 21.8232L14.3951 21.8236L14.395 21.824L14.3949 21.8244L14.3948 21.8248L14.3947 21.8252L14.3946 21.8256L14.3945 21.8259L14.3944 21.8263L14.3943 21.8267L14.3942 21.8271L14.3941 21.8275L14.394 21.8279L14.3939 21.8283L14.3938 21.8287L14.3937 21.8291L14.3936 21.8294L14.3935 21.8298L14.3934 21.8302L14.3933 21.8306L14.3932 21.831L14.3931 21.8314L14.393 21.8318L14.3928 21.8322L14.3927 21.8326L14.3926 21.833L14.3925 21.8333L14.3924 21.8337L14.3923 21.8341L14.3922 21.8345L14.3921 21.8349L14.392 21.8353L14.3919 21.8357L14.3918 21.8361L14.3917 21.8365L14.3916 21.8368L14.3915 21.8372L14.3914 21.8376L14.3913 21.838L14.3912 21.8384L14.3911 21.8388L14.391 21.8392L14.3909 21.8396L14.3908 21.84L14.3907 21.8403L14.3906 21.8407L14.3905 21.8411L14.3903 21.8415L14.3902 21.8419L14.3901 21.8423L14.39 21.8427L14.3899 21.8431L14.3898 21.8435L14.3897 21.8438L14.3896 21.8442L14.3895 21.8446L14.3894 21.845L14.3893 21.8454L14.3892 21.8458L14.3891 21.8462L14.389 21.8466L14.3889 21.847L14.3888 21.8473L14.3887 21.8477L14.3886 21.8481L14.3885 21.8485L14.3884 21.8489L14.3883 21.8493L14.3882 21.8497L14.3881 21.8501L14.3879 21.8505L14.3878 21.8508L14.3877 21.8512L14.3876 21.8516L14.3875 21.852L14.3874 21.8524L14.3873 21.8528L14.3872 21.8532L14.3871 21.8536L14.387 21.854L14.3869 21.8543L14.3868 21.8547L14.3867 21.8551L14.3866 21.8555L14.3865 21.8559L14.3864 21.8563L14.3863 21.8567L14.3862 21.8571L14.3861 21.8575L14.386 21.8578L14.3859 21.8582L14.3858 21.8586L14.3857 21.859L14.3856 21.8594L14.3854 21.8598L14.3853 21.8602L14.3852 21.8606L14.3851 21.861L14.385 21.8613L14.3849 21.8617L14.3848 21.8621L14.3847 21.8625L14.3846 21.8629L14.3845 21.8633L14.3844 21.8637L14.3843 21.8641L14.3842 21.8645L14.3841 21.8648L14.384 21.8652L14.3839 21.8656L14.3838 21.866L14.3837 21.8664L14.3836 21.8668L14.3835 21.8672L14.3834 21.8676L14.3833 21.868L14.3832 21.8683L14.3831 21.8687L14.3829 21.8691L14.3828 21.8695L14.3827 21.8699L14.3826 21.8703L14.3825 21.8707L14.3824 21.8711L14.3823 21.8715L14.3822 21.8718L14.3821 21.8722L14.382 21.8726L14.3819 21.873L14.3818 21.8734L14.3817 21.8738L14.3816 21.8742L14.3815 21.8746L14.3814 21.875L14.3813 21.8753L14.3812 21.8757L14.3811 21.8761L14.381 21.8765L14.3809 21.8769L14.3808 21.8773L14.3807 21.8777L14.3805 21.8781L14.3804 21.8785L14.3803 21.8788L14.3802 21.8792L14.3801 21.8796L14.38 21.88L14.3799 21.8804L14.3798 21.8808L14.3797 21.8812L14.3474 22.0019L14.4681 22.0343L21.3157 23.8691C21.3885 23.8886 21.4567 23.9219 21.5166 23.967L21.5918 23.8672L21.5166 23.967C21.5764 24.0121 21.6265 24.0681 21.6642 24.1317C21.7019 24.1953 21.7264 24.2651 21.7365 24.3373C21.7466 24.4094 21.7421 24.4826 21.7234 24.5525C21.7046 24.6225 21.672 24.6881 21.6271 24.7455C21.5823 24.8029 21.5261 24.8512 21.4617 24.8874C21.3973 24.9236 21.3259 24.947 21.2515 24.9562C21.1772 24.9654 21.1014 24.9601 21.0286 24.9406L14.0829 23.0795L13.971 23.0495L13.9326 23.1588C13.4849 24.4329 12.7649 25.5962 11.8203 26.5717ZM10.2503 23.3923L10.2989 23.3821L10.3272 23.3413C10.4206 23.207 10.5186 22.9897 10.6157 22.7359C10.714 22.479 10.8151 22.1743 10.9128 21.8579C11.1082 21.2254 11.2917 20.5404 11.4132 20.087L11.4134 20.0863L11.447 19.9609C11.4849 19.8197 11.5787 19.6991 11.7087 19.626C11.8389 19.5529 11.9947 19.5334 12.1418 19.5728C12.2888 19.6122 12.414 19.707 12.4902 19.8354C12.5663 19.9638 12.5872 20.1151 12.5494 20.2563L12.5158 20.3817C12.2861 21.2391 12.0228 22.2212 11.748 22.9625L11.7479 22.9626C11.6366 23.2638 11.4708 23.7084 11.2171 24.046C11.091 24.2137 10.9484 24.3478 10.7873 24.4259C10.6293 24.5024 10.4471 24.5283 10.231 24.4705C10.1074 24.4366 9.99876 24.3633 9.92229 24.2628C9.84579 24.1623 9.80596 24.0405 9.80842 23.917C9.81087 23.7935 9.85544 23.6749 9.93523 23.5798C10.0151 23.4848 10.1258 23.4185 10.2503 23.3923ZM9.36719 20.3246C8.93235 21.9475 8.85439 23.3567 8.98306 24.3908C9.04733 24.9073 9.16376 25.3352 9.3167 25.6505C9.46701 25.9604 9.66525 26.1865 9.9072 26.2514C10.1491 26.3162 10.4337 26.2198 10.7188 26.0269C11.0089 25.8306 11.3235 25.5187 11.6373 25.104C12.2656 24.2737 12.9024 23.0152 13.3373 21.3924C13.7721 19.7695 13.8501 18.3603 13.7214 17.3262C13.6571 16.8097 13.5407 16.3818 13.3878 16.0665C13.2374 15.7566 13.0392 15.5304 12.7972 15.4656C12.5554 15.4008 12.2707 15.4972 11.9856 15.6901C11.6956 15.8864 11.3809 16.1983 11.0671 16.613C10.4389 17.4433 9.80203 18.7018 9.36719 20.3246ZM38.2391 26.2119L31.618 24.4378C31.4709 24.3984 31.3457 24.3036 31.2695 24.1752C31.1935 24.0469 31.1725 23.8955 31.2103 23.7544C31.2482 23.6132 31.342 23.4926 31.472 23.4195C31.6022 23.3464 31.758 23.3269 31.9051 23.3663L38.5262 25.1404C38.6733 25.1798 38.7985 25.2746 38.8747 25.403C38.9508 25.5313 38.9717 25.6827 38.9339 25.8239C38.896 25.965 38.8022 26.0856 38.6722 26.1587C38.542 26.2319 38.3862 26.2513 38.2391 26.2119Z" fill="#494B53" stroke="white" stroke-width="0.25"/>
</svg>
