<svg width="49" height="49" viewBox="0 0 49 49" fill="none" xmlns="http://www.w3.org/2000/svg">
<path fill-rule="evenodd" clip-rule="evenodd" d="M12.165 14.6435C11.3052 14.8612 10.3745 15.7518 9.59333 17.1043C8.80414 18.4707 8.19063 20.3571 7.97959 22.066C7.89058 22.7866 7.8787 24.0857 7.95602 24.6415C8.12394 25.8488 8.54621 26.7043 9.16857 27.0979C9.36347 27.2212 11.7879 27.8783 28.9497 32.4597C33.1424 33.579 36.3264 34.4048 36.4492 34.4048C36.7667 34.4048 37.2735 34.2301 37.6123 34.0038C37.7773 33.8937 38.1003 33.6059 38.3303 33.3642C39.6017 32.0281 40.6107 29.6669 41.0017 27.1123C41.1272 26.2922 41.1264 24.7657 41.0001 24.0904C40.798 23.0099 40.3983 22.2643 39.8482 21.942C39.7157 21.8643 38.3397 21.4669 36.0465 20.8439C34.0697 20.307 32.4327 19.8615 32.4086 19.8541C32.3845 19.8467 32.4581 19.7327 32.5722 19.6009C32.8893 19.2345 32.9902 19 33.0159 18.5694C33.0607 17.8204 32.8232 17.2078 32.2807 16.673C31.8357 16.2344 31.4694 16.0539 30.9789 16.0318C30.74 16.021 30.5288 16.041 30.3959 16.087C30.2812 16.1267 29.3461 16.6232 28.3179 17.1903C27.2896 17.7574 26.4212 18.2214 26.388 18.2214C26.3548 18.2214 23.3018 17.4107 19.6035 16.4198C15.9052 15.429 12.7767 14.6093 12.6512 14.5982C12.5257 14.5872 12.3069 14.6076 12.165 14.6435ZM12.8318 15.4773C13.4602 15.7142 13.8459 16.8245 13.8464 18.3978C13.8472 21.1126 12.7044 24.3504 11.2225 25.8323C10.4152 26.6396 9.73803 26.722 9.29779 26.0666C8.95759 25.5599 8.80479 24.9113 8.76768 23.8157C8.71344 22.2157 9.05988 20.4375 9.75576 18.7437C10.6298 16.6165 11.9985 15.1631 12.8318 15.4773ZM19.8404 17.3456C22.7936 18.136 25.2258 18.7972 25.2454 18.8149C25.265 18.8326 25.0258 18.9897 24.714 19.1641C24.0789 19.5193 23.995 19.6189 24.0897 19.9059C24.1538 20.1002 24.3912 20.2347 24.582 20.1848C24.6436 20.1687 25.743 19.5756 27.0248 18.8668L29.3556 17.5781L29.4139 17.8873C29.5417 18.5643 29.8845 19.1499 30.3903 19.5547C30.5199 19.6584 30.6098 19.7581 30.5901 19.7761C30.5704 19.7942 30.0262 20.1047 29.3806 20.4662C28.735 20.8278 28.1787 21.1604 28.1443 21.2055C28.0389 21.3438 28.0685 21.6091 28.2045 21.7451C28.4249 21.9655 28.5391 21.9256 29.9416 21.1369L31.2412 20.4061L35.1185 21.4447C37.2509 22.016 39.0703 22.5037 39.1616 22.5285C39.5855 22.6438 39.944 23.2255 40.132 24.1031C40.2684 24.7401 40.2765 26.1619 40.1483 26.9874C39.6533 30.1756 38.1179 33.0897 36.697 33.5376L36.4266 33.6228L24.1501 30.3349C17.398 28.5265 11.7658 27.0155 11.634 26.9771L11.3944 26.9072L11.7978 26.4579C12.2897 25.91 12.6465 25.4305 12.9956 24.8487C13.2689 24.3932 13.6379 23.5998 13.7489 23.2288C13.7838 23.1121 13.8278 23.0165 13.8466 23.0165C13.8653 23.0165 15.4745 23.4447 17.4225 23.968C19.3704 24.4914 21.0421 24.9207 21.1374 24.922C21.4651 24.9268 21.6565 24.5217 21.4481 24.2644C21.373 24.1716 20.747 23.9889 17.776 23.1924C15.8061 22.6643 14.1826 22.2204 14.1681 22.2058C14.1536 22.1914 14.2096 21.9105 14.2926 21.5817C14.5509 20.5586 14.6515 19.8304 14.6809 18.7709C14.715 17.5462 14.6047 16.7059 14.3088 15.9349C14.2869 15.8777 14.304 15.8644 14.3751 15.8832C14.4278 15.8971 16.8872 16.5553 19.8404 17.3456ZM31.3592 16.9995C31.769 17.2373 32.0923 17.746 32.1556 18.252C32.2842 19.2814 31.1855 19.4436 30.5517 18.4888C30.2267 17.9993 30.1572 17.3916 30.3919 17.0932C30.6191 16.8043 30.9652 16.7708 31.3592 16.9995ZM11.6515 19.917C11.598 19.9705 11.5288 20.111 11.4977 20.2292C10.9437 22.3376 10.512 23.5209 10.2575 23.6289C9.88328 23.7876 9.78179 24.1099 10.0328 24.3425C10.1355 24.4377 10.2192 24.465 10.4085 24.465C10.6235 24.465 10.6777 24.4414 10.8702 24.2639C11.2735 23.8923 11.6447 22.9859 12.1514 21.1363C12.4182 20.1627 12.4213 20.0616 12.1903 19.8998C12.0332 19.7897 11.7703 19.7982 11.6515 19.917ZM31.3872 23.7315C31.2398 23.8885 31.2416 24.1638 31.391 24.3013C31.473 24.3768 32.4181 24.6494 34.8845 25.309C36.744 25.8063 38.3128 26.2132 38.3706 26.2132C38.5297 26.2132 38.721 25.9945 38.721 25.8126C38.721 25.6029 38.6522 25.4887 38.4856 25.4215C38.1964 25.3047 31.8076 23.6159 31.6553 23.6159C31.5532 23.6159 31.4567 23.6575 31.3872 23.7315Z" fill="#494B53"/>
</svg>
